{
.appVersion = "3260";
.formatVersion = 3;
DisplayStrings = (
"ĺ",
U,
c,
"/one.alt",
"/one.left",
"1",
a,
j
);
axes = (
{
name = weight;
tag = wght;
},
{
name = width;
tag = wdth;
},
{
name = slant;
tag = slnt;
}
);
classes = (
{
automatic = 1;

glyphs = (
{
glyphname = A;
lastChange = "2024-12-31 02:25:17 +0000";
layers = (
{
layerId = "B3EB4CE9-FF8A-458C-8111-2882C1B7C642";
shapes = (
{
closed = 1;
nodes = (
(584,1460,l),
(415,1460,l),
(44,0,l),
(200,0,l),
(491,1201,l),
(501,1201,l),
(794,0,l),
(957,0,l)
);
},
{
closed = 1;
nodes = (
(776,399,l),
(776,547,l),
(228,547,l),
(228,399,l)
);
}
);
width = 1000;
}
);
unicode = 65;
},
{
glyphname = Aacute;
lastChange = "2024-12-31 02:25:17 +0000";
layers = (
{
layerId = "B3EB4CE9-FF8A-458C-8111-2882C1B7C642";
shapes = (
{
closed = 1;
nodes = (
(584,1460,l),
(415,1460,l),
(44,0,l),
(200,0,l),
(491,1201,l),
(501,1201,l),
(794,0,l),
(957,0,l)
);
},
{
closed = 1;
nodes = (
(776,399,l),
(776,547,l),
(228,547,l),
(228,399,l)
);
},
{
closed = 1;
nodes = (
(598,1881,l),
(766,1881,l),
(563,1640,l),
(429,1640,l)
);
}
);
width = 1000;
}
);
unicode = 193;
},
{
glyphname = Abreve;
lastChange = "2024-12-31 02:25:17 +0000";
layers = (
{
layerId = "B3EB4CE9-FF8A-458C-8111-2882C1B7C642";
shapes = (
{
closed = 1;
nodes = (
(584,1460,l),
(415,1460,l),
(44,0,l),
(200,0,l),
(491,1201,l),
(501,1201,l),
(794,0,l),
(957,0,l)
);
},
{
closed = 1;
nodes = (
(776,399,l),
(776,547,l),
(228,547,l),
(228,399,l)
);
},
{
closed = 1;
nodes = (
(252,1727,o),
(335,1629,o),
(500,1629,cs),
(665,1629,o),
(748,1727,o),
(740,1881,c),
(639,1881,l),
(639,1798,o),
(599,1733,o),
(500,1733,cs),
(401,1733,o),
(361,1798,o),
(361,1881,c),
(260,1881,l)
);
}
);
width = 1000;
}
);
unicode = 258;
},
{
glyphname = Acircumflex;
lastChange = "2024-12-31 02:25:17 +0000";
layers = (
{
layerId = "B3EB4CE9-FF8A-458C-8111-2882C1B7C642";
shapes = (
{
closed = 1;
nodes = (
(584,1460,l),
(415,1460,l),
(44,0,l),
(200,0,l),
(491,1201,l),
(501,1201,l),
(794,0,l),
(957,0,l)
);
},
{
closed = 1;
nodes = (
(776,399,l),
(776,547,l),
(228,547,l),
(228,399,l)
);
},
{
closed = 1;
nodes = (
(361,1640,l),
(522,1844,l),
(478,1844,l),
(640,1640,l),
(786,1640,l),
(583,1881,l),
(417,1881,l),
(214,1640,l)
);
}
);
width = 1000;
}
);
unicode = 194;
},
{
glyphname = Adieresis;
lastChange = "2024-12-31 02:25:17 +0000";
layers = (
{
layerId = "B3EB4CE9-FF8A-458C-8111-2882C1B7C642";
shapes = (
{
closed = 1;
nodes = (
(584,1460,l),
(415,1460,l),
(44,0,l),
(200,0,l),
(491,1201,l),
(501,1201,l),
(794,0,l),
(957,0,l)
);
},
{
closed = 1;
nodes = (
(776,399,l),
(776,547,l),
(228,547,l),
(228,399,l)
);
},
{
closed = 1;
nodes = (
(351,1648,o),
(391,1692,o),
(391,1765,cs),
(391,1837,o),
(351,1880,o),
(293,1880,cs),
(234,1880,o),
(194,1837,o),
(194,1765,cs),
(194,1692,o),
(234,1648,o),
(293,1648,cs)
);
},
{
closed = 1;
nodes = (
(767,1648,o),
(807,1692,o),
(807,1765,cs),
(807,1837,o),
(767,1880,o),
(708,1880,cs),
(650,1880,o),
(609,1837,o),
(609,1765,cs),
(609,1692,o),
(650,1648,o),
(708,1648,cs)
);
}
);
width = 1000;
}
);
unicode = 196;
},
{
glyphname = Adotbelow;
lastChange = "2024-12-31 02:25:17 +0000";
layers = (
{
layerId = "B3EB4CE9-FF8A-458C-8111-2882C1B7C642";
shapes = (
{
closed = 1;
nodes = (
(584,1460,l),
(415,1460,l),
(44,0,l),
(200,0,l),
(491,1201,l),
(501,1201,l),
(794,0,l),
(957,0,l)
);
},
{
closed = 1;
nodes = (
(776,399,l),
(776,547,l),
(228,547,l),
(228,399,l)
);
},
{
closed = 1;
nodes = (
(566,-515,o),
(612,-466,o),
(612,-386,cs),
(612,-306,o),
(566,-258,o),
(500,-258,cs),
(434,-258,o),
(388,-306,o),
(388,-386,cs),
(388,-466,o),
(434,-515,o),
(500,-515,cs)
);
}
);
width = 1000;
}
);
unicode = 7840;
},
{
glyphname = Agrave;
lastChange = "2024-12-31 02:25:17 +0000";
layers = (
{
layerId = "B3EB4CE9-FF8A-458C-8111-2882C1B7C642";
shapes = (
{
closed = 1;
nodes = (
(584,1460,l),
(415,1460,l),
(44,0,l),
(200,0,l),
(491,1201,l),
(501,1201,l),
(794,0,l),
(957,0,l)
);
},
{
closed = 1;
nodes = (
(776,399,l),
(776,547,l),
(228,547,l),
(228,399,l)
);
},
{
closed = 1;
nodes = (
(402,1881,l),
(234,1881,l),
(437,1640,l),
(571,1640,l)
);
}
);
width = 1000;
}
);
unicode = 192;
},
{
glyphname = Amacron;
lastChange = "2024-12-31 02:25:17 +0000";
layers = (
{
layerId = "B3EB4CE9-FF8A-458C-8111-2882C1B7C642";
shapes = (
{
closed = 1;
nodes = (
(584,1460,l),
(415,1460,l),
(44,0,l),
(200,0,l),
(491,1201,l),
(501,1201,l),
(794,0,l),
(957,0,l)
);
},
{
closed = 1;
nodes = (
(776,399,l),
(776,547,l),
(228,547,l),
(228,399,l)
);
},
{
closed = 1;
nodes = (
(241,1849,l),
(241,1718,l),
(759,1718,l),
(759,1849,l)
);
}
);
width = 1000;
}
);
unicode = 256;
},
{
glyphname = Aogonek;
lastChange = "2024-12-31 02:25:17 +0000";
layers = (
{
layerId = "B3EB4CE9-FF8A-458C-8111-2882C1B7C642";
shapes = (
{
closed = 1;
nodes = (
(584,1460,l),
(415,1460,l),
(44,0,l),
(200,0,l),
(491,1201,l),
(501,1201,l),
(794,0,l),
(957,0,l)
);
},
{
closed = 1;
nodes = (
(776,399,l),
(776,547,l),
(228,547,l),
(228,399,l)
);
},
{
closed = 1;
nodes = (
(759,-67,o),
(710,-150,o),
(710,-247,cs),
(710,-331,o),
(747,-414,o),
(898,-414,cs),
(957,-414,l),
(957,-282,l),
(933,-282,ls),
(866,-282,o),
(844,-252,o),
(844,-206,cs),
(844,-153,o),
(873,-88,o),
(957,0,c),
(862,37,l)
);
}
);
width = 1000;
}
);
unicode = 260;
},
{
glyphname = Aring;
lastChange = "2024-12-31 02:25:17 +0000";
layers = (
{
layerId = "B3EB4CE9-FF8A-458C-8111-2882C1B7C642";
shapes = (
{
closed = 1;
nodes = (
(584,1460,l),
(415,1460,l),
(44,0,l),
(200,0,l),
(491,1201,l),
(501,1201,l),
(794,0,l),
(957,0,l)
);
},
{
closed = 1;
nodes = (
(776,399,l),
(776,547,l),
(228,547,l),
(228,399,l)
);
},
{
closed = 1;
nodes = (
(607,1404,o),
(683,1503,o),
(683,1638,cs),
(683,1772,o),
(607,1870,o),
(500,1870,cs),
(393,1870,o),
(317,1772,o),
(317,1638,cs),
(317,1503,o),
(393,1404,o),
(500,1404,cs)
);
},
{
closed = 1;
nodes = (
(435,1501,o),
(393,1560,o),
(393,1638,cs),
(393,1716,o),
(435,1773,o),
(500,1773,cs),
(565,1773,o),
(606,1716,o),
(606,1638,cs),
(606,1560,o),
(565,1501,o),
(500,1501,cs)
);
}
);
width = 1000;
}
);
unicode = 197;
},
{
glyphname = Atilde;
lastChange = "2024-12-31 02:25:17 +0000";
layers = (
{
layerId = "B3EB4CE9-FF8A-458C-8111-2882C1B7C642";
shapes = (
{
closed = 1;
nodes = (
(584,1460,l),
(415,1460,l),
(44,0,l),
(200,0,l),
(491,1201,l),
(501,1201,l),
(794,0,l),
(957,0,l)
);
},
{
closed = 1;
nodes = (
(776,399,l),
(776,547,l),
(228,547,l),
(228,399,l)
);
},
{
closed = 1;
nodes = (
(271,1897,o),
(208,1816,o),
(192,1673,c),
(297,1642,l),
(310,1726,o),
(343,1771,o),
(390,1771,cs),
(472,1771,o),
(507,1628,o),
(633,1628,cs),
(728,1628,o),
(792,1709,o),
(808,1853,c),
(703,1883,l),
(690,1799,o),
(658,1754,o),
(611,1754,cs),
(528,1754,o),
(492,1897,o),
(366,1897,cs)
);
}
);
width = 1000;
}
);
unicode = 195;
},
{
glyphname = AE;
lastChange = "2024-12-31 02:25:17 +0000";
layers = (
{
layerId = "B3EB4CE9-FF8A-458C-8111-2882C1B7C642";
shapes = (
{
closed = 1;
nodes = (
(659,1460,l),
(511,1460,l),
(511,0,l),
(659,0,l)
);
},
{
closed = 1;
nodes = (
(592,164,l),
(592,0,l),
(919,0,l),
(919,164,l)
);
},
{
closed = 1;
nodes = (
(600,818,l),
(600,662,l),
(860,662,l),
(860,818,l)
);
},
{
closed = 1;
nodes = (
(919,1460,l),
(592,1460,l),
(592,1296,l),
(919,1296,l)
);
},
{
closed = 1;
nodes = (
(552,1460,l),
(331,1460,l),
(44,0,l),
(199,0,l),
(440,1296,l),
(552,1296,l)
);
},
{
closed = 1;
nodes = (
(600,399,l),
(600,547,l),
(223,547,l),
(223,399,l)
);
}
);
width = 1000;
}
);
unicode = 198;
},
{
glyphname = AEacute;
lastChange = "2024-12-31 02:25:17 +0000";
layers = (
{
layerId = "B3EB4CE9-FF8A-458C-8111-2882C1B7C642";
shapes = (
{
closed = 1;
nodes = (
(659,1460,l),
(511,1460,l),
(511,0,l),
(659,0,l)
);
},
{
closed = 1;
nodes = (
(592,164,l),
(592,0,l),
(919,0,l),
(919,164,l)
);
},
{
closed = 1;
nodes = (
(600,818,l),
(600,662,l),
(860,662,l),
(860,818,l)
);
},
{
closed = 1;
nodes = (
(919,1460,l),
(592,1460,l),
(592,1296,l),
(919,1296,l)
);
},
{
closed = 1;
nodes = (
(552,1460,l),
(331,1460,l),
(44,0,l),
(199,0,l),
(440,1296,l),
(552,1296,l)
);
},
{
closed = 1;
nodes = (
(600,399,l),
(600,547,l),
(223,547,l),
(223,399,l)
);
},
{
closed = 1;
nodes = (
(715,1881,l),
(883,1881,l),
(680,1640,l),
(547,1640,l)
);
}
);
width = 1000;
}
);
unicode = 508;
},
{
glyphname = B;
lastChange = "2024-12-31 02:25:17 +0000";
layers = (
{
layerId = "B3EB4CE9-FF8A-458C-8111-2882C1B7C642";
shapes = (
{
closed = 1;
nodes = (
(299,1460,l),
(143,1460,l),
(143,0,l),
(299,0,l)
);
},
{
closed = 1;
nodes = (
(243,1460,l),
(243,1310,l),
(453,1310,ls),
(631,1310,o),
(697,1233,o),
(697,1103,cs),
(697,936,o),
(606,836,o),
(446,836,c),
(194,836,l),
(194,692,l),
(453,692,l),
(628,692,o),
(761,638,o),
(761,423,cs),
(761,226,o),
(651,150,o),
(453,150,cs),
(254,150,l),
(254,0,l),
(488,0,ls),
(765,0,o),
(923,160,o),
(923,421,cs),
(923,687,o),
(745,760,o),
(606,773,c),
(606,781,l),
(713,804,o),
(856,913,o),
(856,1147,cs),
(856,1367,o),
(724,1461,o),
(508,1460,c)
);
}
);
width = 1000;
}
);
unicode = 66;
},
{
glyphname = C;
lastChange = "2024-12-31 02:25:17 +0000";
layers = (
{
layerId = "B3EB4CE9-FF8A-458C-8111-2882C1B7C642";
shapes = (
{
closed = 1;
nodes = (
(248,1159,o),
(361,1312,o),
(522,1312,cs),
(664,1312,o),
(746,1189,o),
(759,987,c),
(907,1002,l),
(898,1302,o),
(748,1483,o),
(518,1483,cs),
(259,1483,o),
(85,1249,o),
(85,729,cs),
(85,212,o),
(260,-23,o),
(518,-23,cs),
(749,-23,o),
(898,158,o),
(907,462,c),
(759,477,l),
(746,271,o),
(664,148,o),
(522,148,cs),
(361,148,o),
(248,302,o),
(248,729,cs)
);
}
);
width = 1000;
}
);
unicode = 67;
},
{
glyphname = Cacute;
lastChange = "2024-12-31 02:25:17 +0000";
layers = (
{
layerId = "B3EB4CE9-FF8A-458C-8111-2882C1B7C642";
shapes = (
{
closed = 1;
nodes = (
(248,1159,o),
(361,1312,o),
(522,1312,cs),
(664,1312,o),
(746,1189,o),
(759,987,c),
(907,1002,l),
(898,1302,o),
(748,1483,o),
(518,1483,cs),
(259,1483,o),
(85,1249,o),
(85,729,cs),
(85,212,o),
(260,-23,o),
(518,-23,cs),
(749,-23,o),
(898,158,o),
(907,462,c),
(759,477,l),
(746,271,o),
(664,148,o),
(522,148,cs),
(361,148,o),
(248,302,o),
(248,729,cs)
);
},
{
closed = 1;
nodes = (
(598,1881,l),
(766,1881,l),
(563,1640,l),
(429,1640,l)
);
}
);
width = 1000;
}
);
unicode = 262;
},
{
glyphname = Ccaron;
lastChange = "2024-12-31 02:25:17 +0000";
layers = (
{
layerId = "B3EB4CE9-FF8A-458C-8111-2882C1B7C642";
shapes = (
{
closed = 1;
nodes = (
(248,1159,o),
(361,1312,o),
(522,1312,cs),
(664,1312,o),
(746,1189,o),
(759,987,c),
(907,1002,l),
(898,1302,o),
(748,1483,o),
(518,1483,cs),
(259,1483,o),
(85,1249,o),
(85,729,cs),
(85,212,o),
(260,-23,o),
(518,-23,cs),
(749,-23,o),
(898,158,o),
(907,462,c),
(759,477,l),
(746,271,o),
(664,148,o),
(522,148,cs),
(361,148,o),
(248,302,o),
(248,729,cs)
);
},
{
closed = 1;
nodes = (
(361,1881,l),
(522,1677,l),
(478,1677,l),
(640,1881,l),
(786,1881,l),
(583,1640,l),
(417,1640,l),
(214,1881,l)
);
}
);
width = 1000;
}
);
unicode = 268;
},
{
glyphname = Ccedilla;
lastChange = "2024-12-31 02:25:17 +0000";
layers = (
{
layerId = "B3EB4CE9-FF8A-458C-8111-2882C1B7C642";
shapes = (
{
closed = 1;
nodes = (
(248,1159,o),
(361,1312,o),
(522,1312,cs),
(664,1312,o),
(746,1189,o),
(759,987,c),
(907,1002,l),
(898,1302,o),
(748,1483,o),
(518,1483,cs),
(259,1483,o),
(85,1249,o),
(85,729,cs),
(85,212,o),
(260,-23,o),
(518,-23,cs),
(749,-23,o),
(898,158,o),
(907,462,c),
(759,477,l),
(746,271,o),
(664,148,o),
(522,148,cs),
(361,148,o),
(248,302,o),
(248,729,cs)
);
},
{
closed = 1;
nodes = (
(551,-220,l),
(548,48,l),
(451,48,l),
(451,-260,l),
(524,-269,o),
(570,-298,o),
(570,-373,cs),
(570,-436,o),
(539,-473,o),
(439,-473,cs),
(399,-473,l),
(399,-589,l),
(459,-589,ls),
(640,-589,o),
(690,-513,o),
(690,-385,cs),
(690,-247,o),
(631,-190,o),
(526,-168,c)
);
}
);
width = 1000;
}
);
unicode = 199;
},
{
glyphname = Ccircumflex;
lastChange = "2024-12-31 02:25:17 +0000";
layers = (
{
layerId = "B3EB4CE9-FF8A-458C-8111-2882C1B7C642";
shapes = (
{
closed = 1;
nodes = (
(248,1159,o),
(361,1312,o),
(522,1312,cs),
(664,1312,o),
(746,1189,o),
(759,987,c),
(907,1002,l),
(898,1302,o),
(748,1483,o),
(518,1483,cs),
(259,1483,o),
(85,1249,o),
(85,729,cs),
(85,212,o),
(260,-23,o),
(518,-23,cs),
(749,-23,o),
(898,158,o),
(907,462,c),
(759,477,l),
(746,271,o),
(664,148,o),
(522,148,cs),
(361,148,o),
(248,302,o),
(248,729,cs)
);
},
{
closed = 1;
nodes = (
(361,1640,l),
(522,1844,l),
(478,1844,l),
(640,1640,l),
(786,1640,l),
(583,1881,l),
(417,1881,l),
(214,1640,l)
);
}
);
width = 1000;
}
);
unicode = 264;
},
{
glyphname = Cdotaccent;
lastChange = "2024-12-31 02:25:17 +0000";
layers = (
{
layerId = "B3EB4CE9-FF8A-458C-8111-2882C1B7C642";
shapes = (
{
closed = 1;
nodes = (
(248,1159,o),
(361,1312,o),
(522,1312,cs),
(664,1312,o),
(746,1189,o),
(759,987,c),
(907,1002,l),
(898,1302,o),
(748,1483,o),
(518,1483,cs),
(259,1483,o),
(85,1249,o),
(85,729,cs),
(85,212,o),
(260,-23,o),
(518,-23,cs),
(749,-23,o),
(898,158,o),
(907,462,c),
(759,477,l),
(746,271,o),
(664,148,o),
(522,148,cs),
(361,148,o),
(248,302,o),
(248,729,cs)
);
},
{
closed = 1;
nodes = (
(559,1648,o),
(600,1692,o),
(600,1765,cs),
(600,1837,o),
(559,1880,o),
(499,1880,cs),
(440,1880,o),
(398,1837,o),
(398,1765,cs),
(398,1692,o),
(440,1648,o),
(499,1648,cs)
);
}
);
width = 1000;
}
);
unicode = 266;
},
{
glyphname = D;
lastChange = "2024-12-31 02:25:17 +0000";
layers = (
{
layerId = "B3EB4CE9-FF8A-458C-8111-2882C1B7C642";
shapes = (
{
closed = 1;
nodes = (
(294,1460,l),
(138,1460,l),
(138,0,l),
(294,0,l)
);
},
{
closed = 1;
nodes = (
(755,358,o),
(652,159,o),
(407,159,cs),
(223,159,l),
(223,0,l),
(420,0,ls),
(757,0,o),
(918,277,o),
(918,742,cs),
(918,1206,o),
(757,1460,o),
(420,1460,cs),
(223,1460,l),
(223,1301,l),
(407,1301,ls),
(652,1301,o),
(755,1126,o),
(755,742,cs)
);
}
);
width = 1000;
}
);
unicode = 68;
},
{
glyphname = Dcaron;
lastChange = "2024-12-31 02:25:17 +0000";
layers = (
{
layerId = "B3EB4CE9-FF8A-458C-8111-2882C1B7C642";
shapes = (
{
closed = 1;
nodes = (
(294,1460,l),
(138,1460,l),
(138,0,l),
(294,0,l)
);
},
{
closed = 1;
nodes = (
(755,358,o),
(652,159,o),
(407,159,cs),
(223,159,l),
(223,0,l),
(420,0,ls),
(757,0,o),
(918,277,o),
(918,742,cs),
(918,1206,o),
(757,1460,o),
(420,1460,cs),
(223,1460,l),
(223,1301,l),
(407,1301,ls),
(652,1301,o),
(755,1126,o),
(755,742,cs)
);
},
{
closed = 1;
nodes = (
(361,1881,l),
(522,1677,l),
(478,1677,l),
(640,1881,l),
(786,1881,l),
(583,1640,l),
(417,1640,l),
(214,1881,l)
);
}
);
width = 1000;
}
);
unicode = 270;
},
{
glyphname = Dcroat;
lastChange = "2024-12-31 02:25:17 +0000";
layers = (
{
layerId = "B3EB4CE9-FF8A-458C-8111-2882C1B7C642";
shapes = (
{
closed = 1;
nodes = (
(25,832,l),
(25,668,l),
(533,668,l),
(533,832,l)
);
},
{
closed = 1;
nodes = (
(294,1460,l),
(138,1460,l),
(138,0,l),
(294,0,l)
);
},
{
closed = 1;
nodes = (
(755,358,o),
(652,159,o),
(407,159,cs),
(223,159,l),
(223,0,l),
(420,0,ls),
(757,0,o),
(918,277,o),
(918,742,cs),
(918,1206,o),
(757,1460,o),
(420,1460,cs),
(223,1460,l),
(223,1301,l),
(407,1301,ls),
(652,1301,o),
(755,1126,o),
(755,742,cs)
);
}
);
width = 1000;
}
);
unicode = 272;
},
{
glyphname = Eth;
lastChange = "2024-12-31 02:25:17 +0000";
layers = (
{
layerId = "B3EB4CE9-FF8A-458C-8111-2882C1B7C642";
shapes = (
{
closed = 1;
nodes = (
(25,832,l),
(25,668,l),
(533,668,l),
(533,832,l)
);
},
{
closed = 1;
nodes = (
(294,1460,l),
(138,1460,l),
(138,0,l),
(294,0,l)
);
},
{
closed = 1;
nodes = (
(755,358,o),
(652,159,o),
(407,159,cs),
(223,159,l),
(223,0,l),
(420,0,ls),
(757,0,o),
(918,277,o),
(918,742,cs),
(918,1206,o),
(757,1460,o),
(420,1460,cs),
(223,1460,l),
(223,1301,l),
(407,1301,ls),
(652,1301,o),
(755,1126,o),
(755,742,cs)
);
}
);
width = 1000;
}
);
unicode = 208;
},
{
glyphname = E;
lastChange = "2024-12-31 02:25:17 +0000";
layers = (
{
layerId = "B3EB4CE9-FF8A-458C-8111-2882C1B7C642";
shapes = (
{
closed = 1;
nodes = (
(294,1460,l),
(138,1460,l),
(138,0,l),
(294,0,l)
);
},
{
closed = 1;
nodes = (
(227,164,l),
(227,0,l),
(867,0,l),
(867,164,l)
);
},
{
closed = 1;
nodes = (
(235,818,l),
(235,662,l),
(768,662,l),
(768,818,l)
);
},
{
closed = 1;
nodes = (
(867,1460,l),
(227,1460,l),
(227,1296,l),
(867,1296,l)
);
}
);
width = 1000;
}
);
unicode = 69;
},
{
glyphname = Eacute;
lastChange = "2024-12-31 02:25:17 +0000";
layers = (
{
layerId = "B3EB4CE9-FF8A-458C-8111-2882C1B7C642";
shapes = (
{
closed = 1;
nodes = (
(294,1460,l),
(138,1460,l),
(138,0,l),
(294,0,l)
);
},
{
closed = 1;
nodes = (
(227,164,l),
(227,0,l),
(867,0,l),
(867,164,l)
);
},
{
closed = 1;
nodes = (
(235,818,l),
(235,662,l),
(768,662,l),
(768,818,l)
);
},
{
closed = 1;
nodes = (
(867,1460,l),
(227,1460,l),
(227,1296,l),
(867,1296,l)
);
},
{
closed = 1;
nodes = (
(598,1881,l),
(766,1881,l),
(563,1640,l),
(429,1640,l)
);
}
);
width = 1000;
}
);
unicode = 201;
},
{
glyphname = Ebreve;
lastChange = "2024-12-31 02:25:17 +0000";
layers = (
{
layerId = "B3EB4CE9-FF8A-458C-8111-2882C1B7C642";
shapes = (
{
closed = 1;
nodes = (
(294,1460,l),
(138,1460,l),
(138,0,l),
(294,0,l)
);
},
{
closed = 1;
nodes = (
(227,164,l),
(227,0,l),
(867,0,l),
(867,164,l)
);
},
{
closed = 1;
nodes = (
(235,818,l),
(235,662,l),
(768,662,l),
(768,818,l)
);
},
{
closed = 1;
nodes = (
(867,1460,l),
(227,1460,l),
(227,1296,l),
(867,1296,l)
);
},
{
closed = 1;
nodes = (
(252,1727,o),
(335,1629,o),
(500,1629,cs),
(665,1629,o),
(748,1727,o),
(740,1881,c),
(639,1881,l),
(639,1798,o),
(599,1733,o),
(500,1733,cs),
(401,1733,o),
(361,1798,o),
(361,1881,c),
(260,1881,l)
);
}
);
width = 1000;
}
);
unicode = 276;
},
{
glyphname = Ecaron;
lastChange = "2024-12-31 02:25:17 +0000";
layers = (
{
layerId = "B3EB4CE9-FF8A-458C-8111-2882C1B7C642";
shapes = (
{
closed = 1;
nodes = (
(294,1460,l),
(138,1460,l),
(138,0,l),
(294,0,l)
);
},
{
closed = 1;
nodes = (
(227,164,l),
(227,0,l),
(867,0,l),
(867,164,l)
);
},
{
closed = 1;
nodes = (
(235,818,l),
(235,662,l),
(768,662,l),
(768,818,l)
);
},
{
closed = 1;
nodes = (
(867,1460,l),
(227,1460,l),
(227,1296,l),
(867,1296,l)
);
},
{
closed = 1;
nodes = (
(361,1881,l),
(522,1677,l),
(478,1677,l),
(640,1881,l),
(786,1881,l),
(583,1640,l),
(417,1640,l),
(214,1881,l)
);
}
);
width = 1000;
}
);
unicode = 282;
},
{
glyphname = Ecircumflex;
lastChange = "2024-12-31 02:25:17 +0000";
layers = (
{
layerId = "B3EB4CE9-FF8A-458C-8111-2882C1B7C642";
shapes = (
{
closed = 1;
nodes = (
(294,1460,l),
(138,1460,l),
(138,0,l),
(294,0,l)
);
},
{
closed = 1;
nodes = (
(227,164,l),
(227,0,l),
(867,0,l),
(867,164,l)
);
},
{
closed = 1;
nodes = (
(235,818,l),
(235,662,l),
(768,662,l),
(768,818,l)
);
},
{
closed = 1;
nodes = (
(867,1460,l),
(227,1460,l),
(227,1296,l),
(867,1296,l)
);
},
{
closed = 1;
nodes = (
(361,1640,l),
(522,1844,l),
(478,1844,l),
(640,1640,l),
(786,1640,l),
(583,1881,l),
(417,1881,l),
(214,1640,l)
);
}
);
width = 1000;
}
);
unicode = 202;
},
{
glyphname = Edieresis;
lastChange = "2024-12-31 02:25:17 +0000";
layers = (
{
layerId = "B3EB4CE9-FF8A-458C-8111-2882C1B7C642";
shapes = (
{
closed = 1;
nodes = (
(294,1460,l),
(138,1460,l),
(138,0,l),
(294,0,l)
);
},
{
closed = 1;
nodes = (
(227,164,l),
(227,0,l),
(867,0,l),
(867,164,l)
);
},
{
closed = 1;
nodes = (
(235,818,l),
(235,662,l),
(768,662,l),
(768,818,l)
);
},
{
closed = 1;
nodes = (
(867,1460,l),
(227,1460,l),
(227,1296,l),
(867,1296,l)
);
},
{
closed = 1;
nodes = (
(351,1648,o),
(391,1692,o),
(391,1765,cs),
(391,1837,o),
(351,1880,o),
(293,1880,cs),
(234,1880,o),
(194,1837,o),
(194,1765,cs),
(194,1692,o),
(234,1648,o),
(293,1648,cs)
);
},
{
closed = 1;
nodes = (
(767,1648,o),
(807,1692,o),
(807,1765,cs),
(807,1837,o),
(767,1880,o),
(708,1880,cs),
(650,1880,o),
(609,1837,o),
(609,1765,cs),
(609,1692,o),
(650,1648,o),
(708,1648,cs)
);
}
);
width = 1000;
}
);
unicode = 203;
},
{
glyphname = Edotaccent;
lastChange = "2024-12-31 02:25:17 +0000";
layers = (
{
layerId = "B3EB4CE9-FF8A-458C-8111-2882C1B7C642";
shapes = (
{
closed = 1;
nodes = (
(294,1460,l),
(138,1460,l),
(138,0,l),
(294,0,l)
);
},
{
closed = 1;
nodes = (
(227,164,l),
(227,0,l),
(867,0,l),
(867,164,l)
);
},
{
closed = 1;
nodes = (
(235,818,l),
(235,662,l),
(768,662,l),
(768,818,l)
);
},
{
closed = 1;
nodes = (
(867,1460,l),
(227,1460,l),
(227,1296,l),
(867,1296,l)
);
},
{
closed = 1;
nodes = (
(559,1648,o),
(600,1692,o),
(600,1765,cs),
(600,1837,o),
(559,1880,o),
(499,1880,cs),
(440,1880,o),
(398,1837,o),
(398,1765,cs),
(398,1692,o),
(440,1648,o),
(499,1648,cs)
);
}
);
width = 1000;
}
);
unicode = 278;
},
{
glyphname = Edotbelow;
lastChange = "2024-12-31 02:25:17 +0000";
layers = (
{
layerId = "B3EB4CE9-FF8A-458C-8111-2882C1B7C642";
shapes = (
{
closed = 1;
nodes = (
(294,1460,l),
(138,1460,l),
(138,0,l),
(294,0,l)
);
},
{
closed = 1;
nodes = (
(227,164,l),
(227,0,l),
(867,0,l),
(867,164,l)
);
},
{
closed = 1;
nodes = (
(235,818,l),
(235,662,l),
(768,662,l),
(768,818,l)
);
},
{
closed = 1;
nodes = (
(867,1460,l),
(227,1460,l),
(227,1296,l),
(867,1296,l)
);
},
{
closed = 1;
nodes = (
(566,-515,o),
(612,-466,o),
(612,-386,cs),
(612,-306,o),
(566,-258,o),
(500,-258,cs),
(434,-258,o),
(388,-306,o),
(388,-386,cs),
(388,-466,o),
(434,-515,o),
(500,-515,cs)
);
}
);
width = 1000;
}
);
unicode = 7864;
},
{
glyphname = Egrave;
lastChange = "2024-12-31 02:25:17 +0000";
layers = (
{
layerId = "B3EB4CE9-FF8A-458C-8111-2882C1B7C642";
shapes = (
{
closed = 1;
nodes = (
(294,1460,l),
(138,1460,l),
(138,0,l),
(294,0,l)
);
},
{
closed = 1;
nodes = (
(227,164,l),
(227,0,l),
(867,0,l),
(867,164,l)
);
},
{
closed = 1;
nodes = (
(235,818,l),
(235,662,l),
(768,662,l),
(768,818,l)
);
},
{
closed = 1;
nodes = (
(867,1460,l),
(227,1460,l),
(227,1296,l),
(867,1296,l)
);
},
{
closed = 1;
nodes = (
(402,1881,l),
(234,1881,l),
(437,1640,l),
(571,1640,l)
);
}
);
width = 1000;
}
);
unicode = 200;
},
{
glyphname = Emacron;
lastChange = "2024-12-31 02:25:17 +0000";
layers = (
{
layerId = "B3EB4CE9-FF8A-458C-8111-2882C1B7C642";
shapes = (
{
closed = 1;
nodes = (
(294,1460,l),
(138,1460,l),
(138,0,l),
(294,0,l)
);
},
{
closed = 1;
nodes = (
(227,164,l),
(227,0,l),
(867,0,l),
(867,164,l)
);
},
{
closed = 1;
nodes = (
(235,818,l),
(235,662,l),
(768,662,l),
(768,818,l)
);
},
{
closed = 1;
nodes = (
(867,1460,l),
(227,1460,l),
(227,1296,l),
(867,1296,l)
);
},
{
closed = 1;
nodes = (
(241,1849,l),
(241,1718,l),
(759,1718,l),
(759,1849,l)
);
}
);
width = 1000;
}
);
unicode = 274;
},
{
glyphname = Eogonek;
lastChange = "2024-12-31 02:25:17 +0000";
layers = (
{
layerId = "B3EB4CE9-FF8A-458C-8111-2882C1B7C642";
shapes = (
{
closed = 1;
nodes = (
(294,1460,l),
(138,1460,l),
(138,0,l),
(294,0,l)
);
},
{
closed = 1;
nodes = (
(227,164,l),
(227,0,l),
(867,0,l),
(867,164,l)
);
},
{
closed = 1;
nodes = (
(235,818,l),
(235,662,l),
(768,662,l),
(768,818,l)
);
},
{
closed = 1;
nodes = (
(867,1460,l),
(227,1460,l),
(227,1296,l),
(867,1296,l)
);
},
{
closed = 1;
nodes = (
(670,-67,o),
(620,-150,o),
(620,-247,cs),
(620,-331,o),
(657,-414,o),
(809,-414,cs),
(867,-414,l),
(867,-282,l),
(844,-282,ls),
(777,-282,o),
(754,-252,o),
(754,-206,cs),
(754,-153,o),
(783,-88,o),
(867,0,c),
(773,37,l)
);
}
);
width = 1000;
}
);
unicode = 280;
},
{
glyphname = Etilde;
lastChange = "2024-12-31 02:25:17 +0000";
layers = (
{
layerId = "B3EB4CE9-FF8A-458C-8111-2882C1B7C642";
shapes = (
{
closed = 1;
nodes = (
(294,1460,l),
(138,1460,l),
(138,0,l),
(294,0,l)
);
},
{
closed = 1;
nodes = (
(227,164,l),
(227,0,l),
(867,0,l),
(867,164,l)
);
},
{
closed = 1;
nodes = (
(235,818,l),
(235,662,l),
(768,662,l),
(768,818,l)
);
},
{
closed = 1;
nodes = (
(867,1460,l),
(227,1460,l),
(227,1296,l),
(867,1296,l)
);
},
{
closed = 1;
nodes = (
(271,1897,o),
(208,1816,o),
(192,1673,c),
(297,1642,l),
(310,1726,o),
(343,1771,o),
(390,1771,cs),
(472,1771,o),
(507,1628,o),
(633,1628,cs),
(728,1628,o),
(792,1709,o),
(808,1853,c),
(703,1883,l),
(690,1799,o),
(658,1754,o),
(611,1754,cs),
(528,1754,o),
(492,1897,o),
(366,1897,cs)
);
}
);
width = 1000;
}
);
unicode = 7868;
},
{
glyphname = Schwa;
lastChange = "2024-12-31 02:25:17 +0000";
layers = (
{
layerId = "B3EB4CE9-FF8A-458C-8111-2882C1B7C642";
shapes = (
{
closed = 1;
nodes = (
(89,746,l),
(89,548,ls),
(89,140,o),
(261,-23,o),
(477,-23,cs),
(743,-23,o),
(915,212,o),
(915,729,cs),
(915,1249,o),
(754,1483,o),
(489,1483,cs),
(286,1483,o),
(127,1339,o),
(94,1023,c),
(244,1005,l),
(274,1233,o),
(368,1311,o),
(490,1311,cs),
(657,1311,o),
(750,1163,o),
(750,719,cs),
(750,301,o),
(647,146,o),
(473,146,cs),
(329,146,o),
(237,251,o),
(237,534,cs),
(237,646,l),
(179,587,l),
(833,587,l),
(833,746,l)
);
}
);
width = 1000;
}
);
unicode = 399;
},
{
glyphname = F;
lastChange = "2024-12-31 02:25:17 +0000";
layers = (
{
layerId = "B3EB4CE9-FF8A-458C-8111-2882C1B7C642";
shapes = (
{
closed = 1;
nodes = (
(294,1460,l),
(138,1460,l),
(138,0,l),
(294,0,l)
);
},
{
closed = 1;
nodes = (
(235,779,l),
(235,622,l),
(766,622,l),
(766,779,l)
);
},
{
closed = 1;
nodes = (
(865,1460,l),
(227,1460,l),
(227,1296,l),
(865,1296,l)
);
}
);
width = 1000;
}
);
unicode = 70;
},
{
glyphname = G;
lastChange = "2024-12-31 02:25:17 +0000";
layers = (
{
layerId = "B3EB4CE9-FF8A-458C-8111-2882C1B7C642";
shapes = (
{
closed = 1;
nodes = (
(525,587,l),
(821,587,l),
(763,646,l),
(763,534,ls),
(763,251,o),
(671,146,o),
(527,146,cs),
(353,146,o),
(248,278,o),
(248,727,cs),
(248,1166,o),
(355,1311,o),
(522,1311,cs),
(644,1311,o),
(734,1233,o),
(756,1005,c),
(906,1023,l),
(881,1339,o),
(724,1483,o),
(522,1483,cs),
(256,1483,o),
(85,1263,o),
(85,729,cs),
(85,196,o),
(257,-24,o),
(523,-24,cs),
(739,-24,o),
(911,140,o),
(911,548,cs),
(911,746,l),
(525,746,l)
);
}
);
width = 1000;
}
);
unicode = 71;
},
{
glyphname = Gbreve;
lastChange = "2024-12-31 02:25:17 +0000";
layers = (
{
layerId = "B3EB4CE9-FF8A-458C-8111-2882C1B7C642";
shapes = (
{
closed = 1;
nodes = (
(525,587,l),
(821,587,l),
(763,646,l),
(763,534,ls),
(763,251,o),
(671,146,o),
(527,146,cs),
(353,146,o),
(248,278,o),
(248,727,cs),
(248,1166,o),
(355,1311,o),
(522,1311,cs),
(644,1311,o),
(734,1233,o),
(756,1005,c),
(906,1023,l),
(881,1339,o),
(724,1483,o),
(522,1483,cs),
(256,1483,o),
(85,1263,o),
(85,729,cs),
(85,196,o),
(257,-24,o),
(523,-24,cs),
(739,-24,o),
(911,140,o),
(911,548,cs),
(911,746,l),
(525,746,l)
);
},
{
closed = 1;
nodes = (
(252,1727,o),
(335,1629,o),
(500,1629,cs),
(665,1629,o),
(748,1727,o),
(740,1881,c),
(639,1881,l),
(639,1798,o),
(599,1733,o),
(500,1733,cs),
(401,1733,o),
(361,1798,o),
(361,1881,c),
(260,1881,l)
);
}
);
width = 1000;
}
);
unicode = 286;
},
{
glyphname = Gcaron;
lastChange = "2024-12-31 02:25:17 +0000";
layers = (
{
layerId = "B3EB4CE9-FF8A-458C-8111-2882C1B7C642";
shapes = (
{
closed = 1;
nodes = (
(525,587,l),
(821,587,l),
(763,646,l),
(763,534,ls),
(763,251,o),
(671,146,o),
(527,146,cs),
(353,146,o),
(248,278,o),
(248,727,cs),
(248,1166,o),
(355,1311,o),
(522,1311,cs),
(644,1311,o),
(734,1233,o),
(756,1005,c),
(906,1023,l),
(881,1339,o),
(724,1483,o),
(522,1483,cs),
(256,1483,o),
(85,1263,o),
(85,729,cs),
(85,196,o),
(257,-24,o),
(523,-24,cs),
(739,-24,o),
(911,140,o),
(911,548,cs),
(911,746,l),
(525,746,l)
);
},
{
closed = 1;
nodes = (
(361,1881,l),
(522,1677,l),
(478,1677,l),
(640,1881,l),
(786,1881,l),
(583,1640,l),
(417,1640,l),
(214,1881,l)
);
}
);
width = 1000;
}
);
unicode = 486;
},
{
glyphname = Gcircumflex;
lastChange = "2024-12-31 02:25:17 +0000";
layers = (
{
layerId = "B3EB4CE9-FF8A-458C-8111-2882C1B7C642";
shapes = (
{
closed = 1;
nodes = (
(525,587,l),
(821,587,l),
(763,646,l),
(763,534,ls),
(763,251,o),
(671,146,o),
(527,146,cs),
(353,146,o),
(248,278,o),
(248,727,cs),
(248,1166,o),
(355,1311,o),
(522,1311,cs),
(644,1311,o),
(734,1233,o),
(756,1005,c),
(906,1023,l),
(881,1339,o),
(724,1483,o),
(522,1483,cs),
(256,1483,o),
(85,1263,o),
(85,729,cs),
(85,196,o),
(257,-24,o),
(523,-24,cs),
(739,-24,o),
(911,140,o),
(911,548,cs),
(911,746,l),
(525,746,l)
);
},
{
closed = 1;
nodes = (
(361,1640,l),
(522,1844,l),
(478,1844,l),
(640,1640,l),
(786,1640,l),
(583,1881,l),
(417,1881,l),
(214,1640,l)
);
}
);
width = 1000;
}
);
unicode = 284;
},
{
glyphname = Gcommaaccent;
lastChange = "2024-12-31 02:25:17 +0000";
layers = (
{
layerId = "B3EB4CE9-FF8A-458C-8111-2882C1B7C642";
shapes = (
{
closed = 1;
nodes = (
(525,587,l),
(821,587,l),
(763,646,l),
(763,534,ls),
(763,251,o),
(671,146,o),
(527,146,cs),
(353,146,o),
(248,278,o),
(248,727,cs),
(248,1166,o),
(355,1311,o),
(522,1311,cs),
(644,1311,o),
(734,1233,o),
(756,1005,c),
(906,1023,l),
(881,1339,o),
(724,1483,o),
(522,1483,cs),
(256,1483,o),
(85,1263,o),
(85,729,cs),
(85,196,o),
(257,-24,o),
(523,-24,cs),
(739,-24,o),
(911,140,o),
(911,548,cs),
(911,746,l),
(525,746,l)
);
},
{
closed = 1;
nodes = (
(519,-516,o),
(539,-511,o),
(557,-499,c),
(530,-469,l),
(517,-566,o),
(450,-623,o),
(375,-679,c),
(428,-760,l),
(528,-697,o),
(623,-584,o),
(623,-432,cs),
(623,-313,o),
(567,-258,o),
(498,-258,cs),
(434,-258,o),
(385,-305,o),
(385,-387,cs),
(385,-467,o),
(432,-516,o),
(499,-516,cs)
);
}
);
width = 1000;
}
);
unicode = 290;
},
{
glyphname = Gdotaccent;
lastChange = "2024-12-31 02:25:17 +0000";
layers = (
{
layerId = "B3EB4CE9-FF8A-458C-8111-2882C1B7C642";
shapes = (
{
closed = 1;
nodes = (
(525,587,l),
(821,587,l),
(763,646,l),
(763,534,ls),
(763,251,o),
(671,146,o),
(527,146,cs),
(353,146,o),
(248,278,o),
(248,727,cs),
(248,1166,o),
(355,1311,o),
(522,1311,cs),
(644,1311,o),
(734,1233,o),
(756,1005,c),
(906,1023,l),
(881,1339,o),
(724,1483,o),
(522,1483,cs),
(256,1483,o),
(85,1263,o),
(85,729,cs),
(85,196,o),
(257,-24,o),
(523,-24,cs),
(739,-24,o),
(911,140,o),
(911,548,cs),
(911,746,l),
(525,746,l)
);
},
{
closed = 1;
nodes = (
(559,1648,o),
(600,1692,o),
(600,1765,cs),
(600,1837,o),
(559,1880,o),
(499,1880,cs),
(440,1880,o),
(398,1837,o),
(398,1765,cs),
(398,1692,o),
(440,1648,o),
(499,1648,cs)
);
}
);
width = 1000;
}
);
unicode = 288;
},
{
glyphname = H;
lastChange = "2024-12-31 02:25:17 +0000";
layers = (
{
layerId = "B3EB4CE9-FF8A-458C-8111-2882C1B7C642";
shapes = (
{
closed = 1;
nodes = (
(294,1460,l),
(138,1460,l),
(138,0,l),
(294,0,l)
);
},
{
closed = 1;
nodes = (
(862,1460,l),
(706,1460,l),
(706,0,l),
(862,0,l)
);
},
{
closed = 1;
nodes = (
(781,667,l),
(781,831,l),
(221,831,l),
(221,667,l)
);
}
);
width = 1000;
}
);
unicode = 72;
},
{
glyphname = Hbar;
lastChange = "2024-12-31 02:25:17 +0000";
layers = (
{
layerId = "B3EB4CE9-FF8A-458C-8111-2882C1B7C642";
shapes = (
{
closed = 1;
nodes = (
(32,1239,l),
(32,1095,l),
(968,1095,l),
(968,1239,l)
);
},
{
closed = 1;
nodes = (
(294,1460,l),
(138,1460,l),
(138,0,l),
(294,0,l)
);
},
{
closed = 1;
nodes = (
(862,1460,l),
(706,1460,l),
(706,0,l),
(862,0,l)
);
},
{
closed = 1;
nodes = (
(781,667,l),
(781,831,l),
(221,831,l),
(221,667,l)
);
}
);
width = 1000;
}
);
unicode = 294;
},
{
glyphname = Hcircumflex;
lastChange = "2024-12-31 02:25:17 +0000";
layers = (
{
layerId = "B3EB4CE9-FF8A-458C-8111-2882C1B7C642";
shapes = (
{
closed = 1;
nodes = (
(294,1460,l),
(138,1460,l),
(138,0,l),
(294,0,l)
);
},
{
closed = 1;
nodes = (
(862,1460,l),
(706,1460,l),
(706,0,l),
(862,0,l)
);
},
{
closed = 1;
nodes = (
(781,667,l),
(781,831,l),
(221,831,l),
(221,667,l)
);
},
{
closed = 1;
nodes = (
(361,1640,l),
(522,1844,l),
(478,1844,l),
(640,1640,l),
(786,1640,l),
(583,1881,l),
(417,1881,l),
(214,1640,l)
);
}
);
width = 1000;
}
);
unicode = 292;
},
{
glyphname = I;
lastChange = "2024-12-31 02:25:17 +0000";
layers = (
{
layerId = "B3EB4CE9-FF8A-458C-8111-2882C1B7C642";
shapes = (
{
closed = 1;
nodes = (
(578,1460,l),
(422,1460,l),
(422,0,l),
(578,0,l)
);
},
{
closed = 1;
nodes = (
(133,1296,l),
(867,1296,l),
(867,1460,l),
(133,1460,l)
);
},
{
closed = 1;
nodes = (
(867,0,l),
(867,164,l),
(133,164,l),
(133,0,l)
);
}
);
width = 1000;
}
);
unicode = 73;
},
{
glyphname = IJ;
lastChange = "2024-12-31 02:25:17 +0000";
layers = (
{
layerId = "B3EB4CE9-FF8A-458C-8111-2882C1B7C642";
shapes = (
{
closed = 1;
nodes = (
(313,1460,l),
(156,1460,l),
(156,659,l),
(313,659,l)
);
},
{
closed = 1;
nodes = (
(158,352,ls),
(166,92,o),
(290,-23,o),
(498,-23,cs),
(724,-23,o),
(847,106,o),
(847,408,cs),
(847,1460,l),
(690,1460,l),
(690,395,ls),
(690,198,o),
(611,142,o),
(499,142,cs),
(398,142,o),
(321,191,o),
(315,366,cs),
(312,423,l),
(156,423,l)
);
}
);
width = 1000;
}
);
unicode = 306;
},
{
glyphname = Iacute;
lastChange = "2024-12-31 02:25:17 +0000";
layers = (
{
layerId = "B3EB4CE9-FF8A-458C-8111-2882C1B7C642";
shapes = (
{
closed = 1;
nodes = (
(578,1460,l),
(422,1460,l),
(422,0,l),
(578,0,l)
);
},
{
closed = 1;
nodes = (
(133,1296,l),
(867,1296,l),
(867,1460,l),
(133,1460,l)
);
},
{
closed = 1;
nodes = (
(867,0,l),
(867,164,l),
(133,164,l),
(133,0,l)
);
},
{
closed = 1;
nodes = (
(598,1881,l),
(766,1881,l),
(563,1640,l),
(429,1640,l)
);
}
);
width = 1000;
}
);
unicode = 205;
},
{
glyphname = Ibreve;
lastChange = "2024-12-31 02:25:17 +0000";
layers = (
{
layerId = "B3EB4CE9-FF8A-458C-8111-2882C1B7C642";
shapes = (
{
closed = 1;
nodes = (
(578,1460,l),
(422,1460,l),
(422,0,l),
(578,0,l)
);
},
{
closed = 1;
nodes = (
(133,1296,l),
(867,1296,l),
(867,1460,l),
(133,1460,l)
);
},
{
closed = 1;
nodes = (
(867,0,l),
(867,164,l),
(133,164,l),
(133,0,l)
);
},
{
closed = 1;
nodes = (
(252,1727,o),
(335,1629,o),
(500,1629,cs),
(665,1629,o),
(748,1727,o),
(740,1881,c),
(639,1881,l),
(639,1798,o),
(599,1733,o),
(500,1733,cs),
(401,1733,o),
(361,1798,o),
(361,1881,c),
(260,1881,l)
);
}
);
width = 1000;
}
);
unicode = 300;
},
{
glyphname = Icircumflex;
lastChange = "2024-12-31 02:25:17 +0000";
layers = (
{
layerId = "B3EB4CE9-FF8A-458C-8111-2882C1B7C642";
shapes = (
{
closed = 1;
nodes = (
(578,1460,l),
(422,1460,l),
(422,0,l),
(578,0,l)
);
},
{
closed = 1;
nodes = (
(133,1296,l),
(867,1296,l),
(867,1460,l),
(133,1460,l)
);
},
{
closed = 1;
nodes = (
(867,0,l),
(867,164,l),
(133,164,l),
(133,0,l)
);
},
{
closed = 1;
nodes = (
(361,1640,l),
(522,1844,l),
(478,1844,l),
(640,1640,l),
(786,1640,l),
(583,1881,l),
(417,1881,l),
(214,1640,l)
);
}
);
width = 1000;
}
);
unicode = 206;
},
{
glyphname = Idieresis;
lastChange = "2024-12-31 02:25:17 +0000";
layers = (
{
layerId = "B3EB4CE9-FF8A-458C-8111-2882C1B7C642";
shapes = (
{
closed = 1;
nodes = (
(578,1460,l),
(422,1460,l),
(422,0,l),
(578,0,l)
);
},
{
closed = 1;
nodes = (
(133,1296,l),
(867,1296,l),
(867,1460,l),
(133,1460,l)
);
},
{
closed = 1;
nodes = (
(867,0,l),
(867,164,l),
(133,164,l),
(133,0,l)
);
},
{
closed = 1;
nodes = (
(351,1648,o),
(391,1692,o),
(391,1765,cs),
(391,1837,o),
(351,1880,o),
(293,1880,cs),
(234,1880,o),
(194,1837,o),
(194,1765,cs),
(194,1692,o),
(234,1648,o),
(293,1648,cs)
);
},
{
closed = 1;
nodes = (
(767,1648,o),
(807,1692,o),
(807,1765,cs),
(807,1837,o),
(767,1880,o),
(708,1880,cs),
(650,1880,o),
(609,1837,o),
(609,1765,cs),
(609,1692,o),
(650,1648,o),
(708,1648,cs)
);
}
);
width = 1000;
}
);
unicode = 207;
},
{
glyphname = Idotaccent;
lastChange = "2024-12-31 02:25:17 +0000";
layers = (
{
layerId = "B3EB4CE9-FF8A-458C-8111-2882C1B7C642";
shapes = (
{
closed = 1;
nodes = (
(578,1460,l),
(422,1460,l),
(422,0,l),
(578,0,l)
);
},
{
closed = 1;
nodes = (
(133,1296,l),
(867,1296,l),
(867,1460,l),
(133,1460,l)
);
},
{
closed = 1;
nodes = (
(867,0,l),
(867,164,l),
(133,164,l),
(133,0,l)
);
},
{
closed = 1;
nodes = (
(559,1648,o),
(600,1692,o),
(600,1765,cs),
(600,1837,o),
(559,1880,o),
(499,1880,cs),
(440,1880,o),
(398,1837,o),
(398,1765,cs),
(398,1692,o),
(440,1648,o),
(499,1648,cs)
);
}
);
width = 1000;
}
);
unicode = 304;
},
{
glyphname = Idotbelow;
lastChange = "2024-12-31 02:25:17 +0000";
layers = (
{
layerId = "B3EB4CE9-FF8A-458C-8111-2882C1B7C642";
shapes = (
{
closed = 1;
nodes = (
(578,1460,l),
(422,1460,l),
(422,0,l),
(578,0,l)
);
},
{
closed = 1;
nodes = (
(133,1296,l),
(867,1296,l),
(867,1460,l),
(133,1460,l)
);
},
{
closed = 1;
nodes = (
(867,0,l),
(867,164,l),
(133,164,l),
(133,0,l)
);
},
{
closed = 1;
nodes = (
(566,-515,o),
(612,-466,o),
(612,-386,cs),
(612,-306,o),
(566,-258,o),
(500,-258,cs),
(434,-258,o),
(388,-306,o),
(388,-386,cs),
(388,-466,o),
(434,-515,o),
(500,-515,cs)
);
}
);
width = 1000;
}
);
unicode = 7882;
},
{
glyphname = Igrave;
lastChange = "2024-12-31 02:25:17 +0000";
layers = (
{
layerId = "B3EB4CE9-FF8A-458C-8111-2882C1B7C642";
shapes = (
{
closed = 1;
nodes = (
(578,1460,l),
(422,1460,l),
(422,0,l),
(578,0,l)
);
},
{
closed = 1;
nodes = (
(133,1296,l),
(867,1296,l),
(867,1460,l),
(133,1460,l)
);
},
{
closed = 1;
nodes = (
(867,0,l),
(867,164,l),
(133,164,l),
(133,0,l)
);
},
{
closed = 1;
nodes = (
(402,1881,l),
(234,1881,l),
(437,1640,l),
(571,1640,l)
);
}
);
width = 1000;
}
);
unicode = 204;
},
{
glyphname = Imacron;
lastChange = "2024-12-31 02:25:17 +0000";
layers = (
{
layerId = "B3EB4CE9-FF8A-458C-8111-2882C1B7C642";
shapes = (
{
closed = 1;
nodes = (
(578,1460,l),
(422,1460,l),
(422,0,l),
(578,0,l)
);
},
{
closed = 1;
nodes = (
(133,1296,l),
(867,1296,l),
(867,1460,l),
(133,1460,l)
);
},
{
closed = 1;
nodes = (
(867,0,l),
(867,164,l),
(133,164,l),
(133,0,l)
);
},
{
closed = 1;
nodes = (
(241,1849,l),
(241,1718,l),
(759,1718,l),
(759,1849,l)
);
}
);
width = 1000;
}
);
unicode = 298;
},
{
glyphname = Iogonek;
lastChange = "2024-12-31 02:25:17 +0000";
layers = (
{
layerId = "B3EB4CE9-FF8A-458C-8111-2882C1B7C642";
shapes = (
{
closed = 1;
nodes = (
(578,1460,l),
(422,1460,l),
(422,0,l),
(578,0,l)
);
},
{
closed = 1;
nodes = (
(133,1296,l),
(867,1296,l),
(867,1460,l),
(133,1460,l)
);
},
{
closed = 1;
nodes = (
(867,0,l),
(867,164,l),
(133,164,l),
(133,0,l)
);
},
{
closed = 1;
nodes = (
(381,-67,o),
(331,-150,o),
(331,-247,cs),
(331,-331,o),
(369,-414,o),
(519,-414,cs),
(578,-414,l),
(578,-282,l),
(555,-282,ls),
(488,-282,o),
(465,-252,o),
(465,-206,cs),
(465,-153,o),
(494,-88,o),
(578,0,c),
(484,37,l)
);
}
);
width = 1000;
}
);
unicode = 302;
},
{
glyphname = Itilde;
lastChange = "2024-12-31 02:25:17 +0000";
layers = (
{
layerId = "B3EB4CE9-FF8A-458C-8111-2882C1B7C642";
shapes = (
{
closed = 1;
nodes = (
(578,1460,l),
(422,1460,l),
(422,0,l),
(578,0,l)
);
},
{
closed = 1;
nodes = (
(133,1296,l),
(867,1296,l),
(867,1460,l),
(133,1460,l)
);
},
{
closed = 1;
nodes = (
(867,0,l),
(867,164,l),
(133,164,l),
(133,0,l)
);
},
{
closed = 1;
nodes = (
(271,1897,o),
(208,1816,o),
(192,1673,c),
(297,1642,l),
(310,1726,o),
(343,1771,o),
(390,1771,cs),
(472,1771,o),
(507,1628,o),
(633,1628,cs),
(728,1628,o),
(792,1709,o),
(808,1853,c),
(703,1883,l),
(690,1799,o),
(658,1754,o),
(611,1754,cs),
(528,1754,o),
(492,1897,o),
(366,1897,cs)
);
}
);
width = 1000;
}
);
unicode = 296;
},
{
glyphname = J;
lastChange = "2024-12-31 02:25:17 +0000";
layers = (
{
layerId = "B3EB4CE9-FF8A-458C-8111-2882C1B7C642";
shapes = (
{
closed = 1;
nodes = (
(138,352,ls),
(145,92,o),
(277,-23,o),
(479,-23,cs),
(711,-23,o),
(847,106,o),
(847,408,cs),
(847,1460,l),
(690,1460,l),
(690,395,ls),
(690,198,o),
(604,142,o),
(488,142,cs),
(386,142,o),
(294,191,o),
(288,366,cs),
(286,461,l),
(135,461,l)
);
},
{
closed = 1;
nodes = (
(185,1460,l),
(185,1296,l),
(783,1296,l),
(783,1460,l)
);
}
);
width = 1000;
}
);
unicode = 74;
},
{
glyphname = Jcircumflex;
lastChange = "2024-12-31 02:25:17 +0000";
layers = (
{
layerId = "B3EB4CE9-FF8A-458C-8111-2882C1B7C642";
shapes = (
{
closed = 1;
nodes = (
(138,352,ls),
(145,92,o),
(277,-23,o),
(479,-23,cs),
(711,-23,o),
(847,106,o),
(847,408,cs),
(847,1460,l),
(690,1460,l),
(690,395,ls),
(690,198,o),
(604,142,o),
(488,142,cs),
(386,142,o),
(294,191,o),
(288,366,cs),
(286,461,l),
(135,461,l)
);
},
{
closed = 1;
nodes = (
(185,1460,l),
(185,1296,l),
(783,1296,l),
(783,1460,l)
);
},
{
closed = 1;
nodes = (
(376,1640,l),
(537,1844,l),
(494,1844,l),
(655,1640,l),
(802,1640,l),
(598,1881,l),
(432,1881,l),
(229,1640,l)
);
}
);
width = 1000;
}
);
unicode = 308;
},
{
glyphname = K;
lastChange = "2024-12-31 02:25:17 +0000";
layers = (
{
layerId = "B3EB4CE9-FF8A-458C-8111-2882C1B7C642";
shapes = (
{
closed = 1;
nodes = (
(294,1460,l),
(138,1460,l),
(138,0,l),
(294,0,l)
);
},
{
closed = 1;
nodes = (
(253,661,l),
(515,661,l),
(426,709,l),
(761,0,l),
(939,0,l),
(590,735,l),
(590,750,l),
(925,1460,l),
(754,1460,l),
(436,758,l),
(520,825,l),
(253,825,l)
);
}
);
width = 1000;
}
);
unicode = 75;
},
{
glyphname = Kcommaaccent;
lastChange = "2024-12-31 02:25:17 +0000";
layers = (
{
layerId = "B3EB4CE9-FF8A-458C-8111-2882C1B7C642";
shapes = (
{
closed = 1;
nodes = (
(294,1460,l),
(138,1460,l),
(138,0,l),
(294,0,l)
);
},
{
closed = 1;
nodes = (
(253,661,l),
(515,661,l),
(426,709,l),
(761,0,l),
(939,0,l),
(590,735,l),
(590,750,l),
(925,1460,l),
(754,1460,l),
(436,758,l),
(520,825,l),
(253,825,l)
);
},
{
closed = 1;
nodes = (
(519,-516,o),
(539,-511,o),
(557,-499,c),
(530,-469,l),
(517,-566,o),
(450,-623,o),
(375,-679,c),
(428,-760,l),
(528,-697,o),
(623,-584,o),
(623,-432,cs),
(623,-313,o),
(567,-258,o),
(498,-258,cs),
(434,-258,o),
(385,-305,o),
(385,-387,cs),
(385,-467,o),
(432,-516,o),
(499,-516,cs)
);
}
);
width = 1000;
}
);
unicode = 310;
},
{
glyphname = L;
lastChange = "2024-12-31 02:25:17 +0000";
layers = (
{
layerId = "B3EB4CE9-FF8A-458C-8111-2882C1B7C642";
shapes = (
{
closed = 1;
nodes = (
(323,1460,l),
(167,1460,l),
(167,0,l),
(323,0,l)
);
},
{
closed = 1;
nodes = (
(249,164,l),
(249,0,l),
(894,0,l),
(894,164,l)
);
}
);
width = 1000;
}
);
unicode = 76;
},
{
glyphname = Lacute;
lastChange = "2024-12-31 02:25:17 +0000";
layers = (
{
layerId = "B3EB4CE9-FF8A-458C-8111-2882C1B7C642";
shapes = (
{
closed = 1;
nodes = (
(323,1460,l),
(167,1460,l),
(167,0,l),
(323,0,l)
);
},
{
closed = 1;
nodes = (
(249,164,l),
(249,0,l),
(894,0,l),
(894,164,l)
);
},
{
closed = 1;
nodes = (
(343,1881,l),
(511,1881,l),
(308,1640,l),
(174,1640,l)
);
}
);
width = 1000;
}
);
unicode = 313;
},
{
glyphname = Lcaron;
lastChange = "2024-12-31 02:25:17 +0000";
layers = (
{
layerId = "B3EB4CE9-FF8A-458C-8111-2882C1B7C642";
shapes = (
{
closed = 1;
nodes = (
(323,1460,l),
(167,1460,l),
(167,0,l),
(323,0,l)
);
},
{
closed = 1;
nodes = (
(249,164,l),
(249,0,l),
(894,0,l),
(894,164,l)
);
},
{
closed = 1;
nodes = (
(597,1222,l),
(630,1578,l),
(492,1578,l),
(478,1222,l)
);
}
);
width = 1000;
}
);
unicode = 317;
},
{
glyphname = Lcommaaccent;
lastChange = "2024-12-31 02:25:17 +0000";
layers = (
{
layerId = "B3EB4CE9-FF8A-458C-8111-2882C1B7C642";
shapes = (
{
closed = 1;
nodes = (
(323,1460,l),
(167,1460,l),
(167,0,l),
(323,0,l)
);
},
{
closed = 1;
nodes = (
(249,164,l),
(249,0,l),
(894,0,l),
(894,164,l)
);
},
{
closed = 1;
nodes = (
(519,-516,o),
(539,-511,o),
(557,-499,c),
(530,-469,l),
(517,-566,o),
(450,-623,o),
(375,-679,c),
(428,-760,l),
(528,-697,o),
(623,-584,o),
(623,-432,cs),
(623,-313,o),
(567,-258,o),
(498,-258,cs),
(434,-258,o),
(385,-305,o),
(385,-387,cs),
(385,-467,o),
(432,-516,o),
(499,-516,cs)
);
}
);
width = 1000;
}
);
unicode = 315;
},
{
glyphname = Ldot;
lastChange = "2024-12-31 02:25:17 +0000";
layers = (
{
layerId = "B3EB4CE9-FF8A-458C-8111-2882C1B7C642";
shapes = (
{
closed = 1;
nodes = (
(803,701,o),
(844,747,o),
(844,822,cs),
(844,896,o),
(803,941,o),
(745,941,cs),
(686,941,o),
(646,896,o),
(646,822,cs),
(646,747,o),
(686,701,o),
(745,701,cs)
);
},
{
closed = 1;
nodes = (
(323,1460,l),
(167,1460,l),
(167,0,l),
(323,0,l)
);
},
{
closed = 1;
nodes = (
(249,164,l),
(249,0,l),
(894,0,l),
(894,164,l)
);
}
);
width = 1000;
}
);
unicode = 319;
},
{
glyphname = Lslash;
lastChange = "2024-12-31 02:25:17 +0000";
layers = (
{
layerId = "B3EB4CE9-FF8A-458C-8111-2882C1B7C642";
shapes = (
{
closed = 1;
nodes = (
(10,735,l),
(10,565,l),
(624,936,l),
(624,1106,l)
);
},
{
closed = 1;
nodes = (
(323,1460,l),
(167,1460,l),
(167,0,l),
(323,0,l)
);
},
{
closed = 1;
nodes = (
(249,164,l),
(249,0,l),
(894,0,l),
(894,164,l)
);
}
);
width = 1000;
}
);
unicode = 321;
},
{
glyphname = M;
lastChange = "2024-12-31 02:25:17 +0000";
layers = (
{
layerId = "B3EB4CE9-FF8A-458C-8111-2882C1B7C642";
shapes = (
{
closed = 1;
nodes = (
(115,0,l),
(236,0,l),
(236,1163,l),
(246,1163,l),
(467,389,l),
(528,389,l),
(749,1163,l),
(761,1163,l),
(761,0,l),
(886,0,l),
(886,1460,l),
(731,1460,l),
(509,709,l),
(499,709,l),
(278,1460,l),
(115,1460,l)
);
}
);
width = 1000;
}
);
unicode = 77;
},
{
glyphname = N;
lastChange = "2024-12-31 02:25:17 +0000";
layers = (
{
layerId = "B3EB4CE9-FF8A-458C-8111-2882C1B7C642";
shapes = (
{
closed = 1;
nodes = (
(862,0,l),
(862,1460,l),
(727,1460,l),
(727,335,l),
(718,335,l),
(306,1460,l),
(138,1460,l),
(138,0,l),
(273,0,l),
(273,1143,l),
(282,1143,l),
(694,0,l)
);
}
);
width = 1000;
}
);
unicode = 78;
},
{
glyphname = Nacute;
lastChange = "2024-12-31 02:25:17 +0000";
layers = (
{
layerId = "B3EB4CE9-FF8A-458C-8111-2882C1B7C642";
shapes = (
{
closed = 1;
nodes = (
(862,0,l),
(862,1460,l),
(727,1460,l),
(727,335,l),
(718,335,l),
(306,1460,l),
(138,1460,l),
(138,0,l),
(273,0,l),
(273,1143,l),
(282,1143,l),
(694,0,l)
);
},
{
closed = 1;
nodes = (
(598,1881,l),
(766,1881,l),
(563,1640,l),
(429,1640,l)
);
}
);
width = 1000;
}
);
unicode = 323;
},
{
glyphname = Ncaron;
lastChange = "2024-12-31 02:25:17 +0000";
layers = (
{
layerId = "B3EB4CE9-FF8A-458C-8111-2882C1B7C642";
shapes = (
{
closed = 1;
nodes = (
(862,0,l),
(862,1460,l),
(727,1460,l),
(727,335,l),
(718,335,l),
(306,1460,l),
(138,1460,l),
(138,0,l),
(273,0,l),
(273,1143,l),
(282,1143,l),
(694,0,l)
);
},
{
closed = 1;
nodes = (
(361,1881,l),
(522,1677,l),
(478,1677,l),
(640,1881,l),
(786,1881,l),
(583,1640,l),
(417,1640,l),
(214,1881,l)
);
}
);
width = 1000;
}
);
unicode = 327;
},
{
glyphname = Ncommaaccent;
lastChange = "2024-12-31 02:25:17 +0000";
layers = (
{
layerId = "B3EB4CE9-FF8A-458C-8111-2882C1B7C642";
shapes = (
{
closed = 1;
nodes = (
(862,0,l),
(862,1460,l),
(727,1460,l),
(727,335,l),
(718,335,l),
(306,1460,l),
(138,1460,l),
(138,0,l),
(273,0,l),
(273,1143,l),
(282,1143,l),
(694,0,l)
);
},
{
closed = 1;
nodes = (
(519,-516,o),
(539,-511,o),
(557,-499,c),
(530,-469,l),
(517,-566,o),
(450,-623,o),
(375,-679,c),
(428,-760,l),
(528,-697,o),
(623,-584,o),
(623,-432,cs),
(623,-313,o),
(567,-258,o),
(498,-258,cs),
(434,-258,o),
(385,-305,o),
(385,-387,cs),
(385,-467,o),
(432,-516,o),
(499,-516,cs)
);
}
);
width = 1000;
}
);
unicode = 325;
},
{
glyphname = Nhookleft;
lastChange = "2024-12-31 02:25:17 +0000";
layers = (
{
layerId = "B3EB4CE9-FF8A-458C-8111-2882C1B7C642";
shapes = (
{
closed = 1;
nodes = (
(138,0,l),
(137,-159,o),
(119,-211,o),
(52,-211,cs),
(29,-211,o),
(4,-205,o),
(-23,-195,c),
(-23,-364,l),
(5,-372,o),
(29,-377,o),
(65,-377,cs),
(216,-377,o),
(273,-298,o),
(273,0,c)
);
},
{
closed = 1;
nodes = (
(862,0,l),
(862,1460,l),
(727,1460,l),
(727,335,l),
(718,335,l),
(306,1460,l),
(138,1460,l),
(138,0,l),
(273,0,l),
(273,1143,l),
(282,1143,l),
(694,0,l)
);
}
);
width = 1000;
}
);
unicode = 413;
},
{
glyphname = Ntilde;
lastChange = "2024-12-31 02:25:17 +0000";
layers = (
{
layerId = "B3EB4CE9-FF8A-458C-8111-2882C1B7C642";
shapes = (
{
closed = 1;
nodes = (
(862,0,l),
(862,1460,l),
(727,1460,l),
(727,335,l),
(718,335,l),
(306,1460,l),
(138,1460,l),
(138,0,l),
(273,0,l),
(273,1143,l),
(282,1143,l),
(694,0,l)
);
},
{
closed = 1;
nodes = (
(271,1897,o),
(208,1816,o),
(192,1673,c),
(297,1642,l),
(310,1726,o),
(343,1771,o),
(390,1771,cs),
(472,1771,o),
(507,1628,o),
(633,1628,cs),
(728,1628,o),
(792,1709,o),
(808,1853,c),
(703,1883,l),
(690,1799,o),
(658,1754,o),
(611,1754,cs),
(528,1754,o),
(492,1897,o),
(366,1897,cs)
);
}
);
width = 1000;
}
);
unicode = 209;
},
{
glyphname = Eng;
lastChange = "2024-12-31 02:25:17 +0000";
layers = (
{
layerId = "B3EB4CE9-FF8A-458C-8111-2882C1B7C642";
shapes = (
{
closed = 1;
nodes = (
(862,0,l),
(862,1460,l),
(727,1460,l),
(727,335,l),
(718,335,l),
(306,1460,l),
(138,1460,l),
(138,0,l),
(273,0,l),
(273,1143,l),
(282,1143,l),
(738,-123,l)
);
},
{
closed = 1;
nodes = (
(708,0,l),
(707,-152,o),
(688,-211,o),
(617,-211,cs),
(594,-211,o),
(570,-205,o),
(544,-195,c),
(544,-364,l),
(571,-372,o),
(597,-377,o),
(633,-377,cs),
(793,-377,o),
(862,-291,o),
(862,0,c)
);
}
);
width = 1000;
}
);
unicode = 330;
},
{
glyphname = O;
lastChange = "2024-12-31 02:26:14 +0000";
layers = (
{
layerId = "B3EB4CE9-FF8A-458C-8111-2882C1B7C642";
shapes = (
{
closed = 1;
nodes = (
(922,1250,o),
(759,1460,o),
(500,1460,cs),
(242,1460,o),
(78,1250,o),
(78,731,cs),
(78,220,o),
(242,0,o),
(500,0,cs),
(759,0,o),
(922,220,o),
(922,731,cs)
);
},
{
closed = 1;
nodes = (
(759,301,o),
(664,171,o),
(500,171,cs),
(337,171,o),
(241,301,o),
(241,731,cs),
(241,1161,o),
(337,1288,o),
(500,1288,cs),
(664,1288,o),
(759,1161,o),
(759,731,cs)
);
}
);
width = 1000;
}
);
unicode = 79;
},
{
glyphname = Oacute;
lastChange = "2024-12-31 02:25:17 +0000";
layers = (
{
layerId = "B3EB4CE9-FF8A-458C-8111-2882C1B7C642";
shapes = (
{
closed = 1;
nodes = (
(922,1250,o),
(759,1484,o),
(500,1484,cs),
(242,1484,o),
(78,1250,o),
(78,731,cs),
(78,220,o),
(242,-23,o),
(500,-23,cs),
(759,-23,o),
(922,220,o),
(922,731,cs)
);
},
{
closed = 1;
nodes = (
(759,301,o),
(664,148,o),
(500,148,cs),
(337,148,o),
(241,301,o),
(241,731,cs),
(241,1161,o),
(337,1312,o),
(500,1312,cs),
(664,1312,o),
(759,1161,o),
(759,731,cs)
);
},
{
closed = 1;
nodes = (
(598,1881,l),
(766,1881,l),
(563,1640,l),
(429,1640,l)
);
}
);
width = 1000;
}
);
unicode = 211;
},
{
glyphname = Obreve;
lastChange = "2024-12-31 02:25:17 +0000";
layers = (
{
layerId = "B3EB4CE9-FF8A-458C-8111-2882C1B7C642";
shapes = (
{
closed = 1;
nodes = (
(922,1250,o),
(759,1484,o),
(500,1484,cs),
(242,1484,o),
(78,1250,o),
(78,731,cs),
(78,220,o),
(242,-23,o),
(500,-23,cs),
(759,-23,o),
(922,220,o),
(922,731,cs)
);
},
{
closed = 1;
nodes = (
(759,301,o),
(664,148,o),
(500,148,cs),
(337,148,o),
(241,301,o),
(241,731,cs),
(241,1161,o),
(337,1312,o),
(500,1312,cs),
(664,1312,o),
(759,1161,o),
(759,731,cs)
);
},
{
closed = 1;
nodes = (
(252,1727,o),
(335,1629,o),
(500,1629,cs),
(665,1629,o),
(748,1727,o),
(740,1881,c),
(639,1881,l),
(639,1798,o),
(599,1733,o),
(500,1733,cs),
(401,1733,o),
(361,1798,o),
(361,1881,c),
(260,1881,l)
);
}
);
width = 1000;
}
);
unicode = 334;
},
{
glyphname = Ocircumflex;
lastChange = "2024-12-31 02:25:17 +0000";
layers = (
{
layerId = "B3EB4CE9-FF8A-458C-8111-2882C1B7C642";
shapes = (
{
closed = 1;
nodes = (
(922,1250,o),
(759,1484,o),
(500,1484,cs),
(242,1484,o),
(78,1250,o),
(78,731,cs),
(78,220,o),
(242,-23,o),
(500,-23,cs),
(759,-23,o),
(922,220,o),
(922,731,cs)
);
},
{
closed = 1;
nodes = (
(759,301,o),
(664,148,o),
(500,148,cs),
(337,148,o),
(241,301,o),
(241,731,cs),
(241,1161,o),
(337,1312,o),
(500,1312,cs),
(664,1312,o),
(759,1161,o),
(759,731,cs)
);
},
{
closed = 1;
nodes = (
(361,1640,l),
(522,1844,l),
(478,1844,l),
(640,1640,l),
(786,1640,l),
(583,1881,l),
(417,1881,l),
(214,1640,l)
);
}
);
width = 1000;
}
);
unicode = 212;
},
{
glyphname = Odieresis;
lastChange = "2024-12-31 02:25:17 +0000";
layers = (
{
layerId = "B3EB4CE9-FF8A-458C-8111-2882C1B7C642";
shapes = (
{
closed = 1;
nodes = (
(922,1250,o),
(759,1484,o),
(500,1484,cs),
(242,1484,o),
(78,1250,o),
(78,731,cs),
(78,220,o),
(242,-23,o),
(500,-23,cs),
(759,-23,o),
(922,220,o),
(922,731,cs)
);
},
{
closed = 1;
nodes = (
(759,301,o),
(664,148,o),
(500,148,cs),
(337,148,o),
(241,301,o),
(241,731,cs),
(241,1161,o),
(337,1312,o),
(500,1312,cs),
(664,1312,o),
(759,1161,o),
(759,731,cs)
);
},
{
closed = 1;
nodes = (
(351,1648,o),
(391,1692,o),
(391,1765,cs),
(391,1837,o),
(351,1880,o),
(293,1880,cs),
(234,1880,o),
(194,1837,o),
(194,1765,cs),
(194,1692,o),
(234,1648,o),
(293,1648,cs)
);
},
{
closed = 1;
nodes = (
(767,1648,o),
(807,1692,o),
(807,1765,cs),
(807,1837,o),
(767,1880,o),
(708,1880,cs),
(650,1880,o),
(609,1837,o),
(609,1765,cs),
(609,1692,o),
(650,1648,o),
(708,1648,cs)
);
}
);
width = 1000;
}
);
unicode = 214;
},
{
glyphname = Odotbelow;
lastChange = "2024-12-31 02:25:17 +0000";
layers = (
{
layerId = "B3EB4CE9-FF8A-458C-8111-2882C1B7C642";
shapes = (
{
closed = 1;
nodes = (
(922,1250,o),
(759,1484,o),
(500,1484,cs),
(242,1484,o),
(78,1250,o),
(78,731,cs),
(78,220,o),
(242,-23,o),
(500,-23,cs),
(759,-23,o),
(922,220,o),
(922,731,cs)
);
},
{
closed = 1;
nodes = (
(759,301,o),
(664,148,o),
(500,148,cs),
(337,148,o),
(241,301,o),
(241,731,cs),
(241,1161,o),
(337,1312,o),
(500,1312,cs),
(664,1312,o),
(759,1161,o),
(759,731,cs)
);
},
{
closed = 1;
nodes = (
(566,-515,o),
(612,-466,o),
(612,-386,cs),
(612,-306,o),
(566,-258,o),
(500,-258,cs),
(434,-258,o),
(388,-306,o),
(388,-386,cs),
(388,-466,o),
(434,-515,o),
(500,-515,cs)
);
}
);
width = 1000;
}
);
unicode = 7884;
},
{
glyphname = Ograve;
lastChange = "2024-12-31 02:25:17 +0000";
layers = (
{
layerId = "B3EB4CE9-FF8A-458C-8111-2882C1B7C642";
shapes = (
{
closed = 1;
nodes = (
(922,1250,o),
(759,1484,o),
(500,1484,cs),
(242,1484,o),
(78,1250,o),
(78,731,cs),
(78,220,o),
(242,-23,o),
(500,-23,cs),
(759,-23,o),
(922,220,o),
(922,731,cs)
);
},
{
closed = 1;
nodes = (
(759,301,o),
(664,148,o),
(500,148,cs),
(337,148,o),
(241,301,o),
(241,731,cs),
(241,1161,o),
(337,1312,o),
(500,1312,cs),
(664,1312,o),
(759,1161,o),
(759,731,cs)
);
},
{
closed = 1;
nodes = (
(402,1881,l),
(234,1881,l),
(437,1640,l),
(571,1640,l)
);
}
);
width = 1000;
}
);
unicode = 210;
},
{
glyphname = Ohungarumlaut;
lastChange = "2024-12-31 02:25:17 +0000";
layers = (
{
layerId = "B3EB4CE9-FF8A-458C-8111-2882C1B7C642";
shapes = (
{
closed = 1;
nodes = (
(922,1250,o),
(759,1484,o),
(500,1484,cs),
(242,1484,o),
(78,1250,o),
(78,731,cs),
(78,220,o),
(242,-23,o),
(500,-23,cs),
(759,-23,o),
(922,220,o),
(922,731,cs)
);
},
{
closed = 1;
nodes = (
(759,301,o),
(664,148,o),
(500,148,cs),
(337,148,o),
(241,301,o),
(241,731,cs),
(241,1161,o),
(337,1312,o),
(500,1312,cs),
(664,1312,o),
(759,1161,o),
(759,731,cs)
);
},
{
closed = 1;
nodes = (
(397,1640,l),
(535,1881,l),
(400,1881,l),
(287,1640,l)
);
},
{
closed = 1;
nodes = (
(704,1640,l),
(843,1881,l),
(707,1881,l),
(595,1640,l)
);
}
);
width = 1000;
}
);
unicode = 336;
},
{
glyphname = Omacron;
lastChange = "2024-12-31 02:25:17 +0000";
layers = (
{
layerId = "B3EB4CE9-FF8A-458C-8111-2882C1B7C642";
shapes = (
{
closed = 1;
nodes = (
(922,1250,o),
(759,1484,o),
(500,1484,cs),
(242,1484,o),
(78,1250,o),
(78,731,cs),
(78,220,o),
(242,-23,o),
(500,-23,cs),
(759,-23,o),
(922,220,o),
(922,731,cs)
);
},
{
closed = 1;
nodes = (
(759,301,o),
(664,148,o),
(500,148,cs),
(337,148,o),
(241,301,o),
(241,731,cs),
(241,1161,o),
(337,1312,o),
(500,1312,cs),
(664,1312,o),
(759,1161,o),
(759,731,cs)
);
},
{
closed = 1;
nodes = (
(241,1849,l),
(241,1718,l),
(759,1718,l),
(759,1849,l)
);
}
);
width = 1000;
}
);
unicode = 332;
},
{
glyphname = Oogonek;
lastChange = "2024-12-31 02:25:17 +0000";
layers = (
{
layerId = "B3EB4CE9-FF8A-458C-8111-2882C1B7C642";
shapes = (
{
closed = 1;
nodes = (
(922,1250,o),
(759,1484,o),
(500,1484,cs),
(242,1484,o),
(78,1250,o),
(78,731,cs),
(78,220,o),
(242,-23,o),
(500,-23,cs),
(759,-23,o),
(922,220,o),
(922,731,cs)
);
},
{
closed = 1;
nodes = (
(759,301,o),
(664,148,o),
(500,148,cs),
(337,148,o),
(241,301,o),
(241,731,cs),
(241,1161,o),
(337,1312,o),
(500,1312,cs),
(664,1312,o),
(759,1161,o),
(759,731,cs)
);
},
{
closed = 1;
nodes = (
(431,-67,o),
(381,-150,o),
(381,-247,cs),
(381,-331,o),
(419,-414,o),
(570,-414,cs),
(629,-414,l),
(629,-282,l),
(606,-282,ls),
(539,-282,o),
(515,-252,o),
(515,-206,cs),
(515,-153,o),
(545,-88,o),
(629,0,c),
(535,37,l)
);
}
);
width = 1000;
}
);
unicode = 490;
},
{
glyphname = Oslash;
lastChange = "2024-12-31 02:25:17 +0000";
layers = (
{
layerId = "B3EB4CE9-FF8A-458C-8111-2882C1B7C642";
shapes = (
{
closed = 1;
nodes = (
(922,1250,o),
(759,1484,o),
(500,1484,cs),
(242,1484,o),
(78,1250,o),
(78,731,cs),
(78,220,o),
(242,-23,o),
(500,-23,cs),
(759,-23,o),
(922,220,o),
(922,731,cs)
);
},
{
closed = 1;
nodes = (
(765,301,o),
(667,145,o),
(500,145,cs),
(334,145,o),
(235,301,o),
(235,731,cs),
(235,1161,o),
(334,1316,o),
(500,1316,cs),
(667,1316,o),
(765,1161,o),
(765,731,cs)
);
},
{
closed = 1;
nodes = (
(751,1237,l),
(898,1656,l),
(765,1728,l),
(629,1342,l)
);
},
{
closed = 1;
nodes = (
(351,92,l),
(748,1297,l),
(650,1369,l),
(256,179,l)
);
},
{
closed = 1;
nodes = (
(255,238,l),
(103,-196,l),
(236,-267,l),
(372,120,l)
);
}
);
width = 1000;
}
);
unicode = 216;
},
{
glyphname = Oslashacute;
lastChange = "2024-12-31 02:25:17 +0000";
layers = (
{
layerId = "B3EB4CE9-FF8A-458C-8111-2882C1B7C642";
shapes = (
{
closed = 1;
nodes = (
(922,1250,o),
(759,1484,o),
(500,1484,cs),
(242,1484,o),
(78,1250,o),
(78,731,cs),
(78,220,o),
(242,-23,o),
(500,-23,cs),
(759,-23,o),
(922,220,o),
(922,731,cs)
);
},
{
closed = 1;
nodes = (
(765,301,o),
(667,145,o),
(500,145,cs),
(334,145,o),
(235,301,o),
(235,731,cs),
(235,1161,o),
(334,1316,o),
(500,1316,cs),
(667,1316,o),
(765,1161,o),
(765,731,cs)
);
},
{
closed = 1;
nodes = (
(751,1237,l),
(898,1656,l),
(765,1728,l),
(629,1342,l)
);
},
{
closed = 1;
nodes = (
(351,92,l),
(748,1297,l),
(650,1369,l),
(256,179,l)
);
},
{
closed = 1;
nodes = (
(255,238,l),
(103,-196,l),
(236,-267,l),
(372,120,l)
);
},
{
closed = 1;
nodes = (
(598,1881,l),
(766,1881,l),
(563,1640,l),
(429,1640,l)
);
}
);
width = 1000;
}
);
unicode = 510;
},
{
glyphname = Otilde;
lastChange = "2024-12-31 02:25:17 +0000";
layers = (
{
layerId = "B3EB4CE9-FF8A-458C-8111-2882C1B7C642";
shapes = (
{
closed = 1;
nodes = (
(922,1250,o),
(759,1484,o),
(500,1484,cs),
(242,1484,o),
(78,1250,o),
(78,731,cs),
(78,220,o),
(242,-23,o),
(500,-23,cs),
(759,-23,o),
(922,220,o),
(922,731,cs)
);
},
{
closed = 1;
nodes = (
(759,301,o),
(664,148,o),
(500,148,cs),
(337,148,o),
(241,301,o),
(241,731,cs),
(241,1161,o),
(337,1312,o),
(500,1312,cs),
(664,1312,o),
(759,1161,o),
(759,731,cs)
);
},
{
closed = 1;
nodes = (
(271,1897,o),
(208,1816,o),
(192,1673,c),
(297,1642,l),
(310,1726,o),
(343,1771,o),
(390,1771,cs),
(472,1771,o),
(507,1628,o),
(633,1628,cs),
(728,1628,o),
(792,1709,o),
(808,1853,c),
(703,1883,l),
(690,1799,o),
(658,1754,o),
(611,1754,cs),
(528,1754,o),
(492,1897,o),
(366,1897,cs)
);
}
);
width = 1000;
}
);
unicode = 213;
},
{
glyphname = OE;
lastChange = "2024-12-31 02:25:17 +0000";
layers = (
{
layerId = "B3EB4CE9-FF8A-458C-8111-2882C1B7C642";
shapes = (
{
closed = 1;
nodes = (
(654,1460,l),
(506,1460,l),
(506,0,l),
(654,0,l)
);
},
{
closed = 1;
nodes = (
(591,164,l),
(591,0,l),
(919,0,l),
(919,164,l)
);
},
{
closed = 1;
nodes = (
(599,818,l),
(599,662,l),
(873,662,l),
(873,818,l)
);
},
{
closed = 1;
nodes = (
(919,1460,l),
(591,1460,l),
(591,1296,l),
(919,1296,l)
);
},
{
closed = 1;
nodes = (
(232,1166,o),
(302,1301,o),
(501,1301,cs),
(575,1301,l),
(575,1460,l),
(497,1460,ls),
(208,1460,o),
(73,1286,o),
(73,742,cs),
(73,197,o),
(208,0,o),
(497,0,cs),
(575,0,l),
(575,159,l),
(501,159,ls),
(302,159,o),
(232,318,o),
(232,742,cs)
);
}
);
width = 1000;
}
);
unicode = 338;
},
{
glyphname = P;
lastChange = "2024-12-31 02:25:17 +0000";
layers = (
{
layerId = "B3EB4CE9-FF8A-458C-8111-2882C1B7C642";
shapes = (
{
closed = 1;
nodes = (
(299,1460,l),
(143,1460,l),
(143,0,l),
(299,0,l)
);
},
{
closed = 1;
nodes = (
(229,535,l),
(434,535,ls),
(765,535,o),
(905,752,o),
(905,1052,cs),
(905,1353,o),
(732,1460,o),
(497,1460,cs),
(231,1460,l),
(231,1307,l),
(465,1307,ls),
(648,1307,o),
(747,1235,o),
(747,1028,cs),
(747,821,o),
(664,690,o),
(440,690,cs),
(229,690,l)
);
}
);
width = 1000;
}
);
unicode = 80;
},
{
glyphname = Thorn;
lastChange = "2024-12-31 02:25:17 +0000";
layers = (
{
layerId = "B3EB4CE9-FF8A-458C-8111-2882C1B7C642";
shapes = (
{
closed = 1;
nodes = (
(299,1460,l),
(143,1460,l),
(143,0,l),
(299,0,l)
);
},
{
closed = 1;
nodes = (
(229,297,l),
(434,297,ls),
(765,297,o),
(905,514,o),
(905,815,cs),
(905,1116,o),
(732,1223,o),
(497,1223,cs),
(231,1223,l),
(231,1070,l),
(465,1070,ls),
(648,1070,o),
(747,998,o),
(747,790,cs),
(747,583,o),
(664,453,o),
(440,453,cs),
(229,453,l)
);
}
);
width = 1000;
}
);
unicode = 222;
},
{
glyphname = Q;
lastChange = "2024-12-31 02:27:10 +0000";
layers = (
{
layerId = "B3EB4CE9-FF8A-458C-8111-2882C1B7C642";
shapes = (
{
closed = 1;
nodes = (
(434,480,l),
(573,121,l),
(576,77,l),
(689,-214,l),
(846,-214,l),
(698,150,l),
(658,195,l),
(549,480,l)
);
},
{
closed = 1;
nodes = (
(922,1250,o),
(759,1460,o),
(500,1460,cs),
(242,1460,o),
(78,1250,o),
(78,731,cs),
(78,220,o),
(242,0,o),
(500,0,cs),
(759,0,o),
(922,220,o),
(922,731,cs)
);
},
{
closed = 1;
nodes = (
(759,301,o),
(664,171,o),
(500,171,cs),
(337,171,o),
(241,301,o),
(241,731,cs),
(241,1161,o),
(337,1288,o),
(500,1288,cs),
(664,1288,o),
(759,1161,o),
(759,731,cs)
);
}
);
width = 1000;
}
);
unicode = 81;
},
{
glyphname = R;
lastChange = "2024-12-31 02:25:17 +0000";
layers = (
{
layerId = "B3EB4CE9-FF8A-458C-8111-2882C1B7C642";
shapes = (
{
closed = 1;
nodes = (
(450,637,l),
(748,0,l),
(936,0,l),
(592,680,l)
);
},
{
closed = 1;
nodes = (
(299,1460,l),
(143,1460,l),
(143,0,l),
(299,0,l)
);
},
{
closed = 1;
nodes = (
(240,587,l),
(443,587,ls),
(738,587,o),
(898,776,o),
(898,1063,cs),
(898,1341,o),
(735,1460,o),
(498,1460,cs),
(243,1460,l),
(243,1307,l),
(457,1307,ls),
(641,1307,o),
(737,1236,o),
(737,1044,cs),
(737,862,o),
(657,738,o),
(438,738,cs),
(240,738,l)
);
}
);
width = 1000;
}
);
unicode = 82;
},
{
glyphname = Racute;
lastChange = "2024-12-31 02:25:17 +0000";
layers = (
{
layerId = "B3EB4CE9-FF8A-458C-8111-2882C1B7C642";
shapes = (
{
closed = 1;
nodes = (
(450,637,l),
(748,0,l),
(936,0,l),
(592,680,l)
);
},
{
closed = 1;
nodes = (
(299,1460,l),
(143,1460,l),
(143,0,l),
(299,0,l)
);
},
{
closed = 1;
nodes = (
(240,587,l),
(443,587,ls),
(738,587,o),
(898,776,o),
(898,1063,cs),
(898,1341,o),
(735,1460,o),
(498,1460,cs),
(243,1460,l),
(243,1307,l),
(457,1307,ls),
(641,1307,o),
(737,1236,o),
(737,1044,cs),
(737,862,o),
(657,738,o),
(438,738,cs),
(240,738,l)
);
},
{
closed = 1;
nodes = (
(598,1881,l),
(766,1881,l),
(563,1640,l),
(429,1640,l)
);
}
);
width = 1000;
}
);
unicode = 340;
},
{
glyphname = Rcaron;
lastChange = "2024-12-31 02:25:17 +0000";
layers = (
{
layerId = "B3EB4CE9-FF8A-458C-8111-2882C1B7C642";
shapes = (
{
closed = 1;
nodes = (
(450,637,l),
(748,0,l),
(936,0,l),
(592,680,l)
);
},
{
closed = 1;
nodes = (
(299,1460,l),
(143,1460,l),
(143,0,l),
(299,0,l)
);
},
{
closed = 1;
nodes = (
(240,587,l),
(443,587,ls),
(738,587,o),
(898,776,o),
(898,1063,cs),
(898,1341,o),
(735,1460,o),
(498,1460,cs),
(243,1460,l),
(243,1307,l),
(457,1307,ls),
(641,1307,o),
(737,1236,o),
(737,1044,cs),
(737,862,o),
(657,738,o),
(438,738,cs),
(240,738,l)
);
},
{
closed = 1;
nodes = (
(361,1881,l),
(522,1677,l),
(478,1677,l),
(640,1881,l),
(786,1881,l),
(583,1640,l),
(417,1640,l),
(214,1881,l)
);
}
);
width = 1000;
}
);
unicode = 344;
},
{
glyphname = Rcommaaccent;
lastChange = "2024-12-31 02:25:17 +0000";
layers = (
{
layerId = "B3EB4CE9-FF8A-458C-8111-2882C1B7C642";
shapes = (
{
closed = 1;
nodes = (
(450,637,l),
(748,0,l),
(936,0,l),
(592,680,l)
);
},
{
closed = 1;
nodes = (
(299,1460,l),
(143,1460,l),
(143,0,l),
(299,0,l)
);
},
{
closed = 1;
nodes = (
(240,587,l),
(443,587,ls),
(738,587,o),
(898,776,o),
(898,1063,cs),
(898,1341,o),
(735,1460,o),
(498,1460,cs),
(243,1460,l),
(243,1307,l),
(457,1307,ls),
(641,1307,o),
(737,1236,o),
(737,1044,cs),
(737,862,o),
(657,738,o),
(438,738,cs),
(240,738,l)
);
},
{
closed = 1;
nodes = (
(519,-516,o),
(539,-511,o),
(557,-499,c),
(530,-469,l),
(517,-566,o),
(450,-623,o),
(375,-679,c),
(428,-760,l),
(528,-697,o),
(623,-584,o),
(623,-432,cs),
(623,-313,o),
(567,-258,o),
(498,-258,cs),
(434,-258,o),
(385,-305,o),
(385,-387,cs),
(385,-467,o),
(432,-516,o),
(499,-516,cs)
);
}
);
width = 1000;
}
);
unicode = 342;
},
{
glyphname = S;
lastChange = "2024-12-31 02:25:17 +0000";
layers = (
{
layerId = "B3EB4CE9-FF8A-458C-8111-2882C1B7C642";
shapes = (
{
closed = 1;
nodes = (
(902,1379,o),
(742,1484,o),
(533,1484,cs),
(281,1484,o),
(134,1352,o),
(134,1103,cs),
(134,866,o),
(276,763,o),
(466,667,cs),
(656,573,o),
(754,527,o),
(754,379,cs),
(754,229,o),
(670,140,o),
(505,140,cs),
(340,140,o),
(256,230,o),
(237,432,c),
(82,409,l),
(96,144,o),
(225,-24,o),
(498,-24,cs),
(777,-24,o),
(918,157,o),
(918,400,cs),
(918,640,o),
(775,729,o),
(553,839,cs),
(365,933,o),
(291,984,o),
(291,1118,cs),
(291,1253,o),
(368,1323,o),
(522,1323,cs),
(665,1323,o),
(744,1253,o),
(760,1074,c),
(912,1091,l)
);
}
);
width = 1000;
}
);
unicode = 83;
},
{
glyphname = Sacute;
lastChange = "2024-12-31 02:25:17 +0000";
layers = (
{
layerId = "B3EB4CE9-FF8A-458C-8111-2882C1B7C642";
shapes = (
{
closed = 1;
nodes = (
(902,1379,o),
(742,1484,o),
(533,1484,cs),
(281,1484,o),
(134,1352,o),
(134,1103,cs),
(134,866,o),
(276,763,o),
(466,667,cs),
(656,573,o),
(754,527,o),
(754,379,cs),
(754,229,o),
(670,140,o),
(505,140,cs),
(340,140,o),
(256,230,o),
(237,432,c),
(82,409,l),
(96,144,o),
(225,-24,o),
(498,-24,cs),
(777,-24,o),
(918,157,o),
(918,400,cs),
(918,640,o),
(775,729,o),
(553,839,cs),
(365,933,o),
(291,984,o),
(291,1118,cs),
(291,1253,o),
(368,1323,o),
(522,1323,cs),
(665,1323,o),
(744,1253,o),
(760,1074,c),
(912,1091,l)
);
},
{
closed = 1;
nodes = (
(598,1881,l),
(766,1881,l),
(563,1640,l),
(429,1640,l)
);
}
);
width = 1000;
}
);
unicode = 346;
},
{
glyphname = Scaron;
lastChange = "2024-12-31 02:25:17 +0000";
layers = (
{
layerId = "B3EB4CE9-FF8A-458C-8111-2882C1B7C642";
shapes = (
{
closed = 1;
nodes = (
(902,1379,o),
(742,1484,o),
(533,1484,cs),
(281,1484,o),
(134,1352,o),
(134,1103,cs),
(134,866,o),
(276,763,o),
(466,667,cs),
(656,573,o),
(754,527,o),
(754,379,cs),
(754,229,o),
(670,140,o),
(505,140,cs),
(340,140,o),
(256,230,o),
(237,432,c),
(82,409,l),
(96,144,o),
(225,-24,o),
(498,-24,cs),
(777,-24,o),
(918,157,o),
(918,400,cs),
(918,640,o),
(775,729,o),
(553,839,cs),
(365,933,o),
(291,984,o),
(291,1118,cs),
(291,1253,o),
(368,1323,o),
(522,1323,cs),
(665,1323,o),
(744,1253,o),
(760,1074,c),
(912,1091,l)
);
},
{
closed = 1;
nodes = (
(361,1881,l),
(522,1677,l),
(478,1677,l),
(640,1881,l),
(786,1881,l),
(583,1640,l),
(417,1640,l),
(214,1881,l)
);
}
);
width = 1000;
}
);
unicode = 352;
},
{
glyphname = Scedilla;
lastChange = "2024-12-31 02:25:17 +0000";
layers = (
{
layerId = "B3EB4CE9-FF8A-458C-8111-2882C1B7C642";
shapes = (
{
closed = 1;
nodes = (
(902,1379,o),
(742,1484,o),
(533,1484,cs),
(281,1484,o),
(134,1352,o),
(134,1103,cs),
(134,866,o),
(276,763,o),
(466,667,cs),
(656,573,o),
(754,527,o),
(754,379,cs),
(754,229,o),
(670,140,o),
(505,140,cs),
(340,140,o),
(256,230,o),
(237,432,c),
(82,409,l),
(96,144,o),
(225,-24,o),
(498,-24,cs),
(777,-24,o),
(918,157,o),
(918,400,cs),
(918,640,o),
(775,729,o),
(553,839,cs),
(365,933,o),
(291,984,o),
(291,1118,cs),
(291,1253,o),
(368,1323,o),
(522,1323,cs),
(665,1323,o),
(744,1253,o),
(760,1074,c),
(912,1091,l)
);
},
{
closed = 1;
nodes = (
(551,-220,l),
(548,48,l),
(451,48,l),
(451,-260,l),
(524,-269,o),
(570,-298,o),
(570,-373,cs),
(570,-436,o),
(539,-473,o),
(439,-473,cs),
(399,-473,l),
(399,-589,l),
(459,-589,ls),
(640,-589,o),
(690,-513,o),
(690,-385,cs),
(690,-247,o),
(631,-190,o),
(526,-168,c)
);
}
);
width = 1000;
}
);
unicode = 350;
},
{
glyphname = Scircumflex;
lastChange = "2024-12-31 02:25:17 +0000";
layers = (
{
layerId = "B3EB4CE9-FF8A-458C-8111-2882C1B7C642";
shapes = (
{
closed = 1;
nodes = (
(902,1379,o),
(742,1484,o),
(533,1484,cs),
(281,1484,o),
(134,1352,o),
(134,1103,cs),
(134,866,o),
(276,763,o),
(466,667,cs),
(656,573,o),
(754,527,o),
(754,379,cs),
(754,229,o),
(670,140,o),
(505,140,cs),
(340,140,o),
(256,230,o),
(237,432,c),
(82,409,l),
(96,144,o),
(225,-24,o),
(498,-24,cs),
(777,-24,o),
(918,157,o),
(918,400,cs),
(918,640,o),
(775,729,o),
(553,839,cs),
(365,933,o),
(291,984,o),
(291,1118,cs),
(291,1253,o),
(368,1323,o),
(522,1323,cs),
(665,1323,o),
(744,1253,o),
(760,1074,c),
(912,1091,l)
);
},
{
closed = 1;
nodes = (
(361,1640,l),
(522,1844,l),
(478,1844,l),
(640,1640,l),
(786,1640,l),
(583,1881,l),
(417,1881,l),
(214,1640,l)
);
}
);
width = 1000;
}
);
unicode = 348;
},
{
glyphname = Scommaaccent;
lastChange = "2024-12-31 02:25:17 +0000";
layers = (
{
layerId = "B3EB4CE9-FF8A-458C-8111-2882C1B7C642";
shapes = (
{
closed = 1;
nodes = (
(902,1379,o),
(742,1484,o),
(533,1484,cs),
(281,1484,o),
(134,1352,o),
(134,1103,cs),
(134,866,o),
(276,763,o),
(466,667,cs),
(656,573,o),
(754,527,o),
(754,379,cs),
(754,229,o),
(670,140,o),
(505,140,cs),
(340,140,o),
(256,230,o),
(237,432,c),
(82,409,l),
(96,144,o),
(225,-24,o),
(498,-24,cs),
(777,-24,o),
(918,157,o),
(918,400,cs),
(918,640,o),
(775,729,o),
(553,839,cs),
(365,933,o),
(291,984,o),
(291,1118,cs),
(291,1253,o),
(368,1323,o),
(522,1323,cs),
(665,1323,o),
(744,1253,o),
(760,1074,c),
(912,1091,l)
);
},
{
closed = 1;
nodes = (
(519,-516,o),
(539,-511,o),
(557,-499,c),
(530,-469,l),
(517,-566,o),
(450,-623,o),
(375,-679,c),
(428,-760,l),
(528,-697,o),
(623,-584,o),
(623,-432,cs),
(623,-313,o),
(567,-258,o),
(498,-258,cs),
(434,-258,o),
(385,-305,o),
(385,-387,cs),
(385,-467,o),
(432,-516,o),
(499,-516,cs)
);
}
);
width = 1000;
}
);
unicode = 536;
},
{
glyphname = Germandbls;
lastChange = "2024-12-31 02:25:17 +0000";
layers = (
{
layerId = "B3EB4CE9-FF8A-458C-8111-2882C1B7C642";
shapes = (
{
closed = 1;
nodes = (
(294,1460,l),
(138,1460,l),
(138,0,l),
(294,0,l)
);
},
{
closed = 1;
nodes = (
(698,812,l),
(823,1348,l),
(823,1460,l),
(224,1460,l),
(224,1296,l),
(703,1296,l),
(676,1348,l),
(565,876,l),
(565,764,l),
(685,716,o),
(771,625,o),
(771,425,cs),
(771,246,o),
(701,140,o),
(564,140,cs),
(527,140,o),
(494,148,o),
(456,158,c),
(448,3,l),
(502,-15,o),
(548,-24,o),
(599,-24,cs),
(817,-24,o),
(931,136,o),
(931,420,cs),
(931,686,o),
(826,812,o),
(680,885,c)
);
}
);
width = 1000;
}
);
unicode = 7838;
},
{
glyphname = T;
lastChange = "2024-12-31 02:25:17 +0000";
layers = (
{
layerId = "B3EB4CE9-FF8A-458C-8111-2882C1B7C642";
shapes = (
{
closed = 1;
nodes = (
(578,1460,l),
(422,1460,l),
(422,0,l),
(578,0,l)
);
},
{
closed = 1;
nodes = (
(904,1296,l),
(904,1460,l),
(96,1460,l),
(96,1296,l)
);
}
);
width = 1000;
}
);
unicode = 84;
},
{
glyphname = Tbar;
lastChange = "2024-12-31 02:25:17 +0000";
layers = (
{
layerId = "B3EB4CE9-FF8A-458C-8111-2882C1B7C642";
shapes = (
{
closed = 1;
nodes = (
(786,667,l),
(786,831,l),
(214,831,l),
(214,667,l)
);
},
{
closed = 1;
nodes = (
(578,1460,l),
(422,1460,l),
(422,0,l),
(578,0,l)
);
},
{
closed = 1;
nodes = (
(904,1296,l),
(904,1460,l),
(96,1460,l),
(96,1296,l)
);
}
);
width = 1000;
}
);
unicode = 358;
},
{
glyphname = Tcaron;
lastChange = "2024-12-31 02:25:17 +0000";
layers = (
{
layerId = "B3EB4CE9-FF8A-458C-8111-2882C1B7C642";
shapes = (
{
closed = 1;
nodes = (
(578,1460,l),
(422,1460,l),
(422,0,l),
(578,0,l)
);
},
{
closed = 1;
nodes = (
(904,1296,l),
(904,1460,l),
(96,1460,l),
(96,1296,l)
);
},
{
closed = 1;
nodes = (
(361,1881,l),
(522,1677,l),
(478,1677,l),
(640,1881,l),
(786,1881,l),
(583,1640,l),
(417,1640,l),
(214,1881,l)
);
}
);
width = 1000;
}
);
unicode = 356;
},
{
glyphname = Tcedilla;
lastChange = "2024-12-31 02:25:17 +0000";
layers = (
{
layerId = "B3EB4CE9-FF8A-458C-8111-2882C1B7C642";
shapes = (
{
closed = 1;
nodes = (
(578,1460,l),
(422,1460,l),
(422,0,l),
(578,0,l)
);
},
{
closed = 1;
nodes = (
(904,1296,l),
(904,1460,l),
(96,1460,l),
(96,1296,l)
);
},
{
closed = 1;
nodes = (
(551,-220,l),
(548,48,l),
(451,48,l),
(451,-260,l),
(524,-269,o),
(570,-298,o),
(570,-373,cs),
(570,-436,o),
(539,-473,o),
(439,-473,cs),
(399,-473,l),
(399,-589,l),
(459,-589,ls),
(640,-589,o),
(690,-513,o),
(690,-385,cs),
(690,-247,o),
(631,-190,o),
(526,-168,c)
);
}
);
width = 1000;
}
);
unicode = 354;
},
{
glyphname = Tcommaaccent;
lastChange = "2024-12-31 02:25:17 +0000";
layers = (
{
layerId = "B3EB4CE9-FF8A-458C-8111-2882C1B7C642";
shapes = (
{
closed = 1;
nodes = (
(578,1460,l),
(422,1460,l),
(422,0,l),
(578,0,l)
);
},
{
closed = 1;
nodes = (
(904,1296,l),
(904,1460,l),
(96,1460,l),
(96,1296,l)
);
},
{
closed = 1;
nodes = (
(519,-516,o),
(539,-511,o),
(557,-499,c),
(530,-469,l),
(517,-566,o),
(450,-623,o),
(375,-679,c),
(428,-760,l),
(528,-697,o),
(623,-584,o),
(623,-432,cs),
(623,-313,o),
(567,-258,o),
(498,-258,cs),
(434,-258,o),
(385,-305,o),
(385,-387,cs),
(385,-467,o),
(432,-516,o),
(499,-516,cs)
);
}
);
width = 1000;
}
);
unicode = 538;
},
{
glyphname = U;
lastChange = "2024-12-31 02:25:17 +0000";
layers = (
{
layerId = "B3EB4CE9-FF8A-458C-8111-2882C1B7C642";
shapes = (
{
closed = 1;
nodes = (
(310,144,o),
(281,291,o),
(281,496,cs),
(281,1460,l),
(125,1460,l),
(125,442,ls),
(125,176,o),
(227,-23,o),
(500,-23,cs),
(773,-23,o),
(875,176,o),
(875,442,cs),
(875,1460,l),
(719,1460,l),
(719,496,ls),
(719,291,o),
(690,144,o),
(500,144,cs)
);
}
);
width = 1000;
}
);
unicode = 85;
},
{
glyphname = Uacute;
lastChange = "2024-12-31 02:25:17 +0000";
layers = (
{
layerId = "B3EB4CE9-FF8A-458C-8111-2882C1B7C642";
shapes = (
{
closed = 1;
nodes = (
(310,144,o),
(281,291,o),
(281,496,cs),
(281,1460,l),
(125,1460,l),
(125,442,ls),
(125,176,o),
(227,-23,o),
(500,-23,cs),
(773,-23,o),
(875,176,o),
(875,442,cs),
(875,1460,l),
(719,1460,l),
(719,496,ls),
(719,291,o),
(690,144,o),
(500,144,cs)
);
},
{
closed = 1;
nodes = (
(598,1881,l),
(766,1881,l),
(563,1640,l),
(429,1640,l)
);
}
);
width = 1000;
}
);
unicode = 218;
},
{
glyphname = Ubreve;
lastChange = "2024-12-31 02:25:17 +0000";
layers = (
{
layerId = "B3EB4CE9-FF8A-458C-8111-2882C1B7C642";
shapes = (
{
closed = 1;
nodes = (
(310,144,o),
(281,291,o),
(281,496,cs),
(281,1460,l),
(125,1460,l),
(125,442,ls),
(125,176,o),
(227,-23,o),
(500,-23,cs),
(773,-23,o),
(875,176,o),
(875,442,cs),
(875,1460,l),
(719,1460,l),
(719,496,ls),
(719,291,o),
(690,144,o),
(500,144,cs)
);
},
{
closed = 1;
nodes = (
(252,1727,o),
(335,1629,o),
(500,1629,cs),
(665,1629,o),
(748,1727,o),
(740,1881,c),
(639,1881,l),
(639,1798,o),
(599,1733,o),
(500,1733,cs),
(401,1733,o),
(361,1798,o),
(361,1881,c),
(260,1881,l)
);
}
);
width = 1000;
}
);
unicode = 364;
},
{
glyphname = Ucircumflex;
lastChange = "2024-12-31 02:25:17 +0000";
layers = (
{
layerId = "B3EB4CE9-FF8A-458C-8111-2882C1B7C642";
shapes = (
{
closed = 1;
nodes = (
(310,144,o),
(281,291,o),
(281,496,cs),
(281,1460,l),
(125,1460,l),
(125,442,ls),
(125,176,o),
(227,-23,o),
(500,-23,cs),
(773,-23,o),
(875,176,o),
(875,442,cs),
(875,1460,l),
(719,1460,l),
(719,496,ls),
(719,291,o),
(690,144,o),
(500,144,cs)
);
},
{
closed = 1;
nodes = (
(361,1640,l),
(522,1844,l),
(478,1844,l),
(640,1640,l),
(786,1640,l),
(583,1881,l),
(417,1881,l),
(214,1640,l)
);
}
);
width = 1000;
}
);
unicode = 219;
},
{
glyphname = Udieresis;
lastChange = "2024-12-31 02:25:17 +0000";
layers = (
{
layerId = "B3EB4CE9-FF8A-458C-8111-2882C1B7C642";
shapes = (
{
closed = 1;
nodes = (
(310,144,o),
(281,291,o),
(281,496,cs),
(281,1460,l),
(125,1460,l),
(125,442,ls),
(125,176,o),
(227,-23,o),
(500,-23,cs),
(773,-23,o),
(875,176,o),
(875,442,cs),
(875,1460,l),
(719,1460,l),
(719,496,ls),
(719,291,o),
(690,144,o),
(500,144,cs)
);
},
{
closed = 1;
nodes = (
(351,1648,o),
(391,1692,o),
(391,1765,cs),
(391,1837,o),
(351,1880,o),
(293,1880,cs),
(234,1880,o),
(194,1837,o),
(194,1765,cs),
(194,1692,o),
(234,1648,o),
(293,1648,cs)
);
},
{
closed = 1;
nodes = (
(767,1648,o),
(807,1692,o),
(807,1765,cs),
(807,1837,o),
(767,1880,o),
(708,1880,cs),
(650,1880,o),
(609,1837,o),
(609,1765,cs),
(609,1692,o),
(650,1648,o),
(708,1648,cs)
);
}
);
width = 1000;
}
);
unicode = 220;
},
{
glyphname = Udotbelow;
lastChange = "2024-12-31 02:25:17 +0000";
layers = (
{
layerId = "B3EB4CE9-FF8A-458C-8111-2882C1B7C642";
shapes = (
{
closed = 1;
nodes = (
(310,144,o),
(281,291,o),
(281,496,cs),
(281,1460,l),
(125,1460,l),
(125,442,ls),
(125,176,o),
(227,-23,o),
(500,-23,cs),
(773,-23,o),
(875,176,o),
(875,442,cs),
(875,1460,l),
(719,1460,l),
(719,496,ls),
(719,291,o),
(690,144,o),
(500,144,cs)
);
},
{
closed = 1;
nodes = (
(566,-515,o),
(612,-466,o),
(612,-386,cs),
(612,-306,o),
(566,-258,o),
(500,-258,cs),
(434,-258,o),
(388,-306,o),
(388,-386,cs),
(388,-466,o),
(434,-515,o),
(500,-515,cs)
);
}
);
width = 1000;
}
);
unicode = 7908;
},
{
glyphname = Ugrave;
lastChange = "2024-12-31 02:25:17 +0000";
layers = (
{
layerId = "B3EB4CE9-FF8A-458C-8111-2882C1B7C642";
shapes = (
{
closed = 1;
nodes = (
(310,144,o),
(281,291,o),
(281,496,cs),
(281,1460,l),
(125,1460,l),
(125,442,ls),
(125,176,o),
(227,-23,o),
(500,-23,cs),
(773,-23,o),
(875,176,o),
(875,442,cs),
(875,1460,l),
(719,1460,l),
(719,496,ls),
(719,291,o),
(690,144,o),
(500,144,cs)
);
},
{
closed = 1;
nodes = (
(402,1881,l),
(234,1881,l),
(437,1640,l),
(571,1640,l)
);
}
);
width = 1000;
}
);
unicode = 217;
},
{
glyphname = Uhungarumlaut;
lastChange = "2024-12-31 02:25:17 +0000";
layers = (
{
layerId = "B3EB4CE9-FF8A-458C-8111-2882C1B7C642";
shapes = (
{
closed = 1;
nodes = (
(310,144,o),
(281,291,o),
(281,496,cs),
(281,1460,l),
(125,1460,l),
(125,442,ls),
(125,176,o),
(227,-23,o),
(500,-23,cs),
(773,-23,o),
(875,176,o),
(875,442,cs),
(875,1460,l),
(719,1460,l),
(719,496,ls),
(719,291,o),
(690,144,o),
(500,144,cs)
);
},
{
closed = 1;
nodes = (
(397,1640,l),
(535,1881,l),
(400,1881,l),
(287,1640,l)
);
},
{
closed = 1;
nodes = (
(704,1640,l),
(843,1881,l),
(707,1881,l),
(595,1640,l)
);
}
);
width = 1000;
}
);
unicode = 368;
},
{
glyphname = Umacron;
lastChange = "2024-12-31 02:25:17 +0000";
layers = (
{
layerId = "B3EB4CE9-FF8A-458C-8111-2882C1B7C642";
shapes = (
{
closed = 1;
nodes = (
(310,144,o),
(281,291,o),
(281,496,cs),
(281,1460,l),
(125,1460,l),
(125,442,ls),
(125,176,o),
(227,-23,o),
(500,-23,cs),
(773,-23,o),
(875,176,o),
(875,442,cs),
(875,1460,l),
(719,1460,l),
(719,496,ls),
(719,291,o),
(690,144,o),
(500,144,cs)
);
},
{
closed = 1;
nodes = (
(241,1849,l),
(241,1718,l),
(759,1718,l),
(759,1849,l)
);
}
);
width = 1000;
}
);
unicode = 362;
},
{
glyphname = Uogonek;
lastChange = "2024-12-31 02:25:17 +0000";
layers = (
{
layerId = "B3EB4CE9-FF8A-458C-8111-2882C1B7C642";
shapes = (
{
closed = 1;
nodes = (
(310,144,o),
(281,291,o),
(281,496,cs),
(281,1460,l),
(125,1460,l),
(125,442,ls),
(125,176,o),
(227,-23,o),
(500,-23,cs),
(773,-23,o),
(875,176,o),
(875,442,cs),
(875,1460,l),
(719,1460,l),
(719,496,ls),
(719,291,o),
(690,144,o),
(500,144,cs)
);
},
{
closed = 1;
nodes = (
(449,-67,o),
(399,-150,o),
(399,-247,cs),
(399,-331,o),
(436,-414,o),
(588,-414,cs),
(646,-414,l),
(646,-282,l),
(623,-282,ls),
(556,-282,o),
(533,-252,o),
(533,-206,cs),
(533,-153,o),
(562,-88,o),
(646,0,c),
(552,37,l)
);
}
);
width = 1000;
}
);
unicode = 370;
},
{
glyphname = Uring;
lastChange = "2024-12-31 02:25:17 +0000";
layers = (
{
layerId = "B3EB4CE9-FF8A-458C-8111-2882C1B7C642";
shapes = (
{
closed = 1;
nodes = (
(310,144,o),
(281,291,o),
(281,496,cs),
(281,1460,l),
(125,1460,l),
(125,442,ls),
(125,176,o),
(227,-23,o),
(500,-23,cs),
(773,-23,o),
(875,176,o),
(875,442,cs),
(875,1460,l),
(719,1460,l),
(719,496,ls),
(719,291,o),
(690,144,o),
(500,144,cs)
);
},
{
closed = 1;
nodes = (
(607,1428,o),
(683,1527,o),
(683,1661,cs),
(683,1796,o),
(607,1894,o),
(500,1894,cs),
(393,1894,o),
(317,1796,o),
(317,1661,cs),
(317,1527,o),
(393,1428,o),
(500,1428,cs)
);
},
{
closed = 1;
nodes = (
(435,1525,o),
(393,1583,o),
(393,1661,cs),
(393,1739,o),
(435,1797,o),
(500,1797,cs),
(565,1797,o),
(606,1739,o),
(606,1661,cs),
(606,1583,o),
(565,1525,o),
(500,1525,cs)
);
}
);
width = 1000;
}
);
unicode = 366;
},
{
glyphname = Utilde;
lastChange = "2024-12-31 02:25:17 +0000";
layers = (
{
layerId = "B3EB4CE9-FF8A-458C-8111-2882C1B7C642";
shapes = (
{
closed = 1;
nodes = (
(310,144,o),
(281,291,o),
(281,496,cs),
(281,1460,l),
(125,1460,l),
(125,442,ls),
(125,176,o),
(227,-23,o),
(500,-23,cs),
(773,-23,o),
(875,176,o),
(875,442,cs),
(875,1460,l),
(719,1460,l),
(719,496,ls),
(719,291,o),
(690,144,o),
(500,144,cs)
);
},
{
closed = 1;
nodes = (
(271,1897,o),
(208,1816,o),
(192,1673,c),
(297,1642,l),
(310,1726,o),
(343,1771,o),
(390,1771,cs),
(472,1771,o),
(507,1628,o),
(633,1628,cs),
(728,1628,o),
(792,1709,o),
(808,1853,c),
(703,1883,l),
(690,1799,o),
(658,1754,o),
(611,1754,cs),
(528,1754,o),
(492,1897,o),
(366,1897,cs)
);
}
);
width = 1000;
}
);
unicode = 360;
},
{
glyphname = V;
lastChange = "2024-12-31 02:25:17 +0000";
layers = (
{
layerId = "B3EB4CE9-FF8A-458C-8111-2882C1B7C642";
shapes = (
{
closed = 1;
nodes = (
(419,0,l),
(582,0,l),
(934,1460,l),
(777,1460,l),
(509,295,l),
(498,295,l),
(230,1460,l),
(66,1460,l)
);
}
);
width = 1000;
}
);
unicode = 86;
},
{
glyphname = W;
lastChange = "2024-12-31 02:25:17 +0000";
layers = (
{
layerId = "B3EB4CE9-FF8A-458C-8111-2882C1B7C642";
shapes = (
{
closed = 1;
nodes = (
(211,0,l),
(341,0,l),
(494,917,l),
(506,917,l),
(648,0,l),
(788,0,l),
(975,1460,l),
(833,1460,l),
(704,401,l),
(692,401,l),
(569,1216,l),
(450,1216,l),
(314,401,l),
(302,401,l),
(173,1460,l),
(25,1460,l)
);
}
);
width = 1000;
}
);
unicode = 87;
},
{
glyphname = Wacute;
lastChange = "2024-12-31 02:25:17 +0000";
layers = (
{
layerId = "B3EB4CE9-FF8A-458C-8111-2882C1B7C642";
shapes = (
{
closed = 1;
nodes = (
(211,0,l),
(341,0,l),
(494,917,l),
(506,917,l),
(648,0,l),
(788,0,l),
(975,1460,l),
(833,1460,l),
(704,401,l),
(692,401,l),
(569,1216,l),
(450,1216,l),
(314,401,l),
(302,401,l),
(173,1460,l),
(25,1460,l)
);
},
{
closed = 1;
nodes = (
(598,1881,l),
(766,1881,l),
(563,1640,l),
(429,1640,l)
);
}
);
width = 1000;
}
);
unicode = 7810;
},
{
glyphname = Wcircumflex;
lastChange = "2024-12-31 02:25:17 +0000";
layers = (
{
layerId = "B3EB4CE9-FF8A-458C-8111-2882C1B7C642";
shapes = (
{
closed = 1;
nodes = (
(211,0,l),
(341,0,l),
(494,917,l),
(506,917,l),
(648,0,l),
(788,0,l),
(975,1460,l),
(833,1460,l),
(704,401,l),
(692,401,l),
(569,1216,l),
(450,1216,l),
(314,401,l),
(302,401,l),
(173,1460,l),
(25,1460,l)
);
},
{
closed = 1;
nodes = (
(361,1640,l),
(522,1844,l),
(478,1844,l),
(640,1640,l),
(786,1640,l),
(583,1881,l),
(417,1881,l),
(214,1640,l)
);
}
);
width = 1000;
}
);
unicode = 372;
},
{
glyphname = Wdieresis;
lastChange = "2024-12-31 02:25:17 +0000";
layers = (
{
layerId = "B3EB4CE9-FF8A-458C-8111-2882C1B7C642";
shapes = (
{
closed = 1;
nodes = (
(211,0,l),
(341,0,l),
(494,917,l),
(506,917,l),
(648,0,l),
(788,0,l),
(975,1460,l),
(833,1460,l),
(704,401,l),
(692,401,l),
(569,1216,l),
(450,1216,l),
(314,401,l),
(302,401,l),
(173,1460,l),
(25,1460,l)
);
},
{
closed = 1;
nodes = (
(351,1648,o),
(391,1692,o),
(391,1765,cs),
(391,1837,o),
(351,1880,o),
(293,1880,cs),
(234,1880,o),
(194,1837,o),
(194,1765,cs),
(194,1692,o),
(234,1648,o),
(293,1648,cs)
);
},
{
closed = 1;
nodes = (
(767,1648,o),
(807,1692,o),
(807,1765,cs),
(807,1837,o),
(767,1880,o),
(708,1880,cs),
(650,1880,o),
(609,1837,o),
(609,1765,cs),
(609,1692,o),
(650,1648,o),
(708,1648,cs)
);
}
);
width = 1000;
}
);
unicode = 7812;
},
{
glyphname = Wgrave;
lastChange = "2024-12-31 02:25:17 +0000";
layers = (
{
layerId = "B3EB4CE9-FF8A-458C-8111-2882C1B7C642";
shapes = (
{
closed = 1;
nodes = (
(211,0,l),
(341,0,l),
(494,917,l),
(506,917,l),
(648,0,l),
(788,0,l),
(975,1460,l),
(833,1460,l),
(704,401,l),
(692,401,l),
(569,1216,l),
(450,1216,l),
(314,401,l),
(302,401,l),
(173,1460,l),
(25,1460,l)
);
},
{
closed = 1;
nodes = (
(402,1881,l),
(234,1881,l),
(437,1640,l),
(571,1640,l)
);
}
);
width = 1000;
}
);
unicode = 7808;
},
{
glyphname = X;
lastChange = "2024-12-31 02:25:17 +0000";
layers = (
{
layerId = "B3EB4CE9-FF8A-458C-8111-2882C1B7C642";
shapes = (
{
closed = 1;
nodes = (
(761,0,l),
(939,0,l),
(249,1460,l),
(73,1460,l)
);
},
{
closed = 1;
nodes = (
(556,675,l),
(925,1460,l),
(754,1460,l),
(467,827,l)
);
},
{
closed = 1;
nodes = (
(448,825,l),
(61,0,l),
(235,0,l),
(530,663,l)
);
},
{
closed = 1;
nodes = (
(407,557,l),
(591,557,l),
(591,932,l),
(407,932,l)
);
}
);
width = 1000;
}
);
unicode = 88;
},
{
glyphname = Y;
lastChange = "2024-12-31 02:25:17 +0000";
layers = (
{
layerId = "B3EB4CE9-FF8A-458C-8111-2882C1B7C642";
shapes = (
{
closed = 1;
nodes = (
(578,769,l),
(422,769,l),
(422,0,l),
(578,0,l)
);
},
{
closed = 1;
nodes = (
(432,614,l),
(567,614,l),
(947,1460,l),
(790,1460,l),
(512,815,l),
(502,815,l),
(223,1460,l),
(53,1460,l)
);
}
);
width = 1000;
}
);
unicode = 89;
},
{
glyphname = Yacute;
lastChange = "2024-12-31 02:25:17 +0000";
layers = (
{
layerId = "B3EB4CE9-FF8A-458C-8111-2882C1B7C642";
shapes = (
{
closed = 1;
nodes = (
(578,769,l),
(422,769,l),
(422,0,l),
(578,0,l)
);
},
{
closed = 1;
nodes = (
(432,614,l),
(567,614,l),
(947,1460,l),
(790,1460,l),
(512,815,l),
(502,815,l),
(223,1460,l),
(53,1460,l)
);
},
{
closed = 1;
nodes = (
(598,1881,l),
(766,1881,l),
(563,1640,l),
(429,1640,l)
);
}
);
width = 1000;
}
);
unicode = 221;
},
{
glyphname = Ycircumflex;
lastChange = "2024-12-31 02:25:17 +0000";
layers = (
{
layerId = "B3EB4CE9-FF8A-458C-8111-2882C1B7C642";
shapes = (
{
closed = 1;
nodes = (
(578,769,l),
(422,769,l),
(422,0,l),
(578,0,l)
);
},
{
closed = 1;
nodes = (
(432,614,l),
(567,614,l),
(947,1460,l),
(790,1460,l),
(512,815,l),
(502,815,l),
(223,1460,l),
(53,1460,l)
);
},
{
closed = 1;
nodes = (
(361,1640,l),
(522,1844,l),
(478,1844,l),
(640,1640,l),
(786,1640,l),
(583,1881,l),
(417,1881,l),
(214,1640,l)
);
}
);
width = 1000;
}
);
unicode = 374;
},
{
glyphname = Ydieresis;
lastChange = "2024-12-31 02:25:17 +0000";
layers = (
{
layerId = "B3EB4CE9-FF8A-458C-8111-2882C1B7C642";
shapes = (
{
closed = 1;
nodes = (
(578,769,l),
(422,769,l),
(422,0,l),
(578,0,l)
);
},
{
closed = 1;
nodes = (
(432,614,l),
(567,614,l),
(947,1460,l),
(790,1460,l),
(512,815,l),
(502,815,l),
(223,1460,l),
(53,1460,l)
);
},
{
closed = 1;
nodes = (
(351,1648,o),
(391,1692,o),
(391,1765,cs),
(391,1837,o),
(351,1880,o),
(293,1880,cs),
(234,1880,o),
(194,1837,o),
(194,1765,cs),
(194,1692,o),
(234,1648,o),
(293,1648,cs)
);
},
{
closed = 1;
nodes = (
(767,1648,o),
(807,1692,o),
(807,1765,cs),
(807,1837,o),
(767,1880,o),
(708,1880,cs),
(650,1880,o),
(609,1837,o),
(609,1765,cs),
(609,1692,o),
(650,1648,o),
(708,1648,cs)
);
}
);
width = 1000;
}
);
unicode = 376;
},
{
glyphname = Ygrave;
lastChange = "2024-12-31 02:25:17 +0000";
layers = (
{
layerId = "B3EB4CE9-FF8A-458C-8111-2882C1B7C642";
shapes = (
{
closed = 1;
nodes = (
(578,769,l),
(422,769,l),
(422,0,l),
(578,0,l)
);
},
{
closed = 1;
nodes = (
(432,614,l),
(567,614,l),
(947,1460,l),
(790,1460,l),
(512,815,l),
(502,815,l),
(223,1460,l),
(53,1460,l)
);
},
{
closed = 1;
nodes = (
(402,1881,l),
(234,1881,l),
(437,1640,l),
(571,1640,l)
);
}
);
width = 1000;
}
);
unicode = 7922;
},
{
glyphname = Ymacron;
lastChange = "2024-12-31 02:25:17 +0000";
layers = (
{
layerId = "B3EB4CE9-FF8A-458C-8111-2882C1B7C642";
shapes = (
{
closed = 1;
nodes = (
(578,769,l),
(422,769,l),
(422,0,l),
(578,0,l)
);
},
{
closed = 1;
nodes = (
(432,614,l),
(567,614,l),
(947,1460,l),
(790,1460,l),
(512,815,l),
(502,815,l),
(223,1460,l),
(53,1460,l)
);
},
{
closed = 1;
nodes = (
(241,1849,l),
(241,1718,l),
(759,1718,l),
(759,1849,l)
);
}
);
width = 1000;
}
);
unicode = 562;
},
{
glyphname = Ytilde;
lastChange = "2024-12-31 02:25:17 +0000";
layers = (
{
layerId = "B3EB4CE9-FF8A-458C-8111-2882C1B7C642";
shapes = (
{
closed = 1;
nodes = (
(578,769,l),
(422,769,l),
(422,0,l),
(578,0,l)
);
},
{
closed = 1;
nodes = (
(432,614,l),
(567,614,l),
(947,1460,l),
(790,1460,l),
(512,815,l),
(502,815,l),
(223,1460,l),
(53,1460,l)
);
},
{
closed = 1;
nodes = (
(271,1897,o),
(208,1816,o),
(192,1673,c),
(297,1642,l),
(310,1726,o),
(343,1771,o),
(390,1771,cs),
(472,1771,o),
(507,1628,o),
(633,1628,cs),
(728,1628,o),
(792,1709,o),
(808,1853,c),
(703,1883,l),
(690,1799,o),
(658,1754,o),
(611,1754,cs),
(528,1754,o),
(492,1897,o),
(366,1897,cs)
);
}
);
width = 1000;
}
);
unicode = 7928;
},
{
glyphname = Z;
lastChange = "2024-12-31 02:25:17 +0000";
layers = (
{
layerId = "B3EB4CE9-FF8A-458C-8111-2882C1B7C642";
shapes = (
{
closed = 1;
nodes = (
(115,1301,l),
(703,1301,l),
(679,1324,l),
(114,140,l),
(121,0,l),
(886,0,l),
(886,166,l),
(250,166,l),
(276,118,l),
(846,1326,l),
(838,1460,l),
(115,1459,l)
);
}
);
width = 1000;
}
);
unicode = 90;
},
{
glyphname = Zacute;
lastChange = "2024-12-31 02:25:17 +0000";
layers = (
{
layerId = "B3EB4CE9-FF8A-458C-8111-2882C1B7C642";
shapes = (
{
closed = 1;
nodes = (
(115,1301,l),
(703,1301,l),
(679,1324,l),
(114,140,l),
(121,0,l),
(886,0,l),
(886,166,l),
(250,166,l),
(276,118,l),
(846,1326,l),
(838,1460,l),
(115,1459,l)
);
},
{
closed = 1;
nodes = (
(598,1881,l),
(766,1881,l),
(563,1640,l),
(429,1640,l)
);
}
);
width = 1000;
}
);
unicode = 377;
},
{
glyphname = Zcaron;
lastChange = "2024-12-31 02:25:17 +0000";
layers = (
{
layerId = "B3EB4CE9-FF8A-458C-8111-2882C1B7C642";
shapes = (
{
closed = 1;
nodes = (
(115,1301,l),
(703,1301,l),
(679,1324,l),
(114,140,l),
(121,0,l),
(886,0,l),
(886,166,l),
(250,166,l),
(276,118,l),
(846,1326,l),
(838,1460,l),
(115,1459,l)
);
},
{
closed = 1;
nodes = (
(361,1881,l),
(522,1677,l),
(478,1677,l),
(640,1881,l),
(786,1881,l),
(583,1640,l),
(417,1640,l),
(214,1881,l)
);
}
);
width = 1000;
}
);
unicode = 381;
},
{
glyphname = Zdotaccent;
lastChange = "2024-12-31 02:25:17 +0000";
layers = (
{
layerId = "B3EB4CE9-FF8A-458C-8111-2882C1B7C642";
shapes = (
{
closed = 1;
nodes = (
(115,1301,l),
(703,1301,l),
(679,1324,l),
(114,140,l),
(121,0,l),
(886,0,l),
(886,166,l),
(250,166,l),
(276,118,l),
(846,1326,l),
(838,1460,l),
(115,1459,l)
);
},
{
closed = 1;
nodes = (
(559,1648,o),
(600,1692,o),
(600,1765,cs),
(600,1837,o),
(559,1880,o),
(499,1880,cs),
(440,1880,o),
(398,1837,o),
(398,1765,cs),
(398,1692,o),
(440,1648,o),
(499,1648,cs)
);
}
);
width = 1000;
}
);
unicode = 379;
},
{
glyphname = M.both;
lastChange = "2024-12-31 02:25:17 +0000";
layers = (
{
layerId = "B3EB4CE9-FF8A-458C-8111-2882C1B7C642";
shapes = (
{
closed = 1;
nodes = (
(12,0,l),
(151,0,l),
(151,1185,l),
(160,1185,l),
(468,422,l),
(529,422,l),
(836,1185,l),
(847,1185,l),
(847,0,l),
(988,0,l),
(988,1460,l),
(820,1460,l),
(509,693,l),
(499,693,l),
(185,1460,l),
(12,1460,l)
);
}
);
width = 1000;
}
);
},
{
glyphname = T.both;
lastChange = "2024-12-31 02:25:17 +0000";
layers = (
{
layerId = "B3EB4CE9-FF8A-458C-8111-2882C1B7C642";
shapes = (
{
closed = 1;
nodes = (
(579,1460,l),
(423,1460,l),
(423,0,l),
(579,0,l)
);
},
{
closed = 1;
nodes = (
(1009,1296,l),
(1009,1460,l),
(-8,1460,l),
(-8,1296,l)
);
}
);
width = 1000;
}
);
},
{
glyphname = Tbar.both;
lastChange = "2024-12-31 02:25:17 +0000";
layers = (
{
layerId = "B3EB4CE9-FF8A-458C-8111-2882C1B7C642";
shapes = (
{
closed = 1;
nodes = (
(869,667,l),
(869,830,l),
(131,830,l),
(131,667,l)
);
},
{
closed = 1;
nodes = (
(579,1460,l),
(423,1460,l),
(423,0,l),
(579,0,l)
);
},
{
closed = 1;
nodes = (
(1009,1296,l),
(1009,1460,l),
(-8,1460,l),
(-8,1296,l)
);
}
);
width = 1000;
}
);
},
{
glyphname = Tcaron.both;
lastChange = "2024-12-31 02:25:17 +0000";
layers = (
{
layerId = "B3EB4CE9-FF8A-458C-8111-2882C1B7C642";
shapes = (
{
closed = 1;
nodes = (
(579,1460,l),
(423,1460,l),
(423,0,l),
(579,0,l)
);
},
{
closed = 1;
nodes = (
(1009,1296,l),
(1009,1460,l),
(-8,1460,l),
(-8,1296,l)
);
},
{
closed = 1;
nodes = (
(324,1891,l),
(526,1670,l),
(474,1670,l),
(677,1891,l),
(840,1891,l),
(594,1640,l),
(406,1640,l),
(160,1891,l)
);
}
);
width = 1000;
}
);
},
{
glyphname = Tcedilla.both;
lastChange = "2024-12-31 02:25:17 +0000";
layers = (
{
layerId = "B3EB4CE9-FF8A-458C-8111-2882C1B7C642";
shapes = (
{
closed = 1;
nodes = (
(579,1460,l),
(423,1460,l),
(423,0,l),
(579,0,l)
);
},
{
closed = 1;
nodes = (
(1009,1296,l),
(1009,1460,l),
(-8,1460,l),
(-8,1296,l)
);
},
{
closed = 1;
nodes = (
(551,-232,l),
(548,48,l),
(451,48,l),
(451,-274,l),
(573,-284,o),
(636,-315,o),
(636,-391,cs),
(636,-455,o),
(586,-494,o),
(443,-494,cs),
(371,-494,l),
(371,-619,l),
(452,-619,ls),
(687,-619,o),
(763,-542,o),
(763,-405,cs),
(763,-258,o),
(677,-200,o),
(530,-178,c)
);
}
);
width = 1000;
}
);
},
{
glyphname = Tcommaaccent.both;
lastChange = "2024-12-31 02:25:17 +0000";
layers = (
{
layerId = "B3EB4CE9-FF8A-458C-8111-2882C1B7C642";
shapes = (
{
closed = 1;
nodes = (
(579,1460,l),
(423,1460,l),
(423,0,l),
(579,0,l)
);
},
{
closed = 1;
nodes = (
(1009,1296,l),
(1009,1460,l),
(-8,1460,l),
(-8,1296,l)
);
},
{
closed = 1;
nodes = (
(520,-516,o),
(540,-511,o),
(559,-499,c),
(531,-469,l),
(518,-566,o),
(452,-623,o),
(376,-679,c),
(429,-760,l),
(529,-697,o),
(624,-584,o),
(624,-432,cs),
(624,-313,o),
(568,-258,o),
(499,-258,cs),
(435,-258,o),
(386,-305,o),
(386,-387,cs),
(386,-467,o),
(433,-516,o),
(501,-516,cs)
);
}
);
width = 1000;
}
);
},
{
glyphname = W.both;
lastChange = "2024-12-31 02:25:17 +0000";
layers = (
{
layerId = "B3EB4CE9-FF8A-458C-8111-2882C1B7C642";
shapes = (
{
closed = 1;
nodes = (
(152,0,l),
(282,0,l),
(493,932,l),
(503,932,l),
(711,0,l),
(848,0,l),
(1086,1460,l),
(944,1460,l),
(768,364,l),
(756,364,l),
(562,1216,l),
(448,1216,l),
(255,364,l),
(243,364,l),
(65,1460,l),
(-87,1460,l)
);
}
);
width = 1000;
}
);
},
{
glyphname = Wacute.both;
lastChange = "2024-12-31 02:25:17 +0000";
layers = (
{
layerId = "B3EB4CE9-FF8A-458C-8111-2882C1B7C642";
shapes = (
{
closed = 1;
nodes = (
(152,0,l),
(282,0,l),
(493,932,l),
(503,932,l),
(711,0,l),
(848,0,l),
(1086,1460,l),
(944,1460,l),
(768,364,l),
(756,364,l),
(562,1216,l),
(448,1216,l),
(255,364,l),
(243,364,l),
(65,1460,l),
(-87,1460,l)
);
},
{
closed = 1;
nodes = (
(629,1897,l),
(817,1897,l),
(570,1641,l),
(421,1641,l)
);
}
);
width = 1000;
}
);
},
{
glyphname = Wcircumflex.both;
lastChange = "2024-12-31 02:25:17 +0000";
layers = (
{
layerId = "B3EB4CE9-FF8A-458C-8111-2882C1B7C642";
shapes = (
{
closed = 1;
nodes = (
(152,0,l),
(282,0,l),
(493,932,l),
(503,932,l),
(711,0,l),
(848,0,l),
(1086,1460,l),
(944,1460,l),
(768,364,l),
(756,364,l),
(562,1216,l),
(448,1216,l),
(255,364,l),
(243,364,l),
(65,1460,l),
(-87,1460,l)
);
},
{
closed = 1;
nodes = (
(320,1640,l),
(526,1863,l),
(473,1863,l),
(680,1640,l),
(845,1640,l),
(594,1892,l),
(405,1892,l),
(155,1640,l)
);
}
);
width = 1000;
}
);
},
{
glyphname = Wdieresis.both;
lastChange = "2024-12-31 02:25:17 +0000";
layers = (
{
layerId = "B3EB4CE9-FF8A-458C-8111-2882C1B7C642";
shapes = (
{
closed = 1;
nodes = (
(152,0,l),
(282,0,l),
(493,932,l),
(503,932,l),
(711,0,l),
(848,0,l),
(1086,1460,l),
(944,1460,l),
(768,364,l),
(756,364,l),
(562,1216,l),
(448,1216,l),
(255,364,l),
(243,364,l),
(65,1460,l),
(-87,1460,l)
);
},
{
closed = 1;
nodes = (
(302,1658,o),
(343,1702,o),
(343,1774,cs),
(343,1846,o),
(302,1890,o),
(242,1890,cs),
(183,1890,o),
(142,1846,o),
(142,1774,cs),
(142,1702,o),
(183,1658,o),
(242,1658,cs)
);
},
{
closed = 1;
nodes = (
(821,1658,o),
(862,1702,o),
(862,1774,cs),
(862,1846,o),
(821,1890,o),
(761,1890,cs),
(702,1890,o),
(661,1846,o),
(661,1774,cs),
(661,1702,o),
(702,1658,o),
(761,1658,cs)
);
}
);
width = 1000;
}
);
},
{
glyphname = Wgrave.both;
lastChange = "2024-12-31 02:25:17 +0000";
layers = (
{
layerId = "B3EB4CE9-FF8A-458C-8111-2882C1B7C642";
shapes = (
{
closed = 1;
nodes = (
(152,0,l),
(282,0,l),
(493,932,l),
(503,932,l),
(711,0,l),
(848,0,l),
(1086,1460,l),
(944,1460,l),
(768,364,l),
(756,364,l),
(562,1216,l),
(448,1216,l),
(255,364,l),
(243,364,l),
(65,1460,l),
(-87,1460,l)
);
},
{
closed = 1;
nodes = (
(371,1897,l),
(183,1897,l),
(430,1641,l),
(579,1641,l)
);
}
);
width = 1000;
}
);
},
{
glyphname = E.italic;
lastChange = "2024-12-31 02:25:17 +0000";
layers = (
{
layerId = "B3EB4CE9-FF8A-458C-8111-2882C1B7C642";
shapes = (
{
closed = 1;
nodes = (
(294,1460,l),
(138,1460,l),
(138,0,l),
(294,0,l)
);
},
{
closed = 1;
nodes = (
(227,164,l),
(227,0,l),
(867,0,l),
(867,164,l)
);
},
{
closed = 1;
nodes = (
(235,818,l),
(235,662,l),
(768,662,l),
(768,818,l)
);
},
{
closed = 1;
nodes = (
(867,1460,l),
(227,1460,l),
(227,1296,l),
(867,1296,l)
);
}
);
width = 1000;
}
);
},
{
glyphname = F.italic;
lastChange = "2024-12-31 02:25:17 +0000";
layers = (
{
layerId = "B3EB4CE9-FF8A-458C-8111-2882C1B7C642";
shapes = (
{
closed = 1;
nodes = (
(294,1460,l),
(138,1460,l),
(138,0,l),
(294,0,l)
);
},
{
closed = 1;
nodes = (
(235,779,l),
(235,622,l),
(766,622,l),
(766,779,l)
);
},
{
closed = 1;
nodes = (
(865,1460,l),
(227,1460,l),
(227,1296,l),
(865,1296,l)
);
}
);
width = 1000;
}
);
},
{
glyphname = E.left;
lastChange = "2024-12-31 02:25:17 +0000";
layers = (
{
layerId = "B3EB4CE9-FF8A-458C-8111-2882C1B7C642";
shapes = (
{
closed = 1;
nodes = (
(294,1460,l),
(138,1460,l),
(138,0,l),
(294,0,l)
);
},
{
closed = 1;
nodes = (
(227,164,l),
(227,0,l),
(786,0,l),
(786,164,l)
);
},
{
closed = 1;
nodes = (
(235,818,l),
(235,662,l),
(686,662,l),
(686,818,l)
);
},
{
closed = 1;
nodes = (
(786,1460,l),
(227,1460,l),
(227,1296,l),
(786,1296,l)
);
}
);
width = 1000;
}
);
},
{
glyphname = Eacute.left;
lastChange = "2024-12-31 02:25:17 +0000";
layers = (
{
layerId = "B3EB4CE9-FF8A-458C-8111-2882C1B7C642";
shapes = (
{
closed = 1;
nodes = (
(294,1460,l),
(138,1460,l),
(138,0,l),
(294,0,l)
);
},
{
closed = 1;
nodes = (
(227,164,l),
(227,0,l),
(786,0,l),
(786,164,l)
);
},
{
closed = 1;
nodes = (
(235,818,l),
(235,662,l),
(686,662,l),
(686,818,l)
);
},
{
closed = 1;
nodes = (
(786,1460,l),
(227,1460,l),
(227,1296,l),
(786,1296,l)
);
},
{
closed = 1;
nodes = (
(544,1876,l),
(706,1876,l),
(519,1639,l),
(390,1639,l)
);
}
);
width = 1000;
}
);
},
{
glyphname = Ebreve.left;
lastChange = "2024-12-31 02:25:17 +0000";
layers = (
{
layerId = "B3EB4CE9-FF8A-458C-8111-2882C1B7C642";
shapes = (
{
closed = 1;
nodes = (
(294,1460,l),
(138,1460,l),
(138,0,l),
(294,0,l)
);
},
{
closed = 1;
nodes = (
(227,164,l),
(227,0,l),
(786,0,l),
(786,164,l)
);
},
{
closed = 1;
nodes = (
(235,818,l),
(235,662,l),
(686,662,l),
(686,818,l)
);
},
{
closed = 1;
nodes = (
(786,1460,l),
(227,1460,l),
(227,1296,l),
(786,1296,l)
);
},
{
closed = 1;
nodes = (
(227,1735,o),
(302,1629,o),
(458,1629,cs),
(614,1629,o),
(689,1735,o),
(680,1877,c),
(582,1877,l),
(582,1798,o),
(547,1731,o),
(458,1731,cs),
(370,1731,o),
(334,1798,o),
(334,1877,c),
(237,1877,l)
);
}
);
width = 1000;
}
);
},
{
glyphname = Ecaron.left;
lastChange = "2024-12-31 02:25:17 +0000";
layers = (
{
layerId = "B3EB4CE9-FF8A-458C-8111-2882C1B7C642";
shapes = (
{
closed = 1;
nodes = (
(294,1460,l),
(138,1460,l),
(138,0,l),
(294,0,l)
);
},
{
closed = 1;
nodes = (
(227,164,l),
(227,0,l),
(786,0,l),
(786,164,l)
);
},
{
closed = 1;
nodes = (
(235,818,l),
(235,662,l),
(686,662,l),
(686,818,l)
);
},
{
closed = 1;
nodes = (
(786,1460,l),
(227,1460,l),
(227,1296,l),
(786,1296,l)
);
},
{
closed = 1;
nodes = (
(333,1877,l),
(478,1680,l),
(439,1680,l),
(583,1877,l),
(723,1877,l),
(537,1640,l),
(380,1640,l),
(194,1877,l)
);
}
);
width = 1000;
}
);
},
{
glyphname = Ecircumflex.left;
lastChange = "2024-12-31 02:25:17 +0000";
layers = (
{
layerId = "B3EB4CE9-FF8A-458C-8111-2882C1B7C642";
shapes = (
{
closed = 1;
nodes = (
(294,1460,l),
(138,1460,l),
(138,0,l),
(294,0,l)
);
},
{
closed = 1;
nodes = (
(227,164,l),
(227,0,l),
(786,0,l),
(786,164,l)
);
},
{
closed = 1;
nodes = (
(235,818,l),
(235,662,l),
(686,662,l),
(686,818,l)
);
},
{
closed = 1;
nodes = (
(786,1460,l),
(227,1460,l),
(227,1296,l),
(786,1296,l)
);
},
{
closed = 1;
nodes = (
(333,1640,l),
(478,1837,l),
(439,1837,l),
(583,1640,l),
(723,1640,l),
(537,1877,l),
(380,1877,l),
(194,1640,l)
);
}
);
width = 1000;
}
);
},
{
glyphname = Edieresis.left;
lastChange = "2024-12-31 02:25:17 +0000";
layers = (
{
layerId = "B3EB4CE9-FF8A-458C-8111-2882C1B7C642";
shapes = (
{
closed = 1;
nodes = (
(294,1460,l),
(138,1460,l),
(138,0,l),
(294,0,l)
);
},
{
closed = 1;
nodes = (
(227,164,l),
(227,0,l),
(786,0,l),
(786,164,l)
);
},
{
closed = 1;
nodes = (
(235,818,l),
(235,662,l),
(686,662,l),
(686,818,l)
);
},
{
closed = 1;
nodes = (
(786,1460,l),
(227,1460,l),
(227,1296,l),
(786,1296,l)
);
},
{
closed = 1;
nodes = (
(327,1645,o),
(368,1689,o),
(368,1761,cs),
(368,1833,o),
(327,1877,o),
(269,1877,cs),
(210,1877,o),
(171,1833,o),
(171,1761,cs),
(171,1689,o),
(210,1645,o),
(269,1645,cs)
);
},
{
closed = 1;
nodes = (
(705,1645,o),
(746,1689,o),
(746,1761,cs),
(746,1833,o),
(705,1877,o),
(648,1877,cs),
(590,1877,o),
(548,1833,o),
(548,1761,cs),
(548,1689,o),
(590,1645,o),
(648,1645,cs)
);
}
);
width = 1000;
}
);
},
{
glyphname = Edotaccent.left;
lastChange = "2024-12-31 02:25:17 +0000";
layers = (
{
layerId = "B3EB4CE9-FF8A-458C-8111-2882C1B7C642";
shapes = (
{
closed = 1;
nodes = (
(294,1460,l),
(138,1460,l),
(138,0,l),
(294,0,l)
);
},
{
closed = 1;
nodes = (
(227,164,l),
(227,0,l),
(786,0,l),
(786,164,l)
);
},
{
closed = 1;
nodes = (
(235,818,l),
(235,662,l),
(686,662,l),
(686,818,l)
);
},
{
closed = 1;
nodes = (
(786,1460,l),
(227,1460,l),
(227,1296,l),
(786,1296,l)
);
},
{
closed = 1;
nodes = (
(517,1645,o),
(558,1689,o),
(558,1761,cs),
(558,1833,o),
(517,1877,o),
(456,1877,cs),
(397,1877,o),
(356,1833,o),
(356,1761,cs),
(356,1689,o),
(397,1645,o),
(456,1645,cs)
);
}
);
width = 1000;
}
);
},
{
glyphname = Edotbelow.left;
lastChange = "2024-12-31 02:25:17 +0000";
layers = (
{
layerId = "B3EB4CE9-FF8A-458C-8111-2882C1B7C642";
shapes = (
{
closed = 1;
nodes = (
(294,1460,l),
(138,1460,l),
(138,0,l),
(294,0,l)
);
},
{
closed = 1;
nodes = (
(227,164,l),
(227,0,l),
(786,0,l),
(786,164,l)
);
},
{
closed = 1;
nodes = (
(235,818,l),
(235,662,l),
(686,662,l),
(686,818,l)
);
},
{
closed = 1;
nodes = (
(786,1460,l),
(227,1460,l),
(227,1296,l),
(786,1296,l)
);
},
{
closed = 1;
nodes = (
(525,-518,o),
(571,-469,o),
(571,-389,cs),
(571,-309,o),
(525,-261,o),
(458,-261,cs),
(392,-261,o),
(346,-309,o),
(346,-389,cs),
(346,-469,o),
(392,-518,o),
(458,-518,cs)
);
}
);
width = 1000;
}
);
},
{
glyphname = Egrave.left;
lastChange = "2024-12-31 02:25:17 +0000";
layers = (
{
layerId = "B3EB4CE9-FF8A-458C-8111-2882C1B7C642";
shapes = (
{
closed = 1;
nodes = (
(294,1460,l),
(138,1460,l),
(138,0,l),
(294,0,l)
);
},
{
closed = 1;
nodes = (
(227,164,l),
(227,0,l),
(786,0,l),
(786,164,l)
);
},
{
closed = 1;
nodes = (
(235,818,l),
(235,662,l),
(686,662,l),
(686,818,l)
);
},
{
closed = 1;
nodes = (
(786,1460,l),
(227,1460,l),
(227,1296,l),
(786,1296,l)
);
},
{
closed = 1;
nodes = (
(372,1876,l),
(211,1876,l),
(398,1639,l),
(526,1639,l)
);
}
);
width = 1000;
}
);
},
{
glyphname = Emacron.left;
lastChange = "2024-12-31 02:25:17 +0000";
layers = (
{
layerId = "B3EB4CE9-FF8A-458C-8111-2882C1B7C642";
shapes = (
{
closed = 1;
nodes = (
(294,1460,l),
(138,1460,l),
(138,0,l),
(294,0,l)
);
},
{
closed = 1;
nodes = (
(227,164,l),
(227,0,l),
(786,0,l),
(786,164,l)
);
},
{
closed = 1;
nodes = (
(235,818,l),
(235,662,l),
(686,662,l),
(686,818,l)
);
},
{
closed = 1;
nodes = (
(786,1460,l),
(227,1460,l),
(227,1296,l),
(786,1296,l)
);
},
{
closed = 1;
nodes = (
(231,1849,l),
(231,1718,l),
(686,1718,l),
(686,1849,l)
);
}
);
width = 1000;
}
);
},
{
glyphname = Eogonek.left;
lastChange = "2024-12-31 02:25:17 +0000";
layers = (
{
layerId = "B3EB4CE9-FF8A-458C-8111-2882C1B7C642";
shapes = (
{
closed = 1;
nodes = (
(294,1460,l),
(138,1460,l),
(138,0,l),
(294,0,l)
);
},
{
closed = 1;
nodes = (
(227,164,l),
(227,0,l),
(786,0,l),
(786,164,l)
);
},
{
closed = 1;
nodes = (
(235,818,l),
(235,662,l),
(686,662,l),
(686,818,l)
);
},
{
closed = 1;
nodes = (
(786,1460,l),
(227,1460,l),
(227,1296,l),
(786,1296,l)
);
},
{
closed = 1;
nodes = (
(598,-66,o),
(552,-149,o),
(552,-244,cs),
(552,-328,o),
(589,-413,o),
(733,-413,cs),
(786,-413,l),
(786,-280,l),
(761,-280,ls),
(703,-280,o),
(684,-248,o),
(684,-203,cs),
(684,-153,o),
(709,-88,o),
(786,0,c),
(688,35,l)
);
}
);
width = 1000;
}
);
},
{
glyphname = Etilde.left;
lastChange = "2024-12-31 02:25:17 +0000";
layers = (
{
layerId = "B3EB4CE9-FF8A-458C-8111-2882C1B7C642";
shapes = (
{
closed = 1;
nodes = (
(294,1460,l),
(138,1460,l),
(138,0,l),
(294,0,l)
);
},
{
closed = 1;
nodes = (
(227,164,l),
(227,0,l),
(786,0,l),
(786,164,l)
);
},
{
closed = 1;
nodes = (
(235,818,l),
(235,662,l),
(686,662,l),
(686,818,l)
);
},
{
closed = 1;
nodes = (
(786,1460,l),
(227,1460,l),
(227,1296,l),
(786,1296,l)
);
},
{
closed = 1;
nodes = (
(252,1897,o),
(193,1816,o),
(178,1672,c),
(281,1642,l),
(292,1723,o),
(322,1769,o),
(363,1769,cs),
(434,1769,o),
(467,1628,o),
(578,1628,cs),
(665,1628,o),
(724,1709,o),
(738,1852,c),
(636,1883,l),
(625,1801,o),
(596,1756,o),
(555,1756,cs),
(483,1756,o),
(449,1897,o),
(337,1897,cs)
);
}
);
width = 1000;
}
);
},
{
glyphname = F.left;
lastChange = "2024-12-31 02:25:17 +0000";
layers = (
{
layerId = "B3EB4CE9-FF8A-458C-8111-2882C1B7C642";
shapes = (
{
closed = 1;
nodes = (
(294,1460,l),
(138,1460,l),
(138,0,l),
(294,0,l)
);
},
{
closed = 1;
nodes = (
(239,780,l),
(239,621,l),
(651,621,l),
(651,780,l)
);
},
{
closed = 1;
nodes = (
(746,1460,l),
(231,1460,l),
(231,1292,l),
(746,1292,l)
);
}
);
width = 1000;
}
);
},
{
glyphname = I.left;
lastChange = "2024-12-31 02:25:17 +0000";
layers = (
{
layerId = "B3EB4CE9-FF8A-458C-8111-2882C1B7C642";
shapes = (
{
closed = 1;
nodes = (
(519,1460,l),
(363,1460,l),
(363,0,l),
(519,0,l)
);
},
{
closed = 1;
nodes = (
(133,1296,l),
(749,1296,l),
(749,1460,l),
(133,1460,l)
);
},
{
closed = 1;
nodes = (
(749,0,l),
(749,164,l),
(133,164,l),
(133,0,l)
);
}
);
width = 1000;
}
);
},
{
glyphname = Iacute.left;
lastChange = "2024-12-31 02:25:17 +0000";
layers = (
{
layerId = "B3EB4CE9-FF8A-458C-8111-2882C1B7C642";
shapes = (
{
closed = 1;
nodes = (
(519,1460,l),
(363,1460,l),
(363,0,l),
(519,0,l)
);
},
{
closed = 1;
nodes = (
(133,1296,l),
(749,1296,l),
(749,1460,l),
(133,1460,l)
);
},
{
closed = 1;
nodes = (
(749,0,l),
(749,164,l),
(133,164,l),
(133,0,l)
);
},
{
closed = 1;
nodes = (
(522,1873,l),
(679,1873,l),
(500,1639,l),
(375,1639,l)
);
}
);
width = 1000;
}
);
},
{
glyphname = Ibreve.left;
lastChange = "2024-12-31 02:25:17 +0000";
layers = (
{
layerId = "B3EB4CE9-FF8A-458C-8111-2882C1B7C642";
shapes = (
{
closed = 1;
nodes = (
(519,1460,l),
(363,1460,l),
(363,0,l),
(519,0,l)
);
},
{
closed = 1;
nodes = (
(133,1296,l),
(749,1296,l),
(749,1460,l),
(133,1460,l)
);
},
{
closed = 1;
nodes = (
(749,0,l),
(749,164,l),
(133,164,l),
(133,0,l)
);
},
{
closed = 1;
nodes = (
(219,1739,o),
(290,1629,o),
(441,1629,cs),
(592,1629,o),
(663,1739,o),
(653,1875,c),
(557,1875,l),
(557,1799,o),
(524,1730,o),
(441,1730,cs),
(358,1730,o),
(324,1799,o),
(324,1875,c),
(229,1875,l)
);
}
);
width = 1000;
}
);
},
{
glyphname = Icircumflex.left;
lastChange = "2024-12-31 02:25:17 +0000";
layers = (
{
layerId = "B3EB4CE9-FF8A-458C-8111-2882C1B7C642";
shapes = (
{
closed = 1;
nodes = (
(519,1460,l),
(363,1460,l),
(363,0,l),
(519,0,l)
);
},
{
closed = 1;
nodes = (
(133,1296,l),
(749,1296,l),
(749,1460,l),
(133,1460,l)
);
},
{
closed = 1;
nodes = (
(749,0,l),
(749,164,l),
(133,164,l),
(133,0,l)
);
},
{
closed = 1;
nodes = (
(323,1640,l),
(461,1834,l),
(423,1834,l),
(558,1640,l),
(695,1640,l),
(518,1875,l),
(365,1875,l),
(186,1640,l)
);
}
);
width = 1000;
}
);
},
{
glyphname = Idieresis.left;
lastChange = "2024-12-31 02:25:17 +0000";
layers = (
{
layerId = "B3EB4CE9-FF8A-458C-8111-2882C1B7C642";
shapes = (
{
closed = 1;
nodes = (
(520,1460,l),
(364,1460,l),
(364,0,l),
(520,0,l)
);
},
{
closed = 1;
nodes = (
(134,1296,l),
(750,1296,l),
(750,1460,l),
(134,1460,l)
);
},
{
closed = 1;
nodes = (
(750,0,l),
(750,164,l),
(134,164,l),
(134,0,l)
);
},
{
closed = 1;
nodes = (
(320,1643,o),
(360,1687,o),
(360,1759,cs),
(360,1831,o),
(320,1875,o),
(262,1875,cs),
(204,1875,o),
(164,1831,o),
(164,1759,cs),
(164,1687,o),
(204,1643,o),
(262,1643,cs)
);
},
{
closed = 1;
nodes = (
(680,1643,o),
(719,1687,o),
(719,1759,cs),
(719,1831,o),
(680,1875,o),
(622,1875,cs),
(563,1875,o),
(523,1831,o),
(523,1759,cs),
(523,1687,o),
(563,1643,o),
(622,1643,cs)
);
}
);
width = 1000;
}
);
},
{
glyphname = Idotaccent.left;
lastChange = "2024-12-31 02:25:17 +0000";
layers = (
{
layerId = "B3EB4CE9-FF8A-458C-8111-2882C1B7C642";
shapes = (
{
closed = 1;
nodes = (
(519,1460,l),
(363,1460,l),
(363,0,l),
(519,0,l)
);
},
{
closed = 1;
nodes = (
(133,1296,l),
(749,1296,l),
(749,1460,l),
(133,1460,l)
);
},
{
closed = 1;
nodes = (
(749,0,l),
(749,164,l),
(133,164,l),
(133,0,l)
);
},
{
closed = 1;
nodes = (
(499,1643,o),
(540,1687,o),
(540,1759,cs),
(540,1832,o),
(499,1875,o),
(439,1875,cs),
(379,1875,o),
(338,1832,o),
(338,1759,cs),
(338,1687,o),
(379,1643,o),
(439,1643,cs)
);
}
);
width = 1000;
}
);
},
{
glyphname = Idotbelow.left;
lastChange = "2024-12-31 02:25:17 +0000";
layers = (
{
layerId = "B3EB4CE9-FF8A-458C-8111-2882C1B7C642";
shapes = (
{
closed = 1;
nodes = (
(519,1460,l),
(363,1460,l),
(363,0,l),
(519,0,l)
);
},
{
closed = 1;
nodes = (
(133,1296,l),
(749,1296,l),
(749,1460,l),
(133,1460,l)
);
},
{
closed = 1;
nodes = (
(749,0,l),
(749,164,l),
(133,164,l),
(133,0,l)
);
},
{
closed = 1;
nodes = (
(507,-519,o),
(553,-470,o),
(553,-390,cs),
(553,-310,o),
(507,-262,o),
(440,-262,cs),
(374,-262,o),
(328,-310,o),
(328,-390,cs),
(328,-470,o),
(374,-519,o),
(440,-519,cs)
);
}
);
width = 1000;
}
);
},
{
glyphname = Igrave.left;
lastChange = "2024-12-31 02:25:17 +0000";
layers = (
{
layerId = "B3EB4CE9-FF8A-458C-8111-2882C1B7C642";
shapes = (
{
closed = 1;
nodes = (
(519,1460,l),
(363,1460,l),
(363,0,l),
(519,0,l)
);
},
{
closed = 1;
nodes = (
(133,1296,l),
(749,1296,l),
(749,1460,l),
(133,1460,l)
);
},
{
closed = 1;
nodes = (
(749,0,l),
(749,164,l),
(133,164,l),
(133,0,l)
);
},
{
closed = 1;
nodes = (
(361,1873,l),
(203,1873,l),
(382,1639,l),
(507,1639,l)
);
}
);
width = 1000;
}
);
},
{
glyphname = Imacron.left;
lastChange = "2024-12-31 02:25:17 +0000";
layers = (
{
layerId = "B3EB4CE9-FF8A-458C-8111-2882C1B7C642";
shapes = (
{
closed = 1;
nodes = (
(519,1460,l),
(363,1460,l),
(363,0,l),
(519,0,l)
);
},
{
closed = 1;
nodes = (
(133,1296,l),
(749,1296,l),
(749,1460,l),
(133,1460,l)
);
},
{
closed = 1;
nodes = (
(749,0,l),
(749,164,l),
(133,164,l),
(133,0,l)
);
},
{
closed = 1;
nodes = (
(230,1849,l),
(230,1718,l),
(652,1718,l),
(652,1849,l)
);
}
);
width = 1000;
}
);
},
{
glyphname = Iogonek.left;
lastChange = "2024-12-31 02:25:17 +0000";
layers = (
{
layerId = "B3EB4CE9-FF8A-458C-8111-2882C1B7C642";
shapes = (
{
closed = 1;
nodes = (
(519,1460,l),
(363,1460,l),
(363,0,l),
(519,0,l)
);
},
{
closed = 1;
nodes = (
(133,1296,l),
(749,1296,l),
(749,1460,l),
(133,1460,l)
);
},
{
closed = 1;
nodes = (
(749,0,l),
(749,164,l),
(133,164,l),
(133,0,l)
);
},
{
closed = 1;
nodes = (
(345,-65,o),
(301,-149,o),
(301,-243,cs),
(301,-328,o),
(338,-412,o),
(479,-412,cs),
(528,-412,l),
(528,-280,l),
(504,-280,ls),
(450,-280,o),
(432,-246,o),
(432,-202,cs),
(432,-153,o),
(456,-88,o),
(528,0,c),
(429,35,l)
);
}
);
width = 1000;
}
);
},
{
glyphname = Itilde.left;
lastChange = "2024-12-31 02:25:17 +0000";
layers = (
{
layerId = "B3EB4CE9-FF8A-458C-8111-2882C1B7C642";
shapes = (
{
closed = 1;
nodes = (
(522,1460,l),
(365,1460,l),
(365,0,l),
(522,0,l)
);
},
{
closed = 1;
nodes = (
(135,1296,l),
(752,1296,l),
(752,1460,l),
(135,1460,l)
);
},
{
closed = 1;
nodes = (
(752,0,l),
(752,164,l),
(135,164,l),
(135,0,l)
);
},
{
closed = 1;
nodes = (
(248,1897,o),
(190,1816,o),
(177,1672,c),
(278,1642,l),
(289,1722,o),
(317,1768,o),
(355,1768,cs),
(421,1768,o),
(452,1628,o),
(557,1628,cs),
(639,1628,o),
(696,1709,o),
(710,1852,c),
(608,1883,l),
(598,1802,o),
(571,1757,o),
(533,1757,cs),
(466,1757,o),
(434,1897,o),
(329,1897,cs)
);
}
);
width = 1000;
}
);
},
{
glyphname = L.left;
lastChange = "2024-12-31 02:25:17 +0000";
layers = (
{
layerId = "B3EB4CE9-FF8A-458C-8111-2882C1B7C642";
shapes = (
{
closed = 1;
nodes = (
(323,1460,l),
(167,1460,l),
(167,0,l),
(323,0,l)
);
},
{
closed = 1;
nodes = (
(248,164,l),
(248,0,l),
(782,0,l),
(782,164,l)
);
}
);
width = 1000;
}
);
},
{
glyphname = Lacute.left;
lastChange = "2024-12-31 02:25:17 +0000";
layers = (
{
layerId = "B3EB4CE9-FF8A-458C-8111-2882C1B7C642";
shapes = (
{
closed = 1;
nodes = (
(323,1460,l),
(167,1460,l),
(167,0,l),
(323,0,l)
);
},
{
closed = 1;
nodes = (
(247,164,l),
(247,0,l),
(782,0,l),
(782,164,l)
);
},
{
closed = 1;
nodes = (
(326,1873,l),
(483,1873,l),
(304,1639,l),
(179,1639,l)
);
}
);
width = 1000;
}
);
},
{
glyphname = Lcaron.left;
lastChange = "2024-12-31 02:25:17 +0000";
layers = (
{
layerId = "B3EB4CE9-FF8A-458C-8111-2882C1B7C642";
shapes = (
{
closed = 1;
nodes = (
(323,1460,l),
(167,1460,l),
(167,0,l),
(323,0,l)
);
},
{
closed = 1;
nodes = (
(248,164,l),
(248,0,l),
(782,0,l),
(782,164,l)
);
},
{
closed = 1;
nodes = (
(548,1222,l),
(581,1578,l),
(447,1578,l),
(433,1222,l)
);
}
);
width = 1000;
}
);
},
{
glyphname = Lcommaaccent.left;
lastChange = "2024-12-31 02:25:17 +0000";
layers = (
{
layerId = "B3EB4CE9-FF8A-458C-8111-2882C1B7C642";
shapes = (
{
closed = 1;
nodes = (
(323,1460,l),
(167,1460,l),
(167,0,l),
(323,0,l)
);
},
{
closed = 1;
nodes = (
(248,164,l),
(248,0,l),
(782,0,l),
(782,164,l)
);
},
{
closed = 1;
nodes = (
(458,-516,o),
(477,-511,o),
(497,-499,c),
(469,-469,l),
(456,-566,o),
(390,-623,o),
(314,-679,c),
(368,-760,l),
(468,-697,o),
(562,-584,o),
(562,-432,cs),
(562,-313,o),
(506,-258,o),
(437,-258,cs),
(373,-258,o),
(323,-305,o),
(323,-387,cs),
(323,-467,o),
(371,-516,o),
(439,-516,cs)
);
}
);
width = 1000;
}
);
},
{
glyphname = Lslash.left;
lastChange = "2024-12-31 02:25:17 +0000";
layers = (
{
layerId = "B3EB4CE9-FF8A-458C-8111-2882C1B7C642";
shapes = (
{
closed = 1;
nodes = (
(10,744,l),
(10,574,l),
(545,912,l),
(545,1082,l)
);
},
{
closed = 1;
nodes = (
(307,1460,l),
(152,1460,l),
(152,0,l),
(307,0,l)
);
},
{
closed = 1;
nodes = (
(232,164,l),
(232,0,l),
(767,0,l),
(767,164,l)
);
}
);
width = 1000;
}
);
},
{
glyphname = M.left;
lastChange = "2024-12-31 02:25:17 +0000";
layers = (
{
layerId = "B3EB4CE9-FF8A-458C-8111-2882C1B7C642";
shapes = (
{
closed = 1;
nodes = (
(21,0,l),
(150,0,l),
(150,1173,l),
(160,1173,l),
(420,404,l),
(481,404,l),
(741,1173,l),
(753,1173,l),
(753,0,l),
(886,0,l),
(886,1460,l),
(724,1460,l),
(461,702,l),
(452,702,l),
(190,1460,l),
(21,1460,l)
);
}
);
width = 1000;
}
);
},
{
glyphname = S.left;
lastChange = "2024-12-31 02:25:17 +0000";
layers = (
{
layerId = "B3EB4CE9-FF8A-458C-8111-2882C1B7C642";
shapes = (
{
closed = 1;
nodes = (
(832,1379,o),
(681,1484,o),
(492,1484,cs),
(261,1484,o),
(131,1350,o),
(131,1106,cs),
(131,870,o),
(263,773,o),
(429,666,cs),
(588,560,o),
(675,516,o),
(675,376,cs),
(675,234,o),
(608,141,o),
(461,141,cs),
(315,141,o),
(248,233,o),
(238,433,c),
(82,410,l),
(90,143,o),
(202,-24,o),
(456,-24,cs),
(711,-24,o),
(840,159,o),
(840,399,cs),
(840,632,o),
(705,718,o),
(511,840,cs),
(352,945,o),
(288,988,o),
(288,1120,cs),
(288,1247,o),
(345,1322,o),
(484,1322,cs),
(608,1322,o),
(673,1251,o),
(682,1073,c),
(835,1090,l)
);
}
);
width = 1000;
}
);
},
{
glyphname = Sacute.left;
lastChange = "2024-12-31 02:25:17 +0000";
layers = (
{
layerId = "B3EB4CE9-FF8A-458C-8111-2882C1B7C642";
shapes = (
{
closed = 1;
nodes = (
(832,1379,o),
(681,1484,o),
(492,1484,cs),
(261,1484,o),
(131,1350,o),
(131,1106,cs),
(131,870,o),
(263,773,o),
(429,666,cs),
(588,560,o),
(675,516,o),
(675,376,cs),
(675,234,o),
(608,141,o),
(461,141,cs),
(315,141,o),
(248,233,o),
(238,433,c),
(82,410,l),
(90,143,o),
(202,-24,o),
(456,-24,cs),
(711,-24,o),
(840,159,o),
(840,399,cs),
(840,632,o),
(705,718,o),
(511,840,cs),
(352,945,o),
(288,988,o),
(288,1120,cs),
(288,1247,o),
(345,1322,o),
(484,1322,cs),
(608,1322,o),
(673,1251,o),
(682,1073,c),
(835,1090,l)
);
},
{
closed = 1;
nodes = (
(550,1877,l),
(713,1877,l),
(521,1640,l),
(392,1640,l)
);
}
);
width = 1000;
}
);
},
{
glyphname = Scaron.left;
lastChange = "2024-12-31 02:25:17 +0000";
layers = (
{
layerId = "B3EB4CE9-FF8A-458C-8111-2882C1B7C642";
shapes = (
{
closed = 1;
nodes = (
(832,1379,o),
(681,1484,o),
(492,1484,cs),
(261,1484,o),
(131,1350,o),
(131,1106,cs),
(131,870,o),
(263,773,o),
(429,666,cs),
(588,560,o),
(675,516,o),
(675,376,cs),
(675,234,o),
(608,141,o),
(461,141,cs),
(315,141,o),
(248,233,o),
(238,433,c),
(82,410,l),
(90,143,o),
(202,-24,o),
(456,-24,cs),
(711,-24,o),
(840,159,o),
(840,399,cs),
(840,632,o),
(705,718,o),
(511,840,cs),
(352,945,o),
(288,988,o),
(288,1120,cs),
(288,1247,o),
(345,1322,o),
(484,1322,cs),
(608,1322,o),
(673,1251,o),
(682,1073,c),
(835,1090,l)
);
},
{
closed = 1;
nodes = (
(332,1878,l),
(481,1680,l),
(440,1680,l),
(590,1878,l),
(731,1878,l),
(540,1640,l),
(381,1640,l),
(190,1878,l)
);
}
);
width = 1000;
}
);
},
{
glyphname = Scedilla.left;
lastChange = "2024-12-31 02:25:17 +0000";
layers = (
{
layerId = "B3EB4CE9-FF8A-458C-8111-2882C1B7C642";
shapes = (
{
closed = 1;
nodes = (
(832,1379,o),
(681,1484,o),
(492,1484,cs),
(261,1484,o),
(131,1350,o),
(131,1106,cs),
(131,870,o),
(263,773,o),
(429,666,cs),
(588,560,o),
(675,516,o),
(675,376,cs),
(675,234,o),
(608,141,o),
(461,141,cs),
(315,141,o),
(248,233,o),
(238,433,c),
(82,410,l),
(90,143,o),
(202,-24,o),
(456,-24,cs),
(711,-24,o),
(840,159,o),
(840,399,cs),
(840,632,o),
(705,718,o),
(511,840,cs),
(352,945,o),
(288,988,o),
(288,1120,cs),
(288,1247,o),
(345,1322,o),
(484,1322,cs),
(608,1322,o),
(673,1251,o),
(682,1073,c),
(835,1090,l)
);
},
{
closed = 1;
nodes = (
(511,-216,l),
(508,48,l),
(411,48,l),
(411,-256,l),
(471,-265,o),
(511,-293,o),
(511,-368,cs),
(511,-430,o),
(486,-466,o),
(398,-466,cs),
(369,-466,l),
(369,-580,l),
(422,-580,ls),
(586,-580,o),
(629,-505,o),
(629,-380,cs),
(629,-244,o),
(577,-187,o),
(485,-165,c)
);
}
);
width = 1000;
}
);
},
{
glyphname = Scircumflex.left;
lastChange = "2024-12-31 02:25:17 +0000";
layers = (
{
layerId = "B3EB4CE9-FF8A-458C-8111-2882C1B7C642";
shapes = (
{
closed = 1;
nodes = (
(832,1379,o),
(681,1484,o),
(492,1484,cs),
(261,1484,o),
(131,1350,o),
(131,1106,cs),
(131,870,o),
(263,773,o),
(429,666,cs),
(588,560,o),
(675,516,o),
(675,376,cs),
(675,234,o),
(608,141,o),
(461,141,cs),
(315,141,o),
(248,233,o),
(238,433,c),
(82,410,l),
(90,143,o),
(202,-24,o),
(456,-24,cs),
(711,-24,o),
(840,159,o),
(840,399,cs),
(840,632,o),
(705,718,o),
(511,840,cs),
(352,945,o),
(288,988,o),
(288,1120,cs),
(288,1247,o),
(345,1322,o),
(484,1322,cs),
(608,1322,o),
(673,1251,o),
(682,1073,c),
(835,1090,l)
);
},
{
closed = 1;
nodes = (
(332,1640,l),
(481,1839,l),
(440,1839,l),
(590,1640,l),
(731,1640,l),
(540,1878,l),
(381,1878,l),
(190,1640,l)
);
}
);
width = 1000;
}
);
},
{
glyphname = Scommaaccent.left;
lastChange = "2024-12-31 02:25:17 +0000";
layers = (
{
layerId = "B3EB4CE9-FF8A-458C-8111-2882C1B7C642";
shapes = (
{
closed = 1;
nodes = (
(832,1379,o),
(681,1484,o),
(492,1484,cs),
(261,1484,o),
(131,1350,o),
(131,1106,cs),
(131,870,o),
(263,773,o),
(429,666,cs),
(588,560,o),
(675,516,o),
(675,376,cs),
(675,234,o),
(608,141,o),
(461,141,cs),
(315,141,o),
(248,233,o),
(238,433,c),
(82,410,l),
(90,143,o),
(202,-24,o),
(456,-24,cs),
(711,-24,o),
(840,159,o),
(840,399,cs),
(840,632,o),
(705,718,o),
(511,840,cs),
(352,945,o),
(288,988,o),
(288,1120,cs),
(288,1247,o),
(345,1322,o),
(484,1322,cs),
(608,1322,o),
(673,1251,o),
(682,1073,c),
(835,1090,l)
);
},
{
closed = 1;
nodes = (
(479,-516,o),
(499,-511,o),
(518,-499,c),
(490,-469,l),
(477,-566,o),
(411,-623,o),
(336,-679,c),
(389,-760,l),
(489,-697,o),
(584,-584,o),
(584,-432,cs),
(584,-313,o),
(527,-258,o),
(458,-258,cs),
(394,-258,o),
(345,-305,o),
(345,-387,cs),
(345,-467,o),
(393,-516,o),
(460,-516,cs)
);
}
);
width = 1000;
}
);
},
{
glyphname = T.left;
lastChange = "2024-12-31 02:25:17 +0000";
layers = (
{
layerId = "B3EB4CE9-FF8A-458C-8111-2882C1B7C642";
shapes = (
{
closed = 1;
nodes = (
(495,1460,l),
(340,1460,l),
(340,0,l),
(495,0,l)
);
},
{
closed = 1;
nodes = (
(904,1296,l),
(904,1460,l),
(-70,1460,l),
(-70,1296,l)
);
}
);
width = 1000;
}
);
},
{
glyphname = Tbar.left;
lastChange = "2024-12-31 02:25:17 +0000";
layers = (
{
layerId = "B3EB4CE9-FF8A-458C-8111-2882C1B7C642";
shapes = (
{
closed = 1;
nodes = (
(769,667,l),
(769,830,l),
(65,830,l),
(65,667,l)
);
},
{
closed = 1;
nodes = (
(495,1460,l),
(340,1460,l),
(340,0,l),
(495,0,l)
);
},
{
closed = 1;
nodes = (
(904,1296,l),
(904,1460,l),
(-70,1460,l),
(-70,1296,l)
);
}
);
width = 1000;
}
);
},
{
glyphname = Tcaron.left;
lastChange = "2024-12-31 02:25:17 +0000";
layers = (
{
layerId = "B3EB4CE9-FF8A-458C-8111-2882C1B7C642";
shapes = (
{
closed = 1;
nodes = (
(495,1460,l),
(340,1460,l),
(340,0,l),
(495,0,l)
);
},
{
closed = 1;
nodes = (
(904,1296,l),
(904,1460,l),
(-70,1460,l),
(-70,1296,l)
);
},
{
closed = 1;
nodes = (
(248,1889,l),
(442,1671,l),
(392,1671,l),
(586,1889,l),
(746,1889,l),
(508,1640,l),
(325,1640,l),
(88,1889,l)
);
}
);
width = 1000;
}
);
},
{
glyphname = Tcedilla.left;
lastChange = "2024-12-31 02:25:17 +0000";
layers = (
{
layerId = "B3EB4CE9-FF8A-458C-8111-2882C1B7C642";
shapes = (
{
closed = 1;
nodes = (
(495,1460,l),
(340,1460,l),
(340,0,l),
(495,0,l)
);
},
{
closed = 1;
nodes = (
(904,1296,l),
(904,1460,l),
(-70,1460,l),
(-70,1296,l)
);
},
{
closed = 1;
nodes = (
(467,-230,l),
(464,48,l),
(367,48,l),
(367,-271,l),
(479,-281,o),
(540,-312,o),
(540,-387,cs),
(540,-451,o),
(493,-490,o),
(359,-490,cs),
(294,-490,l),
(294,-613,l),
(370,-613,ls),
(594,-613,o),
(665,-536,o),
(665,-401,cs),
(665,-256,o),
(585,-198,o),
(446,-176,c)
);
}
);
width = 1000;
}
);
},
{
glyphname = Tcommaaccent.left;
lastChange = "2024-12-31 02:25:17 +0000";
layers = (
{
layerId = "B3EB4CE9-FF8A-458C-8111-2882C1B7C642";
shapes = (
{
closed = 1;
nodes = (
(495,1460,l),
(340,1460,l),
(340,0,l),
(495,0,l)
);
},
{
closed = 1;
nodes = (
(904,1296,l),
(904,1460,l),
(-70,1460,l),
(-70,1296,l)
);
},
{
closed = 1;
nodes = (
(436,-516,o),
(456,-511,o),
(475,-499,c),
(448,-469,l),
(434,-566,o),
(368,-623,o),
(292,-679,c),
(346,-760,l),
(446,-697,o),
(540,-584,o),
(540,-432,cs),
(540,-313,o),
(485,-258,o),
(415,-258,cs),
(352,-258,o),
(302,-305,o),
(302,-387,cs),
(302,-467,o),
(349,-516,o),
(417,-516,cs)
);
}
);
width = 1000;
}
);
},
{
glyphname = W.left;
lastChange = "2024-12-31 02:25:17 +0000";
layers = (
{
layerId = "B3EB4CE9-FF8A-458C-8111-2882C1B7C642";
shapes = (
{
closed = 1;
nodes = (
(149,0,l),
(280,0,l),
(453,923,l),
(465,923,l),
(631,0,l),
(769,0,l),
(975,1460,l),
(833,1460,l),
(687,388,l),
(675,388,l),
(525,1216,l),
(409,1216,l),
(252,388,l),
(240,388,l),
(94,1460,l),
(-56,1460,l)
);
}
);
width = 1000;
}
);
},
{
glyphname = Wacute.left;
lastChange = "2024-12-31 02:25:17 +0000";
layers = (
{
layerId = "B3EB4CE9-FF8A-458C-8111-2882C1B7C642";
shapes = (
{
closed = 1;
nodes = (
(149,0,l),
(280,0,l),
(453,923,l),
(465,923,l),
(631,0,l),
(769,0,l),
(975,1460,l),
(833,1460,l),
(687,388,l),
(675,388,l),
(525,1216,l),
(409,1216,l),
(252,388,l),
(240,388,l),
(94,1460,l),
(-56,1460,l)
);
},
{
closed = 1;
nodes = (
(569,1887,l),
(744,1887,l),
(525,1640,l),
(386,1640,l)
);
}
);
width = 1000;
}
);
},
{
glyphname = Wcircumflex.left;
lastChange = "2024-12-31 02:25:17 +0000";
layers = (
{
layerId = "B3EB4CE9-FF8A-458C-8111-2882C1B7C642";
shapes = (
{
closed = 1;
nodes = (
(149,0,l),
(280,0,l),
(453,923,l),
(465,923,l),
(631,0,l),
(769,0,l),
(975,1460,l),
(833,1460,l),
(687,388,l),
(675,388,l),
(525,1216,l),
(409,1216,l),
(252,388,l),
(240,388,l),
(94,1460,l),
(-56,1460,l)
);
},
{
closed = 1;
nodes = (
(306,1640,l),
(482,1851,l),
(436,1851,l),
(614,1640,l),
(767,1640,l),
(547,1885,l),
(372,1885,l),
(152,1640,l)
);
}
);
width = 1000;
}
);
},
{
glyphname = Wdieresis.left;
lastChange = "2024-12-31 02:25:17 +0000";
layers = (
{
layerId = "B3EB4CE9-FF8A-458C-8111-2882C1B7C642";
shapes = (
{
closed = 1;
nodes = (
(149,0,l),
(280,0,l),
(453,923,l),
(465,923,l),
(631,0,l),
(769,0,l),
(975,1460,l),
(833,1460,l),
(687,388,l),
(675,388,l),
(525,1216,l),
(409,1216,l),
(252,388,l),
(240,388,l),
(94,1460,l),
(-56,1460,l)
);
},
{
closed = 1;
nodes = (
(292,1652,o),
(333,1696,o),
(333,1768,cs),
(333,1840,o),
(292,1883,o),
(234,1883,cs),
(175,1883,o),
(134,1840,o),
(134,1768,cs),
(134,1696,o),
(175,1652,o),
(234,1652,cs)
);
},
{
closed = 1;
nodes = (
(746,1652,o),
(786,1696,o),
(786,1768,cs),
(786,1840,o),
(746,1883,o),
(687,1883,cs),
(628,1883,o),
(587,1840,o),
(587,1768,cs),
(587,1696,o),
(628,1652,o),
(687,1652,cs)
);
}
);
width = 1000;
}
);
},
{
glyphname = Wgrave.left;
lastChange = "2024-12-31 02:25:17 +0000";
layers = (
{
layerId = "B3EB4CE9-FF8A-458C-8111-2882C1B7C642";
shapes = (
{
closed = 1;
nodes = (
(149,0,l),
(280,0,l),
(453,923,l),
(465,923,l),
(631,0,l),
(769,0,l),
(975,1460,l),
(833,1460,l),
(687,388,l),
(675,388,l),
(525,1216,l),
(409,1216,l),
(252,388,l),
(240,388,l),
(94,1460,l),
(-56,1460,l)
);
},
{
closed = 1;
nodes = (
(350,1887,l),
(175,1887,l),
(394,1640,l),
(533,1640,l)
);
}
);
width = 1000;
}
);
},
{
glyphname = E.right;
lastChange = "2024-12-31 02:25:17 +0000";
layers = (
{
layerId = "B3EB4CE9-FF8A-458C-8111-2882C1B7C642";
shapes = (
{
closed = 1;
nodes = (
(376,1460,l),
(219,1460,l),
(219,0,l),
(376,0,l)
);
},
{
closed = 1;
nodes = (
(308,164,l),
(308,0,l),
(867,0,l),
(867,164,l)
);
},
{
closed = 1;
nodes = (
(316,818,l),
(316,662,l),
(768,662,l),
(768,818,l)
);
},
{
closed = 1;
nodes = (
(867,1460,l),
(308,1460,l),
(308,1296,l),
(867,1296,l)
);
}
);
width = 1000;
}
);
},
{
glyphname = Eacute.right;
lastChange = "2024-12-31 02:25:17 +0000";
layers = (
{
layerId = "B3EB4CE9-FF8A-458C-8111-2882C1B7C642";
shapes = (
{
closed = 1;
nodes = (
(376,1460,l),
(219,1460,l),
(219,0,l),
(376,0,l)
);
},
{
closed = 1;
nodes = (
(308,164,l),
(308,0,l),
(867,0,l),
(867,164,l)
);
},
{
closed = 1;
nodes = (
(316,818,l),
(316,662,l),
(768,662,l),
(768,818,l)
);
},
{
closed = 1;
nodes = (
(867,1460,l),
(308,1460,l),
(308,1296,l),
(867,1296,l)
);
},
{
closed = 1;
nodes = (
(627,1876,l),
(787,1876,l),
(600,1639,l),
(473,1639,l)
);
}
);
width = 1000;
}
);
},
{
glyphname = Ebreve.right;
lastChange = "2024-12-31 02:25:17 +0000";
layers = (
{
layerId = "B3EB4CE9-FF8A-458C-8111-2882C1B7C642";
shapes = (
{
closed = 1;
nodes = (
(376,1460,l),
(219,1460,l),
(219,0,l),
(376,0,l)
);
},
{
closed = 1;
nodes = (
(308,164,l),
(308,0,l),
(867,0,l),
(867,164,l)
);
},
{
closed = 1;
nodes = (
(316,818,l),
(316,662,l),
(768,662,l),
(768,818,l)
);
},
{
closed = 1;
nodes = (
(867,1460,l),
(308,1460,l),
(308,1296,l),
(867,1296,l)
);
},
{
closed = 1;
nodes = (
(310,1735,o),
(385,1629,o),
(540,1629,cs),
(696,1629,o),
(771,1735,o),
(761,1877,c),
(664,1877,l),
(664,1798,o),
(629,1731,o),
(540,1731,cs),
(452,1731,o),
(416,1798,o),
(416,1877,c),
(319,1877,l)
);
}
);
width = 1000;
}
);
},
{
glyphname = Ecaron.right;
lastChange = "2024-12-31 02:25:17 +0000";
layers = (
{
layerId = "B3EB4CE9-FF8A-458C-8111-2882C1B7C642";
shapes = (
{
closed = 1;
nodes = (
(376,1460,l),
(219,1460,l),
(219,0,l),
(376,0,l)
);
},
{
closed = 1;
nodes = (
(308,164,l),
(308,0,l),
(867,0,l),
(867,164,l)
);
},
{
closed = 1;
nodes = (
(316,818,l),
(316,662,l),
(768,662,l),
(768,818,l)
);
},
{
closed = 1;
nodes = (
(867,1460,l),
(308,1460,l),
(308,1296,l),
(867,1296,l)
);
},
{
closed = 1;
nodes = (
(415,1877,l),
(561,1680,l),
(520,1680,l),
(665,1877,l),
(805,1877,l),
(619,1640,l),
(461,1640,l),
(275,1877,l)
);
}
);
width = 1000;
}
);
},
{
glyphname = Ecircumflex.right;
lastChange = "2024-12-31 02:25:17 +0000";
layers = (
{
layerId = "B3EB4CE9-FF8A-458C-8111-2882C1B7C642";
shapes = (
{
closed = 1;
nodes = (
(376,1460,l),
(219,1460,l),
(219,0,l),
(376,0,l)
);
},
{
closed = 1;
nodes = (
(308,164,l),
(308,0,l),
(867,0,l),
(867,164,l)
);
},
{
closed = 1;
nodes = (
(316,818,l),
(316,662,l),
(768,662,l),
(768,818,l)
);
},
{
closed = 1;
nodes = (
(867,1460,l),
(308,1460,l),
(308,1296,l),
(867,1296,l)
);
},
{
closed = 1;
nodes = (
(415,1640,l),
(561,1837,l),
(520,1837,l),
(665,1640,l),
(805,1640,l),
(619,1877,l),
(461,1877,l),
(275,1640,l)
);
}
);
width = 1000;
}
);
},
{
glyphname = Edieresis.right;
lastChange = "2024-12-31 02:25:17 +0000";
layers = (
{
layerId = "B3EB4CE9-FF8A-458C-8111-2882C1B7C642";
shapes = (
{
closed = 1;
nodes = (
(376,1460,l),
(219,1460,l),
(219,0,l),
(376,0,l)
);
},
{
closed = 1;
nodes = (
(308,164,l),
(308,0,l),
(867,0,l),
(867,164,l)
);
},
{
closed = 1;
nodes = (
(316,818,l),
(316,662,l),
(768,662,l),
(768,818,l)
);
},
{
closed = 1;
nodes = (
(867,1460,l),
(308,1460,l),
(308,1296,l),
(867,1296,l)
);
},
{
closed = 1;
nodes = (
(409,1645,o),
(449,1689,o),
(449,1761,cs),
(449,1833,o),
(409,1877,o),
(351,1877,cs),
(293,1877,o),
(252,1833,o),
(252,1761,cs),
(252,1689,o),
(293,1645,o),
(351,1645,cs)
);
},
{
closed = 1;
nodes = (
(787,1645,o),
(827,1689,o),
(827,1761,cs),
(827,1833,o),
(787,1877,o),
(729,1877,cs),
(670,1877,o),
(631,1833,o),
(631,1761,cs),
(631,1689,o),
(670,1645,o),
(729,1645,cs)
);
}
);
width = 1000;
}
);
},
{
glyphname = Edotaccent.right;
lastChange = "2024-12-31 02:25:17 +0000";
layers = (
{
layerId = "B3EB4CE9-FF8A-458C-8111-2882C1B7C642";
shapes = (
{
closed = 1;
nodes = (
(376,1460,l),
(219,1460,l),
(219,0,l),
(376,0,l)
);
},
{
closed = 1;
nodes = (
(308,164,l),
(308,0,l),
(867,0,l),
(867,164,l)
);
},
{
closed = 1;
nodes = (
(316,818,l),
(316,662,l),
(768,662,l),
(768,818,l)
);
},
{
closed = 1;
nodes = (
(867,1460,l),
(308,1460,l),
(308,1296,l),
(867,1296,l)
);
},
{
closed = 1;
nodes = (
(598,1645,o),
(640,1689,o),
(640,1761,cs),
(640,1833,o),
(598,1877,o),
(539,1877,cs),
(479,1877,o),
(437,1833,o),
(437,1761,cs),
(437,1689,o),
(479,1645,o),
(539,1645,cs)
);
}
);
width = 1000;
}
);
},
{
glyphname = Edotbelow.right;
lastChange = "2024-12-31 02:25:17 +0000";
layers = (
{
layerId = "B3EB4CE9-FF8A-458C-8111-2882C1B7C642";
shapes = (
{
closed = 1;
nodes = (
(376,1460,l),
(219,1460,l),
(219,0,l),
(376,0,l)
);
},
{
closed = 1;
nodes = (
(308,164,l),
(308,0,l),
(867,0,l),
(867,164,l)
);
},
{
closed = 1;
nodes = (
(316,818,l),
(316,662,l),
(768,662,l),
(768,818,l)
);
},
{
closed = 1;
nodes = (
(867,1460,l),
(308,1460,l),
(308,1296,l),
(867,1296,l)
);
},
{
closed = 1;
nodes = (
(606,-518,o),
(652,-469,o),
(652,-389,cs),
(652,-309,o),
(606,-261,o),
(540,-261,cs),
(473,-261,o),
(427,-309,o),
(427,-389,cs),
(427,-469,o),
(473,-518,o),
(540,-518,cs)
);
}
);
width = 1000;
}
);
},
{
glyphname = Egrave.right;
lastChange = "2024-12-31 02:25:17 +0000";
layers = (
{
layerId = "B3EB4CE9-FF8A-458C-8111-2882C1B7C642";
shapes = (
{
closed = 1;
nodes = (
(376,1460,l),
(219,1460,l),
(219,0,l),
(376,0,l)
);
},
{
closed = 1;
nodes = (
(308,164,l),
(308,0,l),
(867,0,l),
(867,164,l)
);
},
{
closed = 1;
nodes = (
(316,818,l),
(316,662,l),
(768,662,l),
(768,818,l)
);
},
{
closed = 1;
nodes = (
(867,1460,l),
(308,1460,l),
(308,1296,l),
(867,1296,l)
);
},
{
closed = 1;
nodes = (
(454,1876,l),
(293,1876,l),
(480,1639,l),
(608,1639,l)
);
}
);
width = 1000;
}
);
},
{
glyphname = Emacron.right;
lastChange = "2024-12-31 02:25:17 +0000";
layers = (
{
layerId = "B3EB4CE9-FF8A-458C-8111-2882C1B7C642";
shapes = (
{
closed = 1;
nodes = (
(376,1460,l),
(219,1460,l),
(219,0,l),
(376,0,l)
);
},
{
closed = 1;
nodes = (
(308,164,l),
(308,0,l),
(867,0,l),
(867,164,l)
);
},
{
closed = 1;
nodes = (
(316,818,l),
(316,662,l),
(768,662,l),
(768,818,l)
);
},
{
closed = 1;
nodes = (
(867,1460,l),
(308,1460,l),
(308,1296,l),
(867,1296,l)
);
},
{
closed = 1;
nodes = (
(313,1849,l),
(313,1718,l),
(767,1718,l),
(767,1849,l)
);
}
);
width = 1000;
}
);
},
{
glyphname = Eogonek.right;
lastChange = "2024-12-31 02:25:17 +0000";
layers = (
{
layerId = "B3EB4CE9-FF8A-458C-8111-2882C1B7C642";
shapes = (
{
closed = 1;
nodes = (
(376,1460,l),
(219,1460,l),
(219,0,l),
(376,0,l)
);
},
{
closed = 1;
nodes = (
(308,164,l),
(308,0,l),
(867,0,l),
(867,164,l)
);
},
{
closed = 1;
nodes = (
(316,818,l),
(316,662,l),
(768,662,l),
(768,818,l)
);
},
{
closed = 1;
nodes = (
(867,1460,l),
(308,1460,l),
(308,1296,l),
(867,1296,l)
);
},
{
closed = 1;
nodes = (
(680,-66,o),
(633,-149,o),
(633,-244,cs),
(633,-328,o),
(671,-413,o),
(815,-413,cs),
(867,-413,l),
(867,-280,l),
(844,-280,ls),
(785,-280,o),
(765,-248,o),
(765,-203,cs),
(765,-153,o),
(791,-88,o),
(867,0,c),
(769,35,l)
);
}
);
width = 1000;
}
);
},
{
glyphname = Etilde.right;
lastChange = "2024-12-31 02:25:17 +0000";
layers = (
{
layerId = "B3EB4CE9-FF8A-458C-8111-2882C1B7C642";
shapes = (
{
closed = 1;
nodes = (
(376,1460,l),
(219,1460,l),
(219,0,l),
(376,0,l)
);
},
{
closed = 1;
nodes = (
(308,164,l),
(308,0,l),
(867,0,l),
(867,164,l)
);
},
{
closed = 1;
nodes = (
(316,818,l),
(316,662,l),
(768,662,l),
(768,818,l)
);
},
{
closed = 1;
nodes = (
(867,1460,l),
(308,1460,l),
(308,1296,l),
(867,1296,l)
);
},
{
closed = 1;
nodes = (
(333,1897,o),
(274,1816,o),
(260,1672,c),
(362,1642,l),
(373,1723,o),
(403,1769,o),
(444,1769,cs),
(516,1769,o),
(548,1628,o),
(661,1628,cs),
(746,1628,o),
(806,1709,o),
(820,1852,c),
(718,1883,l),
(706,1801,o),
(677,1756,o),
(636,1756,cs),
(565,1756,o),
(531,1897,o),
(419,1897,cs)
);
}
);
width = 1000;
}
);
},
{
glyphname = F.right;
lastChange = "2024-12-31 02:25:17 +0000";
layers = (
{
layerId = "B3EB4CE9-FF8A-458C-8111-2882C1B7C642";
shapes = (
{
closed = 1;
nodes = (
(414,1460,l),
(257,1460,l),
(257,0,l),
(414,0,l)
);
},
{
closed = 1;
nodes = (
(359,780,l),
(359,621,l),
(771,621,l),
(771,780,l)
);
},
{
closed = 1;
nodes = (
(865,1460,l),
(351,1460,l),
(351,1292,l),
(865,1292,l)
);
}
);
width = 1000;
}
);
},
{
glyphname = I.right;
lastChange = "2024-12-31 02:25:17 +0000";
layers = (
{
layerId = "B3EB4CE9-FF8A-458C-8111-2882C1B7C642";
shapes = (
{
closed = 1;
nodes = (
(638,1460,l),
(481,1460,l),
(481,0,l),
(638,0,l)
);
},
{
closed = 1;
nodes = (
(252,1296,l),
(867,1296,l),
(867,1460,l),
(252,1460,l)
);
},
{
closed = 1;
nodes = (
(867,0,l),
(867,164,l),
(252,164,l),
(252,0,l)
);
}
);
width = 1000;
}
);
},
{
glyphname = Iacute.right;
lastChange = "2024-12-31 02:25:17 +0000";
layers = (
{
layerId = "B3EB4CE9-FF8A-458C-8111-2882C1B7C642";
shapes = (
{
closed = 1;
nodes = (
(638,1460,l),
(481,1460,l),
(481,0,l),
(638,0,l)
);
},
{
closed = 1;
nodes = (
(252,1296,l),
(867,1296,l),
(867,1460,l),
(252,1460,l)
);
},
{
closed = 1;
nodes = (
(867,0,l),
(867,164,l),
(252,164,l),
(252,0,l)
);
},
{
closed = 1;
nodes = (
(640,1873,l),
(797,1873,l),
(618,1639,l),
(493,1639,l)
);
}
);
width = 1000;
}
);
},
{
glyphname = Ibreve.right;
lastChange = "2024-12-31 02:25:17 +0000";
layers = (
{
layerId = "B3EB4CE9-FF8A-458C-8111-2882C1B7C642";
shapes = (
{
closed = 1;
nodes = (
(638,1460,l),
(481,1460,l),
(481,0,l),
(638,0,l)
);
},
{
closed = 1;
nodes = (
(252,1296,l),
(867,1296,l),
(867,1460,l),
(252,1460,l)
);
},
{
closed = 1;
nodes = (
(867,0,l),
(867,164,l),
(252,164,l),
(252,0,l)
);
},
{
closed = 1;
nodes = (
(337,1739,o),
(408,1629,o),
(559,1629,cs),
(711,1629,o),
(781,1739,o),
(771,1875,c),
(676,1875,l),
(676,1799,o),
(643,1730,o),
(559,1730,cs),
(477,1730,o),
(443,1799,o),
(443,1875,c),
(348,1875,l)
);
}
);
width = 1000;
}
);
},
{
glyphname = Icircumflex.right;
lastChange = "2024-12-31 02:25:17 +0000";
layers = (
{
layerId = "B3EB4CE9-FF8A-458C-8111-2882C1B7C642";
shapes = (
{
closed = 1;
nodes = (
(638,1460,l),
(481,1460,l),
(481,0,l),
(638,0,l)
);
},
{
closed = 1;
nodes = (
(252,1296,l),
(867,1296,l),
(867,1460,l),
(252,1460,l)
);
},
{
closed = 1;
nodes = (
(867,0,l),
(867,164,l),
(252,164,l),
(252,0,l)
);
},
{
closed = 1;
nodes = (
(442,1640,l),
(578,1834,l),
(540,1834,l),
(677,1640,l),
(814,1640,l),
(636,1875,l),
(483,1875,l),
(305,1640,l)
);
}
);
width = 1000;
}
);
},
{
glyphname = Idieresis.right;
lastChange = "2024-12-31 02:25:17 +0000";
layers = (
{
layerId = "B3EB4CE9-FF8A-458C-8111-2882C1B7C642";
shapes = (
{
closed = 1;
nodes = (
(639,1460,l),
(482,1460,l),
(482,0,l),
(639,0,l)
);
},
{
closed = 1;
nodes = (
(252,1296,l),
(869,1296,l),
(869,1460,l),
(252,1460,l)
);
},
{
closed = 1;
nodes = (
(869,0,l),
(869,164,l),
(252,164,l),
(252,0,l)
);
},
{
closed = 1;
nodes = (
(438,1643,o),
(478,1687,o),
(478,1759,cs),
(478,1831,o),
(438,1875,o),
(381,1875,cs),
(322,1875,o),
(282,1831,o),
(282,1759,cs),
(282,1687,o),
(322,1643,o),
(381,1643,cs)
);
},
{
closed = 1;
nodes = (
(798,1643,o),
(838,1687,o),
(838,1759,cs),
(838,1831,o),
(798,1875,o),
(740,1875,cs),
(681,1875,o),
(641,1831,o),
(641,1759,cs),
(641,1687,o),
(681,1643,o),
(740,1643,cs)
);
}
);
width = 1000;
}
);
},
{
glyphname = Idotaccent.right;
lastChange = "2024-12-31 02:25:17 +0000";
layers = (
{
layerId = "B3EB4CE9-FF8A-458C-8111-2882C1B7C642";
shapes = (
{
closed = 1;
nodes = (
(638,1460,l),
(481,1460,l),
(481,0,l),
(638,0,l)
);
},
{
closed = 1;
nodes = (
(252,1296,l),
(867,1296,l),
(867,1460,l),
(252,1460,l)
);
},
{
closed = 1;
nodes = (
(867,0,l),
(867,164,l),
(252,164,l),
(252,0,l)
);
},
{
closed = 1;
nodes = (
(618,1643,o),
(659,1687,o),
(659,1759,cs),
(659,1832,o),
(618,1875,o),
(557,1875,cs),
(498,1875,o),
(456,1832,o),
(456,1759,cs),
(456,1687,o),
(498,1643,o),
(557,1643,cs)
);
}
);
width = 1000;
}
);
},
{
glyphname = Idotbelow.right;
lastChange = "2024-12-31 02:25:17 +0000";
layers = (
{
layerId = "B3EB4CE9-FF8A-458C-8111-2882C1B7C642";
shapes = (
{
closed = 1;
nodes = (
(638,1460,l),
(481,1460,l),
(481,0,l),
(638,0,l)
);
},
{
closed = 1;
nodes = (
(252,1296,l),
(867,1296,l),
(867,1460,l),
(252,1460,l)
);
},
{
closed = 1;
nodes = (
(867,0,l),
(867,164,l),
(252,164,l),
(252,0,l)
);
},
{
closed = 1;
nodes = (
(626,-519,o),
(672,-470,o),
(672,-390,cs),
(672,-310,o),
(626,-262,o),
(559,-262,cs),
(493,-262,o),
(447,-310,o),
(447,-390,cs),
(447,-470,o),
(493,-519,o),
(559,-519,cs)
);
}
);
width = 1000;
}
);
},
{
glyphname = Igrave.right;
lastChange = "2024-12-31 02:25:17 +0000";
layers = (
{
layerId = "B3EB4CE9-FF8A-458C-8111-2882C1B7C642";
shapes = (
{
closed = 1;
nodes = (
(638,1460,l),
(481,1460,l),
(481,0,l),
(638,0,l)
);
},
{
closed = 1;
nodes = (
(252,1296,l),
(867,1296,l),
(867,1460,l),
(252,1460,l)
);
},
{
closed = 1;
nodes = (
(867,0,l),
(867,164,l),
(252,164,l),
(252,0,l)
);
},
{
closed = 1;
nodes = (
(479,1873,l),
(321,1873,l),
(501,1639,l),
(626,1639,l)
);
}
);
width = 1000;
}
);
},
{
glyphname = Imacron.right;
lastChange = "2024-12-31 02:25:17 +0000";
layers = (
{
layerId = "B3EB4CE9-FF8A-458C-8111-2882C1B7C642";
shapes = (
{
closed = 1;
nodes = (
(638,1460,l),
(481,1460,l),
(481,0,l),
(638,0,l)
);
},
{
closed = 1;
nodes = (
(252,1296,l),
(867,1296,l),
(867,1460,l),
(252,1460,l)
);
},
{
closed = 1;
nodes = (
(867,0,l),
(867,164,l),
(252,164,l),
(252,0,l)
);
},
{
closed = 1;
nodes = (
(348,1849,l),
(348,1718,l),
(770,1718,l),
(770,1849,l)
);
}
);
width = 1000;
}
);
},
{
glyphname = Iogonek.right;
lastChange = "2024-12-31 02:25:17 +0000";
layers = (
{
layerId = "B3EB4CE9-FF8A-458C-8111-2882C1B7C642";
shapes = (
{
closed = 1;
nodes = (
(638,1460,l),
(481,1460,l),
(481,0,l),
(638,0,l)
);
},
{
closed = 1;
nodes = (
(252,1296,l),
(867,1296,l),
(867,1460,l),
(252,1460,l)
);
},
{
closed = 1;
nodes = (
(867,0,l),
(867,164,l),
(252,164,l),
(252,0,l)
);
},
{
closed = 1;
nodes = (
(463,-65,o),
(419,-149,o),
(419,-243,cs),
(419,-328,o),
(456,-412,o),
(597,-412,cs),
(646,-412,l),
(646,-280,l),
(623,-280,ls),
(569,-280,o),
(550,-246,o),
(550,-202,cs),
(550,-153,o),
(573,-88,o),
(646,0,c),
(547,35,l)
);
}
);
width = 1000;
}
);
},
{
glyphname = Itilde.right;
lastChange = "2024-12-31 02:25:17 +0000";
layers = (
{
layerId = "B3EB4CE9-FF8A-458C-8111-2882C1B7C642";
shapes = (
{
closed = 1;
nodes = (
(640,1460,l),
(484,1460,l),
(484,0,l),
(640,0,l)
);
},
{
closed = 1;
nodes = (
(254,1296,l),
(869,1296,l),
(869,1460,l),
(254,1460,l)
);
},
{
closed = 1;
nodes = (
(869,0,l),
(869,164,l),
(254,164,l),
(254,0,l)
);
},
{
closed = 1;
nodes = (
(366,1897,o),
(309,1816,o),
(295,1672,c),
(397,1642,l),
(407,1722,o),
(435,1768,o),
(473,1768,cs),
(540,1768,o),
(570,1628,o),
(675,1628,cs),
(756,1628,o),
(814,1709,o),
(827,1852,c),
(727,1883,l),
(716,1802,o),
(689,1757,o),
(651,1757,cs),
(585,1757,o),
(552,1897,o),
(448,1897,cs)
);
}
);
width = 1000;
}
);
},
{
glyphname = L.right;
lastChange = "2024-12-31 02:25:17 +0000";
layers = (
{
layerId = "B3EB4CE9-FF8A-458C-8111-2882C1B7C642";
shapes = (
{
closed = 1;
nodes = (
(435,1460,l),
(278,1460,l),
(278,0,l),
(435,0,l)
);
},
{
closed = 1;
nodes = (
(359,164,l),
(359,0,l),
(894,0,l),
(894,164,l)
);
}
);
width = 1000;
}
);
},
{
glyphname = Lacute.right;
lastChange = "2024-12-31 02:25:17 +0000";
layers = (
{
layerId = "B3EB4CE9-FF8A-458C-8111-2882C1B7C642";
shapes = (
{
closed = 1;
nodes = (
(436,1460,l),
(280,1460,l),
(280,0,l),
(436,0,l)
);
},
{
closed = 1;
nodes = (
(361,164,l),
(361,0,l),
(895,0,l),
(895,164,l)
);
},
{
closed = 1;
nodes = (
(438,1873,l),
(596,1873,l),
(417,1639,l),
(291,1639,l)
);
}
);
width = 1000;
}
);
},
{
glyphname = Lcaron.right;
lastChange = "2024-12-31 02:25:17 +0000";
layers = (
{
layerId = "B3EB4CE9-FF8A-458C-8111-2882C1B7C642";
shapes = (
{
closed = 1;
nodes = (
(435,1460,l),
(278,1460,l),
(278,0,l),
(435,0,l)
);
},
{
closed = 1;
nodes = (
(359,164,l),
(359,0,l),
(894,0,l),
(894,164,l)
);
},
{
closed = 1;
nodes = (
(659,1222,l),
(692,1578,l),
(557,1578,l),
(544,1222,l)
);
}
);
width = 1000;
}
);
},
{
glyphname = Lcommaaccent.right;
lastChange = "2024-12-31 02:25:17 +0000";
layers = (
{
layerId = "B3EB4CE9-FF8A-458C-8111-2882C1B7C642";
shapes = (
{
closed = 1;
nodes = (
(435,1460,l),
(278,1460,l),
(278,0,l),
(435,0,l)
);
},
{
closed = 1;
nodes = (
(359,164,l),
(359,0,l),
(894,0,l),
(894,164,l)
);
},
{
closed = 1;
nodes = (
(569,-516,o),
(589,-511,o),
(608,-499,c),
(581,-469,l),
(567,-566,o),
(501,-623,o),
(425,-679,c),
(478,-760,l),
(578,-697,o),
(673,-584,o),
(673,-432,cs),
(673,-313,o),
(617,-258,o),
(548,-258,cs),
(484,-258,o),
(435,-305,o),
(435,-387,cs),
(435,-467,o),
(482,-516,o),
(550,-516,cs)
);
}
);
width = 1000;
}
);
},
{
glyphname = Lslash.right;
lastChange = "2024-12-31 02:25:17 +0000";
layers = (
{
layerId = "B3EB4CE9-FF8A-458C-8111-2882C1B7C642";
shapes = (
{
closed = 1;
nodes = (
(138,744,l),
(138,574,l),
(673,912,l),
(673,1082,l)
);
},
{
closed = 1;
nodes = (
(435,1460,l),
(278,1460,l),
(278,0,l),
(435,0,l)
);
},
{
closed = 1;
nodes = (
(359,164,l),
(359,0,l),
(894,0,l),
(894,164,l)
);
}
);
width = 1000;
}
);
},
{
glyphname = M.right;
lastChange = "2024-12-31 02:25:17 +0000";
layers = (
{
layerId = "B3EB4CE9-FF8A-458C-8111-2882C1B7C642";
shapes = (
{
closed = 1;
nodes = (
(115,0,l),
(244,0,l),
(244,1173,l),
(253,1173,l),
(514,404,l),
(575,404,l),
(835,1173,l),
(847,1173,l),
(847,0,l),
(978,0,l),
(978,1460,l),
(818,1460,l),
(555,702,l),
(545,702,l),
(282,1460,l),
(115,1460,l)
);
}
);
width = 1000;
}
);
},
{
glyphname = S.right;
lastChange = "2024-12-31 02:25:17 +0000";
layers = (
{
layerId = "B3EB4CE9-FF8A-458C-8111-2882C1B7C642";
shapes = (
{
closed = 1;
nodes = (
(910,1379,o),
(761,1484,o),
(571,1484,cs),
(340,1484,o),
(210,1350,o),
(210,1106,cs),
(210,870,o),
(342,773,o),
(507,666,cs),
(666,560,o),
(754,516,o),
(754,376,cs),
(754,234,o),
(686,141,o),
(540,141,cs),
(394,141,o),
(327,233,o),
(316,433,c),
(160,410,l),
(169,143,o),
(281,-24,o),
(535,-24,cs),
(790,-24,o),
(918,159,o),
(918,399,cs),
(918,632,o),
(784,718,o),
(590,840,cs),
(431,945,o),
(367,988,o),
(367,1120,cs),
(367,1247,o),
(424,1322,o),
(563,1322,cs),
(686,1322,o),
(752,1251,o),
(761,1073,c),
(914,1090,l)
);
}
);
width = 1000;
}
);
},
{
glyphname = Sacute.right;
lastChange = "2024-12-31 02:25:17 +0000";
layers = (
{
layerId = "B3EB4CE9-FF8A-458C-8111-2882C1B7C642";
shapes = (
{
closed = 1;
nodes = (
(910,1379,o),
(761,1484,o),
(571,1484,cs),
(340,1484,o),
(210,1350,o),
(210,1106,cs),
(210,870,o),
(342,773,o),
(507,666,cs),
(666,560,o),
(754,516,o),
(754,376,cs),
(754,234,o),
(686,141,o),
(540,141,cs),
(394,141,o),
(327,233,o),
(316,433,c),
(160,410,l),
(169,143,o),
(281,-24,o),
(535,-24,cs),
(790,-24,o),
(918,159,o),
(918,399,cs),
(918,632,o),
(784,718,o),
(590,840,cs),
(431,945,o),
(367,988,o),
(367,1120,cs),
(367,1247,o),
(424,1322,o),
(563,1322,cs),
(686,1322,o),
(752,1251,o),
(761,1073,c),
(914,1090,l)
);
},
{
closed = 1;
nodes = (
(628,1877,l),
(791,1877,l),
(600,1640,l),
(471,1640,l)
);
}
);
width = 1000;
}
);
},
{
glyphname = Scaron.right;
lastChange = "2024-12-31 02:25:17 +0000";
layers = (
{
layerId = "B3EB4CE9-FF8A-458C-8111-2882C1B7C642";
shapes = (
{
closed = 1;
nodes = (
(910,1379,o),
(761,1484,o),
(571,1484,cs),
(340,1484,o),
(210,1350,o),
(210,1106,cs),
(210,870,o),
(342,773,o),
(507,666,cs),
(666,560,o),
(754,516,o),
(754,376,cs),
(754,234,o),
(686,141,o),
(540,141,cs),
(394,141,o),
(327,233,o),
(316,433,c),
(160,410,l),
(169,143,o),
(281,-24,o),
(535,-24,cs),
(790,-24,o),
(918,159,o),
(918,399,cs),
(918,632,o),
(784,718,o),
(590,840,cs),
(431,945,o),
(367,988,o),
(367,1120,cs),
(367,1247,o),
(424,1322,o),
(563,1322,cs),
(686,1322,o),
(752,1251,o),
(761,1073,c),
(914,1090,l)
);
},
{
closed = 1;
nodes = (
(411,1878,l),
(560,1680,l),
(519,1680,l),
(668,1878,l),
(810,1878,l),
(619,1640,l),
(460,1640,l),
(269,1878,l)
);
}
);
width = 1000;
}
);
},
{
glyphname = Scedilla.right;
lastChange = "2024-12-31 02:25:17 +0000";
layers = (
{
layerId = "B3EB4CE9-FF8A-458C-8111-2882C1B7C642";
shapes = (
{
closed = 1;
nodes = (
(910,1379,o),
(761,1484,o),
(571,1484,cs),
(340,1484,o),
(210,1350,o),
(210,1106,cs),
(210,870,o),
(342,773,o),
(507,666,cs),
(666,560,o),
(754,516,o),
(754,376,cs),
(754,234,o),
(686,141,o),
(540,141,cs),
(394,141,o),
(327,233,o),
(316,433,c),
(160,410,l),
(169,143,o),
(281,-24,o),
(535,-24,cs),
(790,-24,o),
(918,159,o),
(918,399,cs),
(918,632,o),
(784,718,o),
(590,840,cs),
(431,945,o),
(367,988,o),
(367,1120,cs),
(367,1247,o),
(424,1322,o),
(563,1322,cs),
(686,1322,o),
(752,1251,o),
(761,1073,c),
(914,1090,l)
);
},
{
closed = 1;
nodes = (
(590,-216,l),
(586,48,l),
(490,48,l),
(490,-256,l),
(549,-265,o),
(590,-293,o),
(590,-368,cs),
(590,-430,o),
(564,-466,o),
(477,-466,cs),
(448,-466,l),
(448,-580,l),
(500,-580,ls),
(665,-580,o),
(708,-505,o),
(708,-380,cs),
(708,-244,o),
(656,-187,o),
(564,-165,c)
);
}
);
width = 1000;
}
);
},
{
glyphname = Scircumflex.right;
lastChange = "2024-12-31 02:25:17 +0000";
layers = (
{
layerId = "B3EB4CE9-FF8A-458C-8111-2882C1B7C642";
shapes = (
{
closed = 1;
nodes = (
(910,1379,o),
(761,1484,o),
(571,1484,cs),
(340,1484,o),
(210,1350,o),
(210,1106,cs),
(210,870,o),
(342,773,o),
(507,666,cs),
(666,560,o),
(754,516,o),
(754,376,cs),
(754,234,o),
(686,141,o),
(540,141,cs),
(394,141,o),
(327,233,o),
(316,433,c),
(160,410,l),
(169,143,o),
(281,-24,o),
(535,-24,cs),
(790,-24,o),
(918,159,o),
(918,399,cs),
(918,632,o),
(784,718,o),
(590,840,cs),
(431,945,o),
(367,988,o),
(367,1120,cs),
(367,1247,o),
(424,1322,o),
(563,1322,cs),
(686,1322,o),
(752,1251,o),
(761,1073,c),
(914,1090,l)
);
},
{
closed = 1;
nodes = (
(411,1640,l),
(560,1839,l),
(519,1839,l),
(668,1640,l),
(810,1640,l),
(619,1878,l),
(460,1878,l),
(269,1640,l)
);
}
);
width = 1000;
}
);
},
{
glyphname = Scommaaccent.right;
lastChange = "2024-12-31 02:25:17 +0000";
layers = (
{
layerId = "B3EB4CE9-FF8A-458C-8111-2882C1B7C642";
shapes = (
{
closed = 1;
nodes = (
(910,1379,o),
(761,1484,o),
(571,1484,cs),
(340,1484,o),
(210,1350,o),
(210,1106,cs),
(210,870,o),
(342,773,o),
(507,666,cs),
(666,560,o),
(754,516,o),
(754,376,cs),
(754,234,o),
(686,141,o),
(540,141,cs),
(394,141,o),
(327,233,o),
(316,433,c),
(160,410,l),
(169,143,o),
(281,-24,o),
(535,-24,cs),
(790,-24,o),
(918,159,o),
(918,399,cs),
(918,632,o),
(784,718,o),
(590,840,cs),
(431,945,o),
(367,988,o),
(367,1120,cs),
(367,1247,o),
(424,1322,o),
(563,1322,cs),
(686,1322,o),
(752,1251,o),
(761,1073,c),
(914,1090,l)
);
},
{
closed = 1;
nodes = (
(558,-516,o),
(577,-511,o),
(597,-499,c),
(569,-469,l),
(556,-566,o),
(490,-623,o),
(414,-679,c),
(467,-760,l),
(567,-697,o),
(662,-584,o),
(662,-432,cs),
(662,-313,o),
(606,-258,o),
(537,-258,cs),
(473,-258,o),
(423,-305,o),
(423,-387,cs),
(423,-467,o),
(471,-516,o),
(539,-516,cs)
);
}
);
width = 1000;
}
);
},
{
glyphname = T.right;
lastChange = "2024-12-31 02:25:17 +0000";
layers = (
{
layerId = "B3EB4CE9-FF8A-458C-8111-2882C1B7C642";
shapes = (
{
closed = 1;
nodes = (
(661,1460,l),
(506,1460,l),
(506,0,l),
(661,0,l)
);
},
{
closed = 1;
nodes = (
(1071,1296,l),
(1071,1460,l),
(96,1460,l),
(96,1296,l)
);
}
);
width = 1000;
}
);
},
{
glyphname = Tbar.right;
lastChange = "2024-12-31 02:25:17 +0000";
layers = (
{
layerId = "B3EB4CE9-FF8A-458C-8111-2882C1B7C642";
shapes = (
{
closed = 1;
nodes = (
(936,667,l),
(936,830,l),
(231,830,l),
(231,667,l)
);
},
{
closed = 1;
nodes = (
(661,1460,l),
(506,1460,l),
(506,0,l),
(661,0,l)
);
},
{
closed = 1;
nodes = (
(1071,1296,l),
(1071,1460,l),
(96,1460,l),
(96,1296,l)
);
}
);
width = 1000;
}
);
},
{
glyphname = Tcaron.right;
lastChange = "2024-12-31 02:25:17 +0000";
layers = (
{
layerId = "B3EB4CE9-FF8A-458C-8111-2882C1B7C642";
shapes = (
{
closed = 1;
nodes = (
(661,1460,l),
(506,1460,l),
(506,0,l),
(661,0,l)
);
},
{
closed = 1;
nodes = (
(1071,1296,l),
(1071,1460,l),
(96,1460,l),
(96,1296,l)
);
},
{
closed = 1;
nodes = (
(415,1889,l),
(608,1671,l),
(558,1671,l),
(752,1889,l),
(913,1889,l),
(675,1640,l),
(492,1640,l),
(254,1889,l)
);
}
);
width = 1000;
}
);
},
{
glyphname = Tcedilla.right;
lastChange = "2024-12-31 02:25:17 +0000";
layers = (
{
layerId = "B3EB4CE9-FF8A-458C-8111-2882C1B7C642";
shapes = (
{
closed = 1;
nodes = (
(661,1460,l),
(506,1460,l),
(506,0,l),
(661,0,l)
);
},
{
closed = 1;
nodes = (
(1071,1296,l),
(1071,1460,l),
(96,1460,l),
(96,1296,l)
);
},
{
closed = 1;
nodes = (
(634,-230,l),
(631,48,l),
(534,48,l),
(534,-271,l),
(645,-281,o),
(706,-312,o),
(706,-387,cs),
(706,-451,o),
(659,-490,o),
(525,-490,cs),
(460,-490,l),
(460,-613,l),
(537,-613,ls),
(761,-613,o),
(832,-536,o),
(832,-401,cs),
(832,-256,o),
(752,-198,o),
(612,-176,c)
);
}
);
width = 1000;
}
);
},
{
glyphname = Tcommaaccent.right;
lastChange = "2024-12-31 02:25:17 +0000";
layers = (
{
layerId = "B3EB4CE9-FF8A-458C-8111-2882C1B7C642";
shapes = (
{
closed = 1;
nodes = (
(661,1460,l),
(506,1460,l),
(506,0,l),
(661,0,l)
);
},
{
closed = 1;
nodes = (
(1071,1296,l),
(1071,1460,l),
(96,1460,l),
(96,1296,l)
);
},
{
closed = 1;
nodes = (
(602,-516,o),
(622,-511,o),
(641,-499,c),
(614,-469,l),
(600,-566,o),
(534,-623,o),
(458,-679,c),
(512,-760,l),
(612,-697,o),
(706,-584,o),
(706,-432,cs),
(706,-313,o),
(651,-258,o),
(581,-258,cs),
(518,-258,o),
(468,-305,o),
(468,-387,cs),
(468,-467,o),
(515,-516,o),
(583,-516,cs)
);
}
);
width = 1000;
}
);
},
{
glyphname = W.right;
lastChange = "2024-12-31 02:25:17 +0000";
layers = (
{
layerId = "B3EB4CE9-FF8A-458C-8111-2882C1B7C642";
shapes = (
{
closed = 1;
nodes = (
(231,0,l),
(361,0,l),
(535,923,l),
(545,923,l),
(712,0,l),
(851,0,l),
(1057,1460,l),
(914,1460,l),
(768,388,l),
(756,388,l),
(606,1216,l),
(490,1216,l),
(334,388,l),
(321,388,l),
(174,1460,l),
(25,1460,l)
);
}
);
width = 1000;
}
);
},
{
glyphname = Wacute.right;
lastChange = "2024-12-31 02:25:17 +0000";
layers = (
{
layerId = "B3EB4CE9-FF8A-458C-8111-2882C1B7C642";
shapes = (
{
closed = 1;
nodes = (
(231,0,l),
(361,0,l),
(535,923,l),
(545,923,l),
(712,0,l),
(851,0,l),
(1057,1460,l),
(914,1460,l),
(768,388,l),
(756,388,l),
(606,1216,l),
(490,1216,l),
(334,388,l),
(321,388,l),
(174,1460,l),
(25,1460,l)
);
},
{
closed = 1;
nodes = (
(650,1887,l),
(825,1887,l),
(606,1640,l),
(467,1640,l)
);
}
);
width = 1000;
}
);
},
{
glyphname = Wcircumflex.right;
lastChange = "2024-12-31 02:25:17 +0000";
layers = (
{
layerId = "B3EB4CE9-FF8A-458C-8111-2882C1B7C642";
shapes = (
{
closed = 1;
nodes = (
(231,0,l),
(361,0,l),
(535,923,l),
(545,923,l),
(712,0,l),
(851,0,l),
(1057,1460,l),
(914,1460,l),
(768,388,l),
(756,388,l),
(606,1216,l),
(490,1216,l),
(334,388,l),
(321,388,l),
(174,1460,l),
(25,1460,l)
);
},
{
closed = 1;
nodes = (
(387,1640,l),
(564,1851,l),
(518,1851,l),
(695,1640,l),
(848,1640,l),
(628,1885,l),
(453,1885,l),
(233,1640,l)
);
}
);
width = 1000;
}
);
},
{
glyphname = Wdieresis.right;
lastChange = "2024-12-31 02:25:17 +0000";
layers = (
{
layerId = "B3EB4CE9-FF8A-458C-8111-2882C1B7C642";
shapes = (
{
closed = 1;
nodes = (
(231,0,l),
(361,0,l),
(535,923,l),
(545,923,l),
(712,0,l),
(851,0,l),
(1057,1460,l),
(914,1460,l),
(768,388,l),
(756,388,l),
(606,1216,l),
(490,1216,l),
(334,388,l),
(321,388,l),
(174,1460,l),
(25,1460,l)
);
},
{
closed = 1;
nodes = (
(373,1652,o),
(415,1696,o),
(415,1768,cs),
(415,1840,o),
(373,1883,o),
(315,1883,cs),
(256,1883,o),
(215,1840,o),
(215,1768,cs),
(215,1696,o),
(256,1652,o),
(315,1652,cs)
);
},
{
closed = 1;
nodes = (
(827,1652,o),
(868,1696,o),
(868,1768,cs),
(868,1840,o),
(827,1883,o),
(769,1883,cs),
(710,1883,o),
(669,1840,o),
(669,1768,cs),
(669,1696,o),
(710,1652,o),
(769,1652,cs)
);
}
);
width = 1000;
}
);
},
{
glyphname = Wgrave.right;
lastChange = "2024-12-31 02:25:17 +0000";
layers = (
{
layerId = "B3EB4CE9-FF8A-458C-8111-2882C1B7C642";
shapes = (
{
closed = 1;
nodes = (
(231,0,l),
(361,0,l),
(535,923,l),
(545,923,l),
(712,0,l),
(851,0,l),
(1057,1460,l),
(914,1460,l),
(768,388,l),
(756,388,l),
(606,1216,l),
(490,1216,l),
(334,388,l),
(321,388,l),
(174,1460,l),
(25,1460,l)
);
},
{
closed = 1;
nodes = (
(431,1887,l),
(256,1887,l),
(475,1640,l),
(615,1640,l)
);
}
);
width = 1000;
}
);
},
{
glyphname = a;
lastChange = "2025-01-03 01:26:25 +0000";
layers = (
{
layerId = "B3EB4CE9-FF8A-458C-8111-2882C1B7C642";
shapes = (
{
closed = 1;
nodes = (
(848,758,ls),
(848,956,o),
(748,1050,o),
(521,1050,cs),
(393,1050,o),
(265,1017,o),
(165,977,c),
(138,792,l),
(275,855,o),
(404,885,o),
(521,885,cs),
(619,885,o),
(692,842,o),
(692,718,cs),
(692,0,l),
(848,0,l)
);
},
{
closed = 1;
nodes = (
(707,599,l),
(491,594,o),
(109,551,o),
(109,256,cs),
(109,101,o),
(202,-24,o),
(379,-24,cs),
(456,-24,o),
(568,3,o),
(678,87,c),
(714,87,l),
(705,208,l),
(611,150,o),
(508,120,o),
(436,120,cs),
(327,120,o),
(264,191,o),
(264,289,cs),
(264,349,o),
(285,399,o),
(369,429,cs),
(461,462,o),
(615,463,o),
(709,461,c)
);
}
);
width = 1000;
}
);
unicode = 97;
},
{
glyphname = aacute;
lastChange = "2024-12-31 02:25:17 +0000";
layers = (
{
layerId = "B3EB4CE9-FF8A-458C-8111-2882C1B7C642";
shapes = (
{
closed = 1;
nodes = (
(233,1051,o),
(135,927,o),
(135,751,cs),
(135,697,l),
(278,697,l),
(278,741,ls),
(280,878,o),
(360,915,o),
(465,916,cs),
(574,917,o),
(649,880,o),
(649,715,cs),
(649,173,l),
(657,156,l),
(657,61,o),
(686,-20,o),
(797,-20,cs),
(827,-20,o),
(862,-14,o),
(900,0,c),
(900,138,l),
(824,124,o),
(802,143,o),
(802,217,cs),
(802,726,ls),
(802,968,o),
(683,1051,o),
(481,1051,cs)
);
},
{
closed = 1;
nodes = (
(668,575,l),
(379,579,o),
(107,546,o),
(107,253,cs),
(107,78,o),
(205,-24,o),
(358,-24,cs),
(492,-24,o),
(577,53,o),
(644,128,c),
(673,128,l),
(669,241,l),
(595,170,o),
(523,119,o),
(427,119,cs),
(327,119,o),
(267,174,o),
(267,276,cs),
(267,417,o),
(382,469,o),
(573,469,cs),
(615,469,o),
(665,463,o),
(709,456,c)
);
},
{
closed = 1;
nodes = (
(598,1612,l),
(766,1612,l),
(563,1274,l),
(429,1274,l)
);
}
);
width = 1000;
}
);
unicode = 225;
},
{
glyphname = abreve;
lastChange = "2024-12-31 02:25:17 +0000";
layers = (
{
layerId = "B3EB4CE9-FF8A-458C-8111-2882C1B7C642";
shapes = (
{
closed = 1;
nodes = (
(233,1051,o),
(135,927,o),
(135,751,cs),
(135,697,l),
(278,697,l),
(278,741,ls),
(280,878,o),
(360,915,o),
(465,916,cs),
(574,917,o),
(649,880,o),
(649,715,cs),
(649,173,l),
(657,156,l),
(657,61,o),
(686,-20,o),
(797,-20,cs),
(827,-20,o),
(862,-14,o),
(900,0,c),
(900,138,l),
(824,124,o),
(802,143,o),
(802,217,cs),
(802,726,ls),
(802,968,o),
(683,1051,o),
(481,1051,cs)
);
},
{
closed = 1;
nodes = (
(668,575,l),
(379,579,o),
(107,546,o),
(107,253,cs),
(107,78,o),
(205,-24,o),
(358,-24,cs),
(492,-24,o),
(577,53,o),
(644,128,c),
(673,128,l),
(669,241,l),
(595,170,o),
(523,119,o),
(427,119,cs),
(327,119,o),
(267,174,o),
(267,276,cs),
(267,417,o),
(382,469,o),
(573,469,cs),
(615,469,o),
(665,463,o),
(709,456,c)
);
},
{
closed = 1;
nodes = (
(252,1389,o),
(335,1266,o),
(500,1266,cs),
(665,1266,o),
(748,1389,o),
(740,1612,c),
(639,1612,l),
(639,1476,o),
(599,1396,o),
(500,1396,cs),
(401,1396,o),
(361,1476,o),
(361,1612,c),
(260,1612,l)
);
}
);
width = 1000;
}
);
unicode = 259;
},
{
glyphname = acircumflex;
lastChange = "2024-12-31 02:25:17 +0000";
layers = (
{
layerId = "B3EB4CE9-FF8A-458C-8111-2882C1B7C642";
shapes = (
{
closed = 1;
nodes = (
(233,1051,o),
(135,927,o),
(135,751,cs),
(135,697,l),
(278,697,l),
(278,741,ls),
(280,878,o),
(360,915,o),
(465,916,cs),
(574,917,o),
(649,880,o),
(649,715,cs),
(649,173,l),
(657,156,l),
(657,61,o),
(686,-20,o),
(797,-20,cs),
(827,-20,o),
(862,-14,o),
(900,0,c),
(900,138,l),
(824,124,o),
(802,143,o),
(802,217,cs),
(802,726,ls),
(802,968,o),
(683,1051,o),
(481,1051,cs)
);
},
{
closed = 1;
nodes = (
(668,575,l),
(379,579,o),
(107,546,o),
(107,253,cs),
(107,78,o),
(205,-24,o),
(358,-24,cs),
(492,-24,o),
(577,53,o),
(644,128,c),
(673,128,l),
(669,241,l),
(595,170,o),
(523,119,o),
(427,119,cs),
(327,119,o),
(267,174,o),
(267,276,cs),
(267,417,o),
(382,469,o),
(573,469,cs),
(615,469,o),
(665,463,o),
(709,456,c)
);
},
{
closed = 1;
nodes = (
(352,1274,l),
(524,1572,l),
(476,1572,l),
(648,1274,l),
(786,1274,l),
(577,1612,l),
(423,1612,l),
(214,1274,l)
);
}
);
width = 1000;
}
);
unicode = 226;
},
{
glyphname = adieresis;
lastChange = "2024-12-31 02:25:17 +0000";
layers = (
{
layerId = "B3EB4CE9-FF8A-458C-8111-2882C1B7C642";
shapes = (
{
closed = 1;
nodes = (
(233,1051,o),
(135,927,o),
(135,751,cs),
(135,697,l),
(278,697,l),
(278,741,ls),
(280,878,o),
(360,915,o),
(465,916,cs),
(574,917,o),
(649,880,o),
(649,715,cs),
(649,173,l),
(657,156,l),
(657,61,o),
(686,-20,o),
(797,-20,cs),
(827,-20,o),
(862,-14,o),
(900,0,c),
(900,138,l),
(824,124,o),
(802,143,o),
(802,217,cs),
(802,726,ls),
(802,968,o),
(683,1051,o),
(481,1051,cs)
);
},
{
closed = 1;
nodes = (
(668,575,l),
(379,579,o),
(107,546,o),
(107,253,cs),
(107,78,o),
(205,-24,o),
(358,-24,cs),
(492,-24,o),
(577,53,o),
(644,128,c),
(673,128,l),
(669,241,l),
(595,170,o),
(523,119,o),
(427,119,cs),
(327,119,o),
(267,174,o),
(267,276,cs),
(267,417,o),
(382,469,o),
(573,469,cs),
(615,469,o),
(665,463,o),
(709,456,c)
);
},
{
closed = 1;
nodes = (
(354,1284,o),
(397,1333,o),
(397,1413,cs),
(397,1493,o),
(354,1541,o),
(292,1541,cs),
(231,1541,o),
(188,1493,o),
(188,1413,cs),
(188,1333,o),
(231,1284,o),
(292,1284,cs)
);
},
{
closed = 1;
nodes = (
(769,1284,o),
(812,1333,o),
(812,1413,cs),
(812,1493,o),
(769,1541,o),
(708,1541,cs),
(646,1541,o),
(603,1493,o),
(603,1413,cs),
(603,1333,o),
(646,1284,o),
(708,1284,cs)
);
}
);
width = 1000;
}
);
unicode = 228;
},
{
glyphname = agrave;
lastChange = "2024-12-31 02:25:17 +0000";
layers = (
{
layerId = "B3EB4CE9-FF8A-458C-8111-2882C1B7C642";
shapes = (
{
closed = 1;
nodes = (
(233,1051,o),
(135,927,o),
(135,751,cs),
(135,697,l),
(278,697,l),
(278,741,ls),
(280,878,o),
(360,915,o),
(465,916,cs),
(574,917,o),
(649,880,o),
(649,715,cs),
(649,173,l),
(657,156,l),
(657,61,o),
(686,-20,o),
(797,-20,cs),
(827,-20,o),
(862,-14,o),
(900,0,c),
(900,138,l),
(824,124,o),
(802,143,o),
(802,217,cs),
(802,726,ls),
(802,968,o),
(683,1051,o),
(481,1051,cs)
);
},
{
closed = 1;
nodes = (
(668,575,l),
(379,579,o),
(107,546,o),
(107,253,cs),
(107,78,o),
(205,-24,o),
(358,-24,cs),
(492,-24,o),
(577,53,o),
(644,128,c),
(673,128,l),
(669,241,l),
(595,170,o),
(523,119,o),
(427,119,cs),
(327,119,o),
(267,174,o),
(267,276,cs),
(267,417,o),
(382,469,o),
(573,469,cs),
(615,469,o),
(665,463,o),
(709,456,c)
);
},
{
closed = 1;
nodes = (
(402,1612,l),
(234,1612,l),
(437,1274,l),
(571,1274,l)
);
}
);
width = 1000;
}
);
unicode = 224;
},
{
glyphname = amacron;
lastChange = "2024-12-31 02:25:17 +0000";
layers = (
{
layerId = "B3EB4CE9-FF8A-458C-8111-2882C1B7C642";
shapes = (
{
closed = 1;
nodes = (
(233,1051,o),
(135,927,o),
(135,751,cs),
(135,697,l),
(278,697,l),
(278,741,ls),
(280,878,o),
(360,915,o),
(465,916,cs),
(574,917,o),
(649,880,o),
(649,715,cs),
(649,173,l),
(657,156,l),
(657,61,o),
(686,-20,o),
(797,-20,cs),
(827,-20,o),
(862,-14,o),
(900,0,c),
(900,138,l),
(824,124,o),
(802,143,o),
(802,217,cs),
(802,726,ls),
(802,968,o),
(683,1051,o),
(481,1051,cs)
);
},
{
closed = 1;
nodes = (
(668,575,l),
(379,579,o),
(107,546,o),
(107,253,cs),
(107,78,o),
(205,-24,o),
(358,-24,cs),
(492,-24,o),
(577,53,o),
(644,128,c),
(673,128,l),
(669,241,l),
(595,170,o),
(523,119,o),
(427,119,cs),
(327,119,o),
(267,174,o),
(267,276,cs),
(267,417,o),
(382,469,o),
(573,469,cs),
(615,469,o),
(665,463,o),
(709,456,c)
);
},
{
closed = 1;
nodes = (
(241,1457,l),
(241,1326,l),
(759,1326,l),
(759,1457,l)
);
}
);
width = 1000;
}
);
unicode = 257;
},
{
glyphname = aogonek;
lastChange = "2024-12-31 02:25:17 +0000";
layers = (
{
layerId = "B3EB4CE9-FF8A-458C-8111-2882C1B7C642";
shapes = (
{
closed = 1;
nodes = (
(233,1051,o),
(135,927,o),
(135,751,cs),
(135,697,l),
(278,697,l),
(278,741,ls),
(280,878,o),
(360,915,o),
(465,916,cs),
(574,917,o),
(649,880,o),
(649,715,cs),
(649,173,l),
(657,156,l),
(657,61,o),
(686,-20,o),
(797,-20,cs),
(827,-20,o),
(862,-14,o),
(900,0,c),
(900,138,l),
(824,124,o),
(802,143,o),
(802,217,cs),
(802,726,ls),
(802,968,o),
(683,1051,o),
(481,1051,cs)
);
},
{
closed = 1;
nodes = (
(668,575,l),
(379,579,o),
(107,546,o),
(107,253,cs),
(107,78,o),
(205,-24,o),
(358,-24,cs),
(492,-24,o),
(577,53,o),
(644,128,c),
(673,128,l),
(669,241,l),
(595,170,o),
(523,119,o),
(427,119,cs),
(327,119,o),
(267,174,o),
(267,276,cs),
(267,417,o),
(382,469,o),
(573,469,cs),
(615,469,o),
(665,463,o),
(709,456,c)
);
},
{
closed = 1;
nodes = (
(702,-67,o),
(652,-150,o),
(652,-247,cs),
(652,-331,o),
(690,-414,o),
(841,-414,cs),
(900,-414,l),
(900,-282,l),
(877,-282,ls),
(810,-282,o),
(786,-252,o),
(786,-206,cs),
(786,-153,o),
(816,-88,o),
(900,0,c),
(806,37,l)
);
}
);
width = 1000;
}
);
unicode = 261;
},
{
glyphname = aring;
lastChange = "2024-12-31 02:25:17 +0000";
layers = (
{
layerId = "B3EB4CE9-FF8A-458C-8111-2882C1B7C642";
shapes = (
{
closed = 1;
nodes = (
(233,1051,o),
(135,927,o),
(135,751,cs),
(135,697,l),
(278,697,l),
(278,741,ls),
(280,878,o),
(360,915,o),
(465,916,cs),
(574,917,o),
(649,880,o),
(649,715,cs),
(649,173,l),
(657,156,l),
(657,61,o),
(686,-20,o),
(797,-20,cs),
(827,-20,o),
(862,-14,o),
(900,0,c),
(900,138,l),
(824,124,o),
(802,143,o),
(802,217,cs),
(802,726,ls),
(802,968,o),
(683,1051,o),
(481,1051,cs)
);
},
{
closed = 1;
nodes = (
(668,575,l),
(379,579,o),
(107,546,o),
(107,253,cs),
(107,78,o),
(205,-24,o),
(358,-24,cs),
(492,-24,o),
(577,53,o),
(644,128,c),
(673,128,l),
(669,241,l),
(595,170,o),
(523,119,o),
(427,119,cs),
(327,119,o),
(267,174,o),
(267,276,cs),
(267,417,o),
(382,469,o),
(573,469,cs),
(615,469,o),
(665,463,o),
(709,456,c)
);
},
{
closed = 1;
nodes = (
(607,1213,o),
(683,1312,o),
(683,1447,cs),
(683,1581,o),
(607,1679,o),
(500,1679,cs),
(393,1679,o),
(317,1581,o),
(317,1447,cs),
(317,1312,o),
(393,1213,o),
(500,1213,cs)
);
},
{
closed = 1;
nodes = (
(435,1310,o),
(393,1369,o),
(393,1447,cs),
(393,1525,o),
(435,1582,o),
(500,1582,cs),
(565,1582,o),
(606,1525,o),
(606,1447,cs),
(606,1369,o),
(565,1310,o),
(500,1310,cs)
);
}
);
width = 1000;
}
);
unicode = 229;
},
{
glyphname = atilde;
lastChange = "2024-12-31 02:25:17 +0000";
layers = (
{
layerId = "B3EB4CE9-FF8A-458C-8111-2882C1B7C642";
shapes = (
{
closed = 1;
nodes = (
(233,1051,o),
(135,927,o),
(135,751,cs),
(135,697,l),
(278,697,l),
(278,741,ls),
(280,878,o),
(360,915,o),
(465,916,cs),
(574,917,o),
(649,880,o),
(649,715,cs),
(649,173,l),
(657,156,l),
(657,61,o),
(686,-20,o),
(797,-20,cs),
(827,-20,o),
(862,-14,o),
(900,0,c),
(900,138,l),
(824,124,o),
(802,143,o),
(802,217,cs),
(802,726,ls),
(802,968,o),
(683,1051,o),
(481,1051,cs)
);
},
{
closed = 1;
nodes = (
(668,575,l),
(379,579,o),
(107,546,o),
(107,253,cs),
(107,78,o),
(205,-24,o),
(358,-24,cs),
(492,-24,o),
(577,53,o),
(644,128,c),
(673,128,l),
(669,241,l),
(595,170,o),
(523,119,o),
(427,119,cs),
(327,119,o),
(267,174,o),
(267,276,cs),
(267,417,o),
(382,469,o),
(573,469,cs),
(615,469,o),
(665,463,o),
(709,456,c)
);
},
{
closed = 1;
nodes = (
(269,1599,o),
(206,1494,o),
(190,1308,c),
(294,1268,l),
(307,1376,o),
(336,1448,o),
(384,1448,cs),
(464,1448,o),
(506,1251,o),
(632,1251,cs),
(726,1251,o),
(790,1356,o),
(806,1542,c),
(701,1581,l),
(688,1474,o),
(660,1402,o),
(611,1402,cs),
(531,1402,o),
(489,1599,o),
(362,1599,cs)
);
}
);
width = 1000;
}
);
unicode = 227;
},
{
glyphname = ae;
lastChange = "2024-12-31 02:25:17 +0000";
layers = (
{
layerId = "B3EB4CE9-FF8A-458C-8111-2882C1B7C642";
shapes = (
{
closed = 1;
nodes = (
(438,136,o),
(530,-24,o),
(702,-24,cs),
(827,-24,o),
(904,60,o),
(938,270,c),
(823,301,l),
(799,179,o),
(765,131,o),
(701,131,cs),
(599,131,o),
(564,250,o),
(565,515,cs),
(565,773,o),
(598,896,o),
(700,896,cs),
(783,896,o),
(817,816,o),
(817,631,cs),
(817,590,l),
(855,633,l),
(524,633,l),
(524,507,l),
(940,507,l),
(940,597,ls),
(940,925,o),
(866,1051,o),
(711,1051,cs),
(587,1051,o),
(511,970,o),
(487,789,cs),
(479,721,l),
(438,515,l)
);
},
{
closed = 1;
nodes = (
(150,1051,o),
(73,927,o),
(73,751,cs),
(73,697,l),
(190,697,l),
(190,741,ls),
(190,859,o),
(244,909,o),
(314,910,cs),
(386,911,o),
(438,862,o),
(438,715,cs),
(438,515,l),
(536,515,l),
(536,689,ls),
(536,968,o),
(448,1051,o),
(315,1051,cs)
);
},
{
closed = 1;
nodes = (
(490,628,l),
(245,629,o),
(52,542,o),
(52,254,cs),
(52,76,o),
(125,-24,o),
(253,-24,cs),
(361,-24,o),
(422,46,o),
(474,130,c),
(527,130,l),
(488,280,l),
(423,173,o),
(363,126,o),
(297,126,cs),
(227,126,o),
(183,177,o),
(183,280,cs),
(183,447,o),
(298,506,o),
(488,506,c)
);
}
);
width = 1000;
}
);
unicode = 230;
},
{
glyphname = aeacute;
lastChange = "2024-12-31 02:25:17 +0000";
layers = (
{
layerId = "B3EB4CE9-FF8A-458C-8111-2882C1B7C642";
shapes = (
{
closed = 1;
nodes = (
(438,136,o),
(530,-24,o),
(702,-24,cs),
(827,-24,o),
(904,60,o),
(938,270,c),
(823,301,l),
(799,179,o),
(765,131,o),
(701,131,cs),
(599,131,o),
(564,250,o),
(565,515,cs),
(565,773,o),
(598,896,o),
(700,896,cs),
(783,896,o),
(817,816,o),
(817,631,cs),
(817,590,l),
(855,633,l),
(524,633,l),
(524,507,l),
(940,507,l),
(940,597,ls),
(940,925,o),
(866,1051,o),
(711,1051,cs),
(587,1051,o),
(511,970,o),
(487,789,cs),
(479,721,l),
(438,515,l)
);
},
{
closed = 1;
nodes = (
(150,1051,o),
(73,927,o),
(73,751,cs),
(73,697,l),
(190,697,l),
(190,741,ls),
(190,859,o),
(244,909,o),
(314,910,cs),
(386,911,o),
(438,862,o),
(438,715,cs),
(438,515,l),
(536,515,l),
(536,689,ls),
(536,968,o),
(448,1051,o),
(315,1051,cs)
);
},
{
closed = 1;
nodes = (
(490,628,l),
(245,629,o),
(52,542,o),
(52,254,cs),
(52,76,o),
(125,-24,o),
(253,-24,cs),
(361,-24,o),
(422,46,o),
(474,130,c),
(527,130,l),
(488,280,l),
(423,173,o),
(363,126,o),
(297,126,cs),
(227,126,o),
(183,177,o),
(183,280,cs),
(183,447,o),
(298,506,o),
(488,506,c)
);
},
{
closed = 1;
nodes = (
(598,1612,l),
(766,1612,l),
(563,1274,l),
(429,1274,l)
);
}
);
width = 1000;
}
);
unicode = 509;
},
{
glyphname = b;
lastChange = "2024-12-31 02:25:17 +0000";
layers = (
{
layerId = "B3EB4CE9-FF8A-458C-8111-2882C1B7C642";
shapes = (
{
closed = 1;
nodes = (
(305,1530,l),
(152,1530,l),
(152,0,l),
(281,0,l),
(298,185,l),
(305,185,l)
);
},
{
closed = 1;
nodes = (
(904,842,o),
(789,1051,o),
(579,1051,cs),
(459,1051,o),
(374,982,o),
(315,891,c),
(279,891,l),
(279,739,l),
(357,851,o),
(434,890,o),
(517,890,cs),
(667,890,o),
(747,764,o),
(747,515,cs),
(747,260,o),
(662,136,o),
(515,136,cs),
(433,136,o),
(355,175,o),
(279,289,c),
(279,136,l),
(315,136,l),
(369,45,o),
(451,-24,o),
(573,-24,cs),
(781,-24,o),
(904,181,o),
(904,515,cs)
);
}
);
width = 1000;
}
);
unicode = 98;
},
{
glyphname = c;
lastChange = "2024-12-31 02:25:17 +0000";
layers = (
{
layerId = "B3EB4CE9-FF8A-458C-8111-2882C1B7C642";
shapes = (
{
closed = 1;
nodes = (
(714,203,o),
(631,131,o),
(511,131,cs),
(353,131,o),
(253,256,o),
(253,516,cs),
(253,762,o),
(343,896,o),
(514,896,cs),
(635,896,o),
(725,829,o),
(744,671,c),
(895,687,l),
(874,934,o),
(720,1051,o),
(518,1051,cs),
(269,1051,o),
(96,874,o),
(96,516,cs),
(96,160,o),
(265,-24,o),
(510,-24,cs),
(698,-24,o),
(849,86,o),
(895,313,c),
(748,342,l)
);
}
);
width = 1000;
}
);
unicode = 99;
},
{
glyphname = cacute;
lastChange = "2024-12-31 02:25:17 +0000";
layers = (
{
layerId = "B3EB4CE9-FF8A-458C-8111-2882C1B7C642";
shapes = (
{
closed = 1;
nodes = (
(714,203,o),
(631,131,o),
(511,131,cs),
(353,131,o),
(253,256,o),
(253,516,cs),
(253,762,o),
(343,896,o),
(514,896,cs),
(635,896,o),
(725,829,o),
(744,671,c),
(895,687,l),
(874,934,o),
(720,1051,o),
(518,1051,cs),
(269,1051,o),
(96,874,o),
(96,516,cs),
(96,160,o),
(265,-24,o),
(510,-24,cs),
(698,-24,o),
(849,86,o),
(895,313,c),
(748,342,l)
);
},
{
closed = 1;
nodes = (
(598,1612,l),
(766,1612,l),
(563,1274,l),
(429,1274,l)
);
}
);
width = 1000;
}
);
unicode = 263;
},
{
glyphname = ccaron;
lastChange = "2024-12-31 02:25:17 +0000";
layers = (
{
layerId = "B3EB4CE9-FF8A-458C-8111-2882C1B7C642";
shapes = (
{
closed = 1;
nodes = (
(714,203,o),
(631,131,o),
(511,131,cs),
(353,131,o),
(253,256,o),
(253,516,cs),
(253,762,o),
(343,896,o),
(514,896,cs),
(635,896,o),
(725,829,o),
(744,671,c),
(895,687,l),
(874,934,o),
(720,1051,o),
(518,1051,cs),
(269,1051,o),
(96,874,o),
(96,516,cs),
(96,160,o),
(265,-24,o),
(510,-24,cs),
(698,-24,o),
(849,86,o),
(895,313,c),
(748,342,l)
);
},
{
closed = 1;
nodes = (
(352,1612,l),
(524,1315,l),
(476,1315,l),
(648,1612,l),
(786,1612,l),
(577,1274,l),
(423,1274,l),
(214,1612,l)
);
}
);
width = 1000;
}
);
unicode = 269;
},
{
glyphname = ccedilla;
lastChange = "2024-12-31 02:25:17 +0000";
layers = (
{
layerId = "B3EB4CE9-FF8A-458C-8111-2882C1B7C642";
shapes = (
{
closed = 1;
nodes = (
(714,203,o),
(631,131,o),
(511,131,cs),
(353,131,o),
(253,256,o),
(253,516,cs),
(253,762,o),
(343,896,o),
(514,896,cs),
(635,896,o),
(725,829,o),
(744,671,c),
(895,687,l),
(874,934,o),
(720,1051,o),
(518,1051,cs),
(269,1051,o),
(96,874,o),
(96,516,cs),
(96,160,o),
(265,-24,o),
(510,-24,cs),
(698,-24,o),
(849,86,o),
(895,313,c),
(748,342,l)
);
},
{
closed = 1;
nodes = (
(551,-220,l),
(548,48,l),
(451,48,l),
(451,-260,l),
(524,-269,o),
(570,-298,o),
(570,-373,cs),
(570,-436,o),
(539,-473,o),
(439,-473,cs),
(399,-473,l),
(399,-589,l),
(459,-589,ls),
(640,-589,o),
(690,-513,o),
(690,-385,cs),
(690,-247,o),
(631,-190,o),
(526,-168,c)
);
}
);
width = 1000;
}
);
unicode = 231;
},
{
glyphname = ccircumflex;
lastChange = "2024-12-31 02:25:17 +0000";
layers = (
{
layerId = "B3EB4CE9-FF8A-458C-8111-2882C1B7C642";
shapes = (
{
closed = 1;
nodes = (
(714,203,o),
(631,131,o),
(511,131,cs),
(353,131,o),
(253,256,o),
(253,516,cs),
(253,762,o),
(343,896,o),
(514,896,cs),
(635,896,o),
(725,829,o),
(744,671,c),
(895,687,l),
(874,934,o),
(720,1051,o),
(518,1051,cs),
(269,1051,o),
(96,874,o),
(96,516,cs),
(96,160,o),
(265,-24,o),
(510,-24,cs),
(698,-24,o),
(849,86,o),
(895,313,c),
(748,342,l)
);
},
{
closed = 1;
nodes = (
(352,1274,l),
(524,1572,l),
(476,1572,l),
(648,1274,l),
(786,1274,l),
(577,1612,l),
(423,1612,l),
(214,1274,l)
);
}
);
width = 1000;
}
);
unicode = 265;
},
{
glyphname = cdotaccent;
lastChange = "2024-12-31 02:25:17 +0000";
layers = (
{
layerId = "B3EB4CE9-FF8A-458C-8111-2882C1B7C642";
shapes = (
{
closed = 1;
nodes = (
(714,203,o),
(631,131,o),
(511,131,cs),
(353,131,o),
(253,256,o),
(253,516,cs),
(253,762,o),
(343,896,o),
(514,896,cs),
(635,896,o),
(725,829,o),
(744,671,c),
(895,687,l),
(874,934,o),
(720,1051,o),
(518,1051,cs),
(269,1051,o),
(96,874,o),
(96,516,cs),
(96,160,o),
(265,-24,o),
(510,-24,cs),
(698,-24,o),
(849,86,o),
(895,313,c),
(748,342,l)
);
},
{
closed = 1;
nodes = (
(566,1286,o),
(612,1335,o),
(612,1415,cs),
(612,1495,o),
(566,1543,o),
(500,1543,cs),
(434,1543,o),
(388,1495,o),
(388,1415,cs),
(388,1335,o),
(434,1286,o),
(500,1286,cs)
);
}
);
width = 1000;
}
);
unicode = 267;
},
{
glyphname = d;
lastChange = "2024-12-31 02:25:17 +0000";
layers = (
{
layerId = "B3EB4CE9-FF8A-458C-8111-2882C1B7C642";
shapes = (
{
closed = 1;
nodes = (
(702,185,l),
(719,0,l),
(848,0,l),
(848,1530,l),
(695,1530,l),
(695,185,l)
);
},
{
closed = 1;
nodes = (
(96,185,o),
(211,-25,o),
(421,-25,cs),
(541,-25,o),
(626,44,o),
(686,135,c),
(721,135,l),
(721,288,l),
(643,176,o),
(566,136,o),
(483,136,cs),
(333,136,o),
(253,263,o),
(253,511,cs),
(253,767,o),
(338,891,o),
(486,891,cs),
(567,891,o),
(645,851,o),
(721,738,c),
(721,891,l),
(685,891,l),
(631,982,o),
(549,1051,o),
(427,1051,cs),
(219,1051,o),
(96,846,o),
(96,511,cs)
);
}
);
width = 1000;
}
);
unicode = 100;
},
{
glyphname = dcaron;
lastChange = "2024-12-31 02:25:17 +0000";
layers = (
{
layerId = "B3EB4CE9-FF8A-458C-8111-2882C1B7C642";
shapes = (
{
closed = 1;
nodes = (
(96,165,o),
(209,-25,o),
(395,-25,cs),
(508,-25,o),
(589,44,o),
(642,135,c),
(675,135,l),
(675,288,l),
(609,176,o),
(536,136,o),
(461,136,cs),
(327,136,o),
(248,259,o),
(248,511,cs),
(248,770,o),
(332,891,o),
(464,891,cs),
(537,891,o),
(611,851,o),
(675,738,c),
(675,891,l),
(641,891,l),
(594,982,o),
(515,1051,o),
(402,1051,cs),
(216,1051,o),
(96,862,o),
(96,511,cs)
);
},
{
closed = 1;
nodes = (
(658,185,l),
(675,0,l),
(805,0,l),
(805,1530,l),
(652,1530,l),
(652,185,l)
);
},
{
closed = 1;
nodes = (
(1052,1292,l),
(1084,1648,l),
(955,1648,l),
(942,1292,l)
);
}
);
width = 1000;
}
);
unicode = 271;
},
{
glyphname = dcroat;
lastChange = "2024-12-31 02:25:17 +0000";
layers = (
{
layerId = "B3EB4CE9-FF8A-458C-8111-2882C1B7C642";
shapes = (
{
closed = 1;
nodes = (
(348,1377,l),
(348,1258,l),
(956,1258,l),
(956,1377,l),
(784,1377,l),
(761,1377,l)
);
},
{
closed = 1;
nodes = (
(702,185,l),
(719,0,l),
(848,0,l),
(848,1530,l),
(695,1530,l),
(695,185,l)
);
},
{
closed = 1;
nodes = (
(96,185,o),
(211,-25,o),
(421,-25,cs),
(541,-25,o),
(626,44,o),
(686,135,c),
(721,135,l),
(721,288,l),
(643,176,o),
(566,136,o),
(483,136,cs),
(333,136,o),
(253,263,o),
(253,511,cs),
(253,767,o),
(338,891,o),
(486,891,cs),
(567,891,o),
(645,851,o),
(721,738,c),
(721,891,l),
(685,891,l),
(631,982,o),
(549,1051,o),
(427,1051,cs),
(219,1051,o),
(96,846,o),
(96,511,cs)
);
}
);
width = 1000;
}
);
unicode = 273;
},
{
glyphname = eth;
lastChange = "2024-12-31 02:25:17 +0000";
layers = (
{
layerId = "B3EB4CE9-FF8A-458C-8111-2882C1B7C642";
shapes = (
{
closed = 1;
nodes = (
(299,1530,l),
(523,1167,ls),
(675,923,o),
(744,770,o),
(744,531,cs),
(744,243,o),
(640,131,o),
(500,131,cs),
(361,131,o),
(256,245,o),
(256,496,cs),
(256,724,o),
(344,851,o),
(511,851,cs),
(608,851,o),
(712,804,o),
(794,713,c),
(691,969,l),
(640,923,l),
(579,977,o),
(513,1005,o),
(436,1005,cs),
(223,1005,o),
(96,801,o),
(96,506,cs),
(96,162,o),
(266,-24,o),
(500,-24,cs),
(731,-24,o),
(904,153,o),
(904,543,cs),
(904,806,o),
(823,997,o),
(666,1242,cs),
(487,1530,l)
);
},
{
closed = 1;
nodes = (
(206,1250,l),
(240,1143,l),
(818,1433,l),
(785,1539,l)
);
}
);
width = 1000;
}
);
unicode = 240;
},
{
glyphname = e;
lastChange = "2024-12-31 02:25:17 +0000";
layers = (
{
layerId = "B3EB4CE9-FF8A-458C-8111-2882C1B7C642";
shapes = (
{
closed = 1;
nodes = (
(96,162,o),
(265,-24,o),
(512,-24,cs),
(694,-24,o),
(830,78,o),
(886,270,c),
(738,301,l),
(698,184,o),
(619,131,o),
(513,131,cs),
(349,131,o),
(252,260,o),
(252,515,cs),
(252,767,o),
(349,896,o),
(513,896,cs),
(644,896,o),
(740,815,o),
(740,631,cs),
(740,590,l),
(781,633,l),
(213,633,l),
(213,507,l),
(890,507,l),
(890,597,ls),
(890,899,o),
(752,1051,o),
(518,1051,cs),
(263,1051,o),
(96,862,o),
(96,515,cs)
);
}
);
width = 1000;
}
);
unicode = 101;
},
{
glyphname = eacute;
lastChange = "2024-12-31 02:25:17 +0000";
layers = (
{
layerId = "B3EB4CE9-FF8A-458C-8111-2882C1B7C642";
shapes = (
{
closed = 1;
nodes = (
(96,162,o),
(265,-24,o),
(512,-24,cs),
(694,-24,o),
(830,78,o),
(886,270,c),
(738,301,l),
(698,184,o),
(619,131,o),
(513,131,cs),
(349,131,o),
(252,260,o),
(252,515,cs),
(252,767,o),
(349,896,o),
(513,896,cs),
(644,896,o),
(740,815,o),
(740,631,cs),
(740,590,l),
(781,633,l),
(213,633,l),
(213,507,l),
(890,507,l),
(890,597,ls),
(890,899,o),
(752,1051,o),
(518,1051,cs),
(263,1051,o),
(96,862,o),
(96,515,cs)
);
},
{
closed = 1;
nodes = (
(598,1612,l),
(766,1612,l),
(563,1274,l),
(429,1274,l)
);
}
);
width = 1000;
}
);
unicode = 233;
},
{
glyphname = ebreve;
lastChange = "2024-12-31 02:25:17 +0000";
layers = (
{
layerId = "B3EB4CE9-FF8A-458C-8111-2882C1B7C642";
shapes = (
{
closed = 1;
nodes = (
(96,162,o),
(265,-24,o),
(512,-24,cs),
(694,-24,o),
(830,78,o),
(886,270,c),
(738,301,l),
(698,184,o),
(619,131,o),
(513,131,cs),
(349,131,o),
(252,260,o),
(252,515,cs),
(252,767,o),
(349,896,o),
(513,896,cs),
(644,896,o),
(740,815,o),
(740,631,cs),
(740,590,l),
(781,633,l),
(213,633,l),
(213,507,l),
(890,507,l),
(890,597,ls),
(890,899,o),
(752,1051,o),
(518,1051,cs),
(263,1051,o),
(96,862,o),
(96,515,cs)
);
},
{
closed = 1;
nodes = (
(252,1389,o),
(335,1266,o),
(500,1266,cs),
(665,1266,o),
(748,1389,o),
(740,1612,c),
(639,1612,l),
(639,1476,o),
(599,1396,o),
(500,1396,cs),
(401,1396,o),
(361,1476,o),
(361,1612,c),
(260,1612,l)
);
}
);
width = 1000;
}
);
unicode = 277;
},
{
glyphname = ecaron;
lastChange = "2024-12-31 02:25:17 +0000";
layers = (
{
layerId = "B3EB4CE9-FF8A-458C-8111-2882C1B7C642";
shapes = (
{
closed = 1;
nodes = (
(96,162,o),
(265,-24,o),
(512,-24,cs),
(694,-24,o),
(830,78,o),
(886,270,c),
(738,301,l),
(698,184,o),
(619,131,o),
(513,131,cs),
(349,131,o),
(252,260,o),
(252,515,cs),
(252,767,o),
(349,896,o),
(513,896,cs),
(644,896,o),
(740,815,o),
(740,631,cs),
(740,590,l),
(781,633,l),
(213,633,l),
(213,507,l),
(890,507,l),
(890,597,ls),
(890,899,o),
(752,1051,o),
(518,1051,cs),
(263,1051,o),
(96,862,o),
(96,515,cs)
);
},
{
closed = 1;
nodes = (
(352,1612,l),
(524,1315,l),
(476,1315,l),
(648,1612,l),
(786,1612,l),
(577,1274,l),
(423,1274,l),
(214,1612,l)
);
}
);
width = 1000;
}
);
unicode = 283;
},
{
glyphname = ecircumflex;
lastChange = "2024-12-31 02:25:17 +0000";
layers = (
{
layerId = "B3EB4CE9-FF8A-458C-8111-2882C1B7C642";
shapes = (
{
closed = 1;
nodes = (
(96,162,o),
(265,-24,o),
(512,-24,cs),
(694,-24,o),
(830,78,o),
(886,270,c),
(738,301,l),
(698,184,o),
(619,131,o),
(513,131,cs),
(349,131,o),
(252,260,o),
(252,515,cs),
(252,767,o),
(349,896,o),
(513,896,cs),
(644,896,o),
(740,815,o),
(740,631,cs),
(740,590,l),
(781,633,l),
(213,633,l),
(213,507,l),
(890,507,l),
(890,597,ls),
(890,899,o),
(752,1051,o),
(518,1051,cs),
(263,1051,o),
(96,862,o),
(96,515,cs)
);
},
{
closed = 1;
nodes = (
(352,1274,l),
(524,1572,l),
(476,1572,l),
(648,1274,l),
(786,1274,l),
(577,1612,l),
(423,1612,l),
(214,1274,l)
);
}
);
width = 1000;
}
);
unicode = 234;
},
{
glyphname = edieresis;
lastChange = "2024-12-31 02:25:17 +0000";
layers = (
{
layerId = "B3EB4CE9-FF8A-458C-8111-2882C1B7C642";
shapes = (
{
closed = 1;
nodes = (
(96,162,o),
(265,-24,o),
(512,-24,cs),
(694,-24,o),
(830,78,o),
(886,270,c),
(738,301,l),
(698,184,o),
(619,131,o),
(513,131,cs),
(349,131,o),
(252,260,o),
(252,515,cs),
(252,767,o),
(349,896,o),
(513,896,cs),
(644,896,o),
(740,815,o),
(740,631,cs),
(740,590,l),
(781,633,l),
(213,633,l),
(213,507,l),
(890,507,l),
(890,597,ls),
(890,899,o),
(752,1051,o),
(518,1051,cs),
(263,1051,o),
(96,862,o),
(96,515,cs)
);
},
{
closed = 1;
nodes = (
(354,1284,o),
(397,1333,o),
(397,1413,cs),
(397,1493,o),
(354,1541,o),
(292,1541,cs),
(231,1541,o),
(188,1493,o),
(188,1413,cs),
(188,1333,o),
(231,1284,o),
(292,1284,cs)
);
},
{
closed = 1;
nodes = (
(769,1284,o),
(812,1333,o),
(812,1413,cs),
(812,1493,o),
(769,1541,o),
(708,1541,cs),
(646,1541,o),
(603,1493,o),
(603,1413,cs),
(603,1333,o),
(646,1284,o),
(708,1284,cs)
);
}
);
width = 1000;
}
);
unicode = 235;
},
{
glyphname = edotaccent;
lastChange = "2024-12-31 02:25:17 +0000";
layers = (
{
layerId = "B3EB4CE9-FF8A-458C-8111-2882C1B7C642";
shapes = (
{
closed = 1;
nodes = (
(96,162,o),
(265,-24,o),
(512,-24,cs),
(694,-24,o),
(830,78,o),
(886,270,c),
(738,301,l),
(698,184,o),
(619,131,o),
(513,131,cs),
(349,131,o),
(252,260,o),
(252,515,cs),
(252,767,o),
(349,896,o),
(513,896,cs),
(644,896,o),
(740,815,o),
(740,631,cs),
(740,590,l),
(781,633,l),
(213,633,l),
(213,507,l),
(890,507,l),
(890,597,ls),
(890,899,o),
(752,1051,o),
(518,1051,cs),
(263,1051,o),
(96,862,o),
(96,515,cs)
);
},
{
closed = 1;
nodes = (
(566,1286,o),
(612,1335,o),
(612,1415,cs),
(612,1495,o),
(566,1543,o),
(500,1543,cs),
(434,1543,o),
(388,1495,o),
(388,1415,cs),
(388,1335,o),
(434,1286,o),
(500,1286,cs)
);
}
);
width = 1000;
}
);
unicode = 279;
},
{
glyphname = edotbelow;
lastChange = "2024-12-31 02:25:17 +0000";
layers = (
{
layerId = "B3EB4CE9-FF8A-458C-8111-2882C1B7C642";
shapes = (
{
closed = 1;
nodes = (
(96,162,o),
(265,-24,o),
(512,-24,cs),
(694,-24,o),
(830,78,o),
(886,270,c),
(738,301,l),
(698,184,o),
(619,131,o),
(513,131,cs),
(349,131,o),
(252,260,o),
(252,515,cs),
(252,767,o),
(349,896,o),
(513,896,cs),
(644,896,o),
(740,815,o),
(740,631,cs),
(740,590,l),
(781,633,l),
(213,633,l),
(213,507,l),
(890,507,l),
(890,597,ls),
(890,899,o),
(752,1051,o),
(518,1051,cs),
(263,1051,o),
(96,862,o),
(96,515,cs)
);
},
{
closed = 1;
nodes = (
(566,-515,o),
(612,-466,o),
(612,-386,cs),
(612,-306,o),
(566,-258,o),
(500,-258,cs),
(434,-258,o),
(388,-306,o),
(388,-386,cs),
(388,-466,o),
(434,-515,o),
(500,-515,cs)
);
}
);
width = 1000;
}
);
unicode = 7865;
},
{
glyphname = egrave;
lastChange = "2024-12-31 02:25:17 +0000";
layers = (
{
layerId = "B3EB4CE9-FF8A-458C-8111-2882C1B7C642";
shapes = (
{
closed = 1;
nodes = (
(96,162,o),
(265,-24,o),
(512,-24,cs),
(694,-24,o),
(830,78,o),
(886,270,c),
(738,301,l),
(698,184,o),
(619,131,o),
(513,131,cs),
(349,131,o),
(252,260,o),
(252,515,cs),
(252,767,o),
(349,896,o),
(513,896,cs),
(644,896,o),
(740,815,o),
(740,631,cs),
(740,590,l),
(781,633,l),
(213,633,l),
(213,507,l),
(890,507,l),
(890,597,ls),
(890,899,o),
(752,1051,o),
(518,1051,cs),
(263,1051,o),
(96,862,o),
(96,515,cs)
);
},
{
closed = 1;
nodes = (
(402,1612,l),
(234,1612,l),
(437,1274,l),
(571,1274,l)
);
}
);
width = 1000;
}
);
unicode = 232;
},
{
glyphname = emacron;
lastChange = "2024-12-31 02:25:17 +0000";
layers = (
{
layerId = "B3EB4CE9-FF8A-458C-8111-2882C1B7C642";
shapes = (
{
closed = 1;
nodes = (
(96,162,o),
(265,-24,o),
(512,-24,cs),
(694,-24,o),
(830,78,o),
(886,270,c),
(738,301,l),
(698,184,o),
(619,131,o),
(513,131,cs),
(349,131,o),
(252,260,o),
(252,515,cs),
(252,767,o),
(349,896,o),
(513,896,cs),
(644,896,o),
(740,815,o),
(740,631,cs),
(740,590,l),
(781,633,l),
(213,633,l),
(213,507,l),
(890,507,l),
(890,597,ls),
(890,899,o),
(752,1051,o),
(518,1051,cs),
(263,1051,o),
(96,862,o),
(96,515,cs)
);
},
{
closed = 1;
nodes = (
(241,1457,l),
(241,1326,l),
(759,1326,l),
(759,1457,l)
);
}
);
width = 1000;
}
);
unicode = 275;
},
{
glyphname = eogonek;
lastChange = "2024-12-31 02:25:17 +0000";
layers = (
{
layerId = "B3EB4CE9-FF8A-458C-8111-2882C1B7C642";
shapes = (
{
closed = 1;
nodes = (
(96,162,o),
(265,-24,o),
(512,-24,cs),
(694,-24,o),
(830,78,o),
(886,270,c),
(738,301,l),
(698,184,o),
(619,131,o),
(513,131,cs),
(349,131,o),
(252,260,o),
(252,515,cs),
(252,767,o),
(349,896,o),
(513,896,cs),
(644,896,o),
(740,815,o),
(740,631,cs),
(740,590,l),
(781,633,l),
(213,633,l),
(213,507,l),
(890,507,l),
(890,597,ls),
(890,899,o),
(752,1051,o),
(518,1051,cs),
(263,1051,o),
(96,862,o),
(96,515,cs)
);
},
{
closed = 1;
nodes = (
(457,-67,o),
(407,-150,o),
(407,-247,cs),
(407,-331,o),
(445,-414,o),
(596,-414,cs),
(655,-414,l),
(655,-282,l),
(631,-282,ls),
(565,-282,o),
(541,-252,o),
(541,-206,cs),
(541,-153,o),
(571,-88,o),
(655,0,c),
(561,37,l)
);
}
);
width = 1000;
}
);
unicode = 281;
},
{
glyphname = etilde;
lastChange = "2024-12-31 02:25:17 +0000";
layers = (
{
layerId = "B3EB4CE9-FF8A-458C-8111-2882C1B7C642";
shapes = (
{
closed = 1;
nodes = (
(96,162,o),
(265,-24,o),
(512,-24,cs),
(694,-24,o),
(830,78,o),
(886,270,c),
(738,301,l),
(698,184,o),
(619,131,o),
(513,131,cs),
(349,131,o),
(252,260,o),
(252,515,cs),
(252,767,o),
(349,896,o),
(513,896,cs),
(644,896,o),
(740,815,o),
(740,631,cs),
(740,590,l),
(781,633,l),
(213,633,l),
(213,507,l),
(890,507,l),
(890,597,ls),
(890,899,o),
(752,1051,o),
(518,1051,cs),
(263,1051,o),
(96,862,o),
(96,515,cs)
);
},
{
closed = 1;
nodes = (
(269,1599,o),
(206,1494,o),
(190,1308,c),
(294,1268,l),
(307,1376,o),
(336,1448,o),
(384,1448,cs),
(464,1448,o),
(506,1251,o),
(632,1251,cs),
(726,1251,o),
(790,1356,o),
(806,1542,c),
(701,1581,l),
(688,1474,o),
(660,1402,o),
(611,1402,cs),
(531,1402,o),
(489,1599,o),
(362,1599,cs)
);
}
);
width = 1000;
}
);
unicode = 7869;
},
{
glyphname = schwa;
lastChange = "2024-12-31 02:25:17 +0000";
layers = (
{
layerId = "B3EB4CE9-FF8A-458C-8111-2882C1B7C642";
shapes = (
{
closed = 1;
nodes = (
(904,865,o),
(736,1051,o),
(488,1051,cs),
(306,1051,o),
(170,949,o),
(114,757,c),
(262,726,l),
(302,843,o),
(381,896,o),
(487,896,cs),
(651,896,o),
(748,767,o),
(748,513,cs),
(748,261,o),
(651,131,o),
(487,131,cs),
(356,131,o),
(260,212,o),
(260,396,cs),
(260,438,l),
(219,394,l),
(787,394,l),
(787,521,l),
(110,521,l),
(110,430,ls),
(110,129,o),
(248,-24,o),
(482,-24,cs),
(737,-24,o),
(904,165,o),
(904,513,cs)
);
}
);
width = 1000;
}
);
unicode = 601;
},
{
glyphname = f;
lastChange = "2024-12-31 15:11:05 +0000";
layers = (
{
layerId = "B3EB4CE9-FF8A-458C-8111-2882C1B7C642";
shapes = (
{
closed = 1;
nodes = (
(811,1596,o),
(748,1606,o),
(715,1606,cs),
(485,1606,o),
(345,1482,o),
(345,1126,cs),
(345,0,l),
(498,0,l),
(498,1143,ls),
(498,1390,o),
(579,1438,o),
(719,1438,cs),
(753,1438,o),
(809,1427,o),
(871,1409,c),
(871,1574,l)
);
},
{
closed = 1;
nodes = (
(79,1027,l),
(79,874,l),
(874,874,l),
(874,1027,l)
);
}
);
width = 1000;
}
);
unicode = 102;
},
{
glyphname = g;
lastChange = "2024-12-31 02:25:17 +0000";
layers = (
{
layerId = "B3EB4CE9-FF8A-458C-8111-2882C1B7C642";
shapes = (
{
closed = 1;
nodes = (
(96,271,o),
(218,75,o),
(419,75,cs),
(540,75,o),
(626,144,o),
(686,235,c),
(721,235,l),
(721,388,l),
(643,276,o),
(566,236,o),
(483,236,cs),
(336,236,o),
(253,359,o),
(253,561,cs),
(253,770,o),
(340,891,o),
(486,891,cs),
(567,891,o),
(645,851,o),
(721,738,c),
(721,891,l),
(685,891,l),
(631,982,o),
(548,1051,o),
(426,1051,cs),
(224,1051,o),
(96,860,o),
(96,561,cs)
);
},
{
closed = 1;
nodes = (
(848,1027,l),
(719,1027,l),
(702,846,l),
(695,846,l),
(695,38,ls),
(695,-203,o),
(602,-271,o),
(474,-271,cs),
(361,-271,o),
(286,-217,o),
(256,-99,c),
(117,-138,l),
(147,-295,o),
(246,-411,o),
(474,-411,cs),
(716,-411,o),
(848,-279,o),
(848,58,cs)
);
}
);
width = 1000;
}
);
unicode = 103;
},
{
glyphname = gbreve;
lastChange = "2024-12-31 02:25:17 +0000";
layers = (
{
layerId = "B3EB4CE9-FF8A-458C-8111-2882C1B7C642";
shapes = (
{
closed = 1;
nodes = (
(96,271,o),
(218,75,o),
(419,75,cs),
(540,75,o),
(626,144,o),
(686,235,c),
(721,235,l),
(721,388,l),
(643,276,o),
(566,236,o),
(483,236,cs),
(336,236,o),
(253,359,o),
(253,561,cs),
(253,770,o),
(340,891,o),
(486,891,cs),
(567,891,o),
(645,851,o),
(721,738,c),
(721,891,l),
(685,891,l),
(631,982,o),
(548,1051,o),
(426,1051,cs),
(224,1051,o),
(96,860,o),
(96,561,cs)
);
},
{
closed = 1;
nodes = (
(848,1027,l),
(719,1027,l),
(702,846,l),
(695,846,l),
(695,38,ls),
(695,-203,o),
(602,-271,o),
(474,-271,cs),
(361,-271,o),
(286,-217,o),
(256,-99,c),
(117,-138,l),
(147,-295,o),
(246,-411,o),
(474,-411,cs),
(716,-411,o),
(848,-279,o),
(848,58,cs)
);
},
{
closed = 1;
nodes = (
(252,1389,o),
(335,1266,o),
(500,1266,cs),
(665,1266,o),
(748,1389,o),
(740,1612,c),
(639,1612,l),
(639,1476,o),
(599,1396,o),
(500,1396,cs),
(401,1396,o),
(361,1476,o),
(361,1612,c),
(260,1612,l)
);
}
);
width = 1000;
}
);
unicode = 287;
},
{
glyphname = gcaron;
lastChange = "2024-12-31 02:25:17 +0000";
layers = (
{
layerId = "B3EB4CE9-FF8A-458C-8111-2882C1B7C642";
shapes = (
{
closed = 1;
nodes = (
(96,271,o),
(218,75,o),
(419,75,cs),
(540,75,o),
(626,144,o),
(686,235,c),
(721,235,l),
(721,388,l),
(643,276,o),
(566,236,o),
(483,236,cs),
(336,236,o),
(253,359,o),
(253,561,cs),
(253,770,o),
(340,891,o),
(486,891,cs),
(567,891,o),
(645,851,o),
(721,738,c),
(721,891,l),
(685,891,l),
(631,982,o),
(548,1051,o),
(426,1051,cs),
(224,1051,o),
(96,860,o),
(96,561,cs)
);
},
{
closed = 1;
nodes = (
(848,1027,l),
(719,1027,l),
(702,846,l),
(695,846,l),
(695,38,ls),
(695,-203,o),
(602,-271,o),
(474,-271,cs),
(361,-271,o),
(286,-217,o),
(256,-99,c),
(117,-138,l),
(147,-295,o),
(246,-411,o),
(474,-411,cs),
(716,-411,o),
(848,-279,o),
(848,58,cs)
);
},
{
closed = 1;
nodes = (
(352,1612,l),
(524,1315,l),
(476,1315,l),
(648,1612,l),
(786,1612,l),
(577,1274,l),
(423,1274,l),
(214,1612,l)
);
}
);
width = 1000;
}
);
unicode = 487;
},
{
glyphname = gcircumflex;
lastChange = "2024-12-31 02:25:17 +0000";
layers = (
{
layerId = "B3EB4CE9-FF8A-458C-8111-2882C1B7C642";
shapes = (
{
closed = 1;
nodes = (
(96,271,o),
(218,75,o),
(419,75,cs),
(540,75,o),
(626,144,o),
(686,235,c),
(721,235,l),
(721,388,l),
(643,276,o),
(566,236,o),
(483,236,cs),
(336,236,o),
(253,359,o),
(253,561,cs),
(253,770,o),
(340,891,o),
(486,891,cs),
(567,891,o),
(645,851,o),
(721,738,c),
(721,891,l),
(685,891,l),
(631,982,o),
(548,1051,o),
(426,1051,cs),
(224,1051,o),
(96,860,o),
(96,561,cs)
);
},
{
closed = 1;
nodes = (
(848,1027,l),
(719,1027,l),
(702,846,l),
(695,846,l),
(695,38,ls),
(695,-203,o),
(602,-271,o),
(474,-271,cs),
(361,-271,o),
(286,-217,o),
(256,-99,c),
(117,-138,l),
(147,-295,o),
(246,-411,o),
(474,-411,cs),
(716,-411,o),
(848,-279,o),
(848,58,cs)
);
},
{
closed = 1;
nodes = (
(352,1274,l),
(524,1572,l),
(476,1572,l),
(648,1274,l),
(786,1274,l),
(577,1612,l),
(423,1612,l),
(214,1274,l)
);
}
);
width = 1000;
}
);
unicode = 285;
},
{
glyphname = gcommaaccent;
lastChange = "2024-12-31 02:25:17 +0000";
layers = (
{
layerId = "B3EB4CE9-FF8A-458C-8111-2882C1B7C642";
shapes = (
{
closed = 1;
nodes = (
(96,271,o),
(218,75,o),
(419,75,cs),
(540,75,o),
(626,144,o),
(686,235,c),
(721,235,l),
(721,388,l),
(643,276,o),
(566,236,o),
(483,236,cs),
(336,236,o),
(253,359,o),
(253,561,cs),
(253,770,o),
(340,891,o),
(486,891,cs),
(567,891,o),
(645,851,o),
(721,738,c),
(721,891,l),
(685,891,l),
(631,982,o),
(548,1051,o),
(426,1051,cs),
(224,1051,o),
(96,860,o),
(96,561,cs)
);
},
{
closed = 1;
nodes = (
(848,1027,l),
(719,1027,l),
(702,846,l),
(695,846,l),
(695,38,ls),
(695,-203,o),
(602,-271,o),
(474,-271,cs),
(361,-271,o),
(286,-217,o),
(256,-99,c),
(117,-138,l),
(147,-295,o),
(246,-411,o),
(474,-411,cs),
(716,-411,o),
(848,-279,o),
(848,58,cs)
);
},
{
closed = 1;
nodes = (
(481,1543,o),
(461,1539,o),
(443,1527,c),
(470,1497,l),
(483,1593,o),
(550,1650,o),
(625,1706,c),
(572,1787,l),
(472,1725,o),
(377,1612,o),
(377,1459,cs),
(377,1340,o),
(433,1286,o),
(502,1286,cs),
(566,1286,o),
(615,1333,o),
(615,1414,cs),
(615,1494,o),
(568,1543,o),
(501,1543,cs)
);
}
);
width = 1000;
}
);
unicode = 291;
},
{
glyphname = gdotaccent;
lastChange = "2024-12-31 02:25:17 +0000";
layers = (
{
layerId = "B3EB4CE9-FF8A-458C-8111-2882C1B7C642";
shapes = (
{
closed = 1;
nodes = (
(96,271,o),
(218,75,o),
(419,75,cs),
(540,75,o),
(626,144,o),
(686,235,c),
(721,235,l),
(721,388,l),
(643,276,o),
(566,236,o),
(483,236,cs),
(336,236,o),
(253,359,o),
(253,561,cs),
(253,770,o),
(340,891,o),
(486,891,cs),
(567,891,o),
(645,851,o),
(721,738,c),
(721,891,l),
(685,891,l),
(631,982,o),
(548,1051,o),
(426,1051,cs),
(224,1051,o),
(96,860,o),
(96,561,cs)
);
},
{
closed = 1;
nodes = (
(848,1027,l),
(719,1027,l),
(702,846,l),
(695,846,l),
(695,38,ls),
(695,-203,o),
(602,-271,o),
(474,-271,cs),
(361,-271,o),
(286,-217,o),
(256,-99,c),
(117,-138,l),
(147,-295,o),
(246,-411,o),
(474,-411,cs),
(716,-411,o),
(848,-279,o),
(848,58,cs)
);
},
{
closed = 1;
nodes = (
(566,1286,o),
(612,1335,o),
(612,1415,cs),
(612,1495,o),
(566,1543,o),
(500,1543,cs),
(434,1543,o),
(388,1495,o),
(388,1415,cs),
(388,1335,o),
(434,1286,o),
(500,1286,cs)
);
}
);
width = 1000;
}
);
unicode = 289;
},
{
glyphname = h;
lastChange = "2024-12-31 02:25:17 +0000";
layers = (
{
layerId = "B3EB4CE9-FF8A-458C-8111-2882C1B7C642";
shapes = (
{
closed = 1;
nodes = (
(305,1530,l),
(152,1530,l),
(152,0,l),
(305,0,l)
);
},
{
closed = 1;
nodes = (
(848,735,ls),
(848,958,o),
(756,1051,o),
(611,1051,cs),
(474,1051,o),
(389,967,o),
(324,880,c),
(281,880,l),
(281,705,l),
(346,818,o),
(430,896,o),
(541,896,cs),
(625,896,o),
(695,852,o),
(695,685,cs),
(695,0,l),
(848,0,l)
);
}
);
width = 1000;
}
);
unicode = 104;
},
{
glyphname = hbar;
lastChange = "2024-12-31 02:25:17 +0000";
layers = (
{
layerId = "B3EB4CE9-FF8A-458C-8111-2882C1B7C642";
shapes = (
{
closed = 1;
nodes = (
(216,1377,l),
(44,1377,l),
(44,1258,l),
(652,1258,l),
(652,1377,l),
(240,1377,l)
);
},
{
closed = 1;
nodes = (
(305,1530,l),
(152,1530,l),
(152,0,l),
(305,0,l)
);
},
{
closed = 1;
nodes = (
(848,735,ls),
(848,958,o),
(756,1051,o),
(611,1051,cs),
(474,1051,o),
(389,967,o),
(324,880,c),
(281,880,l),
(281,705,l),
(346,818,o),
(430,896,o),
(541,896,cs),
(625,896,o),
(695,852,o),
(695,685,cs),
(695,0,l),
(848,0,l)
);
}
);
width = 1000;
}
);
unicode = 295;
},
{
glyphname = hcircumflex;
lastChange = "2024-12-31 02:25:17 +0000";
layers = (
{
layerId = "B3EB4CE9-FF8A-458C-8111-2882C1B7C642";
shapes = (
{
closed = 1;
nodes = (
(305,1530,l),
(152,1530,l),
(152,0,l),
(305,0,l)
);
},
{
closed = 1;
nodes = (
(848,735,ls),
(848,958,o),
(756,1051,o),
(611,1051,cs),
(474,1051,o),
(389,967,o),
(324,880,c),
(281,880,l),
(281,705,l),
(346,818,o),
(430,896,o),
(541,896,cs),
(625,896,o),
(695,852,o),
(695,685,cs),
(695,0,l),
(848,0,l)
);
},
{
closed = 1;
nodes = (
(89,1710,l),
(250,1914,l),
(207,1914,l),
(368,1710,l),
(515,1710,l),
(311,1951,l),
(145,1951,l),
(-58,1710,l)
);
}
);
width = 1000;
}
);
unicode = 293;
},
{
glyphname = i;
lastChange = "2025-01-03 00:04:45 +0000";
layers = (
{
layerId = "B3EB4CE9-FF8A-458C-8111-2882C1B7C642";
shapes = (
{
closed = 1;
nodes = (
(577,1026,l),
(130,1027,l),
(130,877,l),
(460,877,l),
(423,937,l),
(423,0,l),
(577,0,l)
);
},
{
closed = 1;
nodes = (
(870,0,l),
(870,153,l),
(130,153,l),
(130,0,l)
);
},
{
closed = 1;
nodes = (
(536,1286,o),
(582,1335,o),
(582,1415,cs),
(582,1495,o),
(536,1543,o),
(470,1543,cs),
(403,1543,o),
(357,1495,o),
(357,1415,cs),
(357,1335,o),
(403,1286,o),
(470,1286,cs)
);
}
);
width = 1000;
}
);
unicode = 105;
},
{
glyphname = idotless;
lastChange = "2024-12-31 02:25:17 +0000";
layers = (
{
layerId = "B3EB4CE9-FF8A-458C-8111-2882C1B7C642";
shapes = (
{
closed = 1;
nodes = (
(577,1026,l),
(556,1050,l),
(130,1027,l),
(130,877,l),
(460,877,l),
(423,937,l),
(423,0,l),
(577,0,l)
);
},
{
closed = 1;
nodes = (
(870,0,l),
(870,153,l),
(130,153,l),
(130,0,l)
);
}
);
width = 1000;
}
);
unicode = 305;
},
{
glyphname = iacute;
lastChange = "2024-12-31 02:25:17 +0000";
layers = (
{
layerId = "B3EB4CE9-FF8A-458C-8111-2882C1B7C642";
shapes = (
{
closed = 1;
nodes = (
(577,1026,l),
(556,1050,l),
(130,1027,l),
(130,877,l),
(460,877,l),
(423,937,l),
(423,0,l),
(577,0,l)
);
},
{
closed = 1;
nodes = (
(870,0,l),
(870,153,l),
(130,153,l),
(130,0,l)
);
},
{
closed = 1;
nodes = (
(568,1612,l),
(736,1612,l),
(533,1274,l),
(399,1274,l)
);
}
);
width = 1000;
}
);
unicode = 237;
},
{
glyphname = ibreve;
lastChange = "2024-12-31 02:25:17 +0000";
layers = (
{
layerId = "B3EB4CE9-FF8A-458C-8111-2882C1B7C642";
shapes = (
{
closed = 1;
nodes = (
(577,1026,l),
(556,1050,l),
(130,1027,l),
(130,877,l),
(460,877,l),
(423,937,l),
(423,0,l),
(577,0,l)
);
},
{
closed = 1;
nodes = (
(870,0,l),
(870,153,l),
(130,153,l),
(130,0,l)
);
},
{
closed = 1;
nodes = (
(223,1389,o),
(304,1266,o),
(470,1266,cs),
(636,1266,o),
(717,1389,o),
(711,1612,c),
(609,1612,l),
(609,1476,o),
(569,1396,o),
(470,1396,cs),
(370,1396,o),
(331,1476,o),
(331,1612,c),
(230,1612,l)
);
}
);
width = 1000;
}
);
unicode = 301;
},
{
glyphname = icircumflex;
lastChange = "2024-12-31 02:25:17 +0000";
layers = (
{
layerId = "B3EB4CE9-FF8A-458C-8111-2882C1B7C642";
shapes = (
{
closed = 1;
nodes = (
(577,1026,l),
(556,1050,l),
(130,1027,l),
(130,877,l),
(460,877,l),
(423,937,l),
(423,0,l),
(577,0,l)
);
},
{
closed = 1;
nodes = (
(870,0,l),
(870,153,l),
(130,153,l),
(130,0,l)
);
},
{
closed = 1;
nodes = (
(323,1274,l),
(494,1572,l),
(446,1572,l),
(618,1274,l),
(756,1274,l),
(548,1612,l),
(392,1612,l),
(184,1274,l)
);
}
);
width = 1000;
}
);
unicode = 238;
},
{
glyphname = idieresis;
lastChange = "2024-12-31 02:25:17 +0000";
layers = (
{
layerId = "B3EB4CE9-FF8A-458C-8111-2882C1B7C642";
shapes = (
{
closed = 1;
nodes = (
(577,1026,l),
(556,1050,l),
(130,1027,l),
(130,877,l),
(460,877,l),
(423,937,l),
(423,0,l),
(577,0,l)
);
},
{
closed = 1;
nodes = (
(870,0,l),
(870,153,l),
(130,153,l),
(130,0,l)
);
},
{
closed = 1;
nodes = (
(323,1284,o),
(366,1333,o),
(366,1413,cs),
(366,1493,o),
(323,1541,o),
(262,1541,cs),
(200,1541,o),
(157,1493,o),
(157,1413,cs),
(157,1333,o),
(200,1284,o),
(262,1284,cs)
);
},
{
closed = 1;
nodes = (
(740,1284,o),
(782,1333,o),
(782,1413,cs),
(782,1493,o),
(740,1541,o),
(678,1541,cs),
(616,1541,o),
(573,1493,o),
(573,1413,cs),
(573,1333,o),
(616,1284,o),
(678,1284,cs)
);
}
);
width = 1000;
}
);
unicode = 239;
},
{
glyphname = idotbelow;
lastChange = "2024-12-31 02:25:17 +0000";
layers = (
{
layerId = "B3EB4CE9-FF8A-458C-8111-2882C1B7C642";
shapes = (
{
closed = 1;
nodes = (
(577,1026,l),
(556,1050,l),
(130,1027,l),
(130,877,l),
(460,877,l),
(423,937,l),
(423,0,l),
(577,0,l)
);
},
{
closed = 1;
nodes = (
(870,0,l),
(870,153,l),
(130,153,l),
(130,0,l)
);
},
{
closed = 1;
nodes = (
(536,1286,o),
(582,1335,o),
(582,1415,cs),
(582,1495,o),
(536,1543,o),
(470,1543,cs),
(403,1543,o),
(357,1495,o),
(357,1415,cs),
(357,1335,o),
(403,1286,o),
(470,1286,cs)
);
},
{
closed = 1;
nodes = (
(566,-515,o),
(612,-466,o),
(612,-386,cs),
(612,-306,o),
(566,-258,o),
(500,-258,cs),
(434,-258,o),
(388,-306,o),
(388,-386,cs),
(388,-466,o),
(434,-515,o),
(500,-515,cs)
);
}
);
width = 1000;
}
);
unicode = 7883;
},
{
glyphname = igrave;
lastChange = "2024-12-31 02:25:17 +0000";
layers = (
{
layerId = "B3EB4CE9-FF8A-458C-8111-2882C1B7C642";
shapes = (
{
closed = 1;
nodes = (
(577,1026,l),
(556,1050,l),
(130,1027,l),
(130,877,l),
(460,877,l),
(423,937,l),
(423,0,l),
(577,0,l)
);
},
{
closed = 1;
nodes = (
(870,0,l),
(870,153,l),
(130,153,l),
(130,0,l)
);
},
{
closed = 1;
nodes = (
(372,1612,l),
(204,1612,l),
(407,1274,l),
(540,1274,l)
);
}
);
width = 1000;
}
);
unicode = 236;
},
{
glyphname = imacron;
lastChange = "2024-12-31 02:25:17 +0000";
layers = (
{
layerId = "B3EB4CE9-FF8A-458C-8111-2882C1B7C642";
shapes = (
{
closed = 1;
nodes = (
(577,1026,l),
(556,1050,l),
(130,1027,l),
(130,877,l),
(460,877,l),
(423,937,l),
(423,0,l),
(577,0,l)
);
},
{
closed = 1;
nodes = (
(870,0,l),
(870,153,l),
(130,153,l),
(130,0,l)
);
},
{
closed = 1;
nodes = (
(211,1457,l),
(211,1326,l),
(729,1326,l),
(729,1457,l)
);
}
);
width = 1000;
}
);
unicode = 299;
},
{
glyphname = iogonek;
lastChange = "2024-12-31 02:25:17 +0000";
layers = (
{
layerId = "B3EB4CE9-FF8A-458C-8111-2882C1B7C642";
shapes = (
{
closed = 1;
nodes = (
(577,1026,l),
(556,1050,l),
(130,1027,l),
(130,877,l),
(460,877,l),
(423,937,l),
(423,0,l),
(577,0,l)
);
},
{
closed = 1;
nodes = (
(870,0,l),
(870,153,l),
(130,153,l),
(130,0,l)
);
},
{
closed = 1;
nodes = (
(536,1286,o),
(582,1335,o),
(582,1415,cs),
(582,1495,o),
(536,1543,o),
(470,1543,cs),
(403,1543,o),
(357,1495,o),
(357,1415,cs),
(357,1335,o),
(403,1286,o),
(470,1286,cs)
);
},
{
closed = 1;
nodes = (
(379,-67,o),
(329,-150,o),
(329,-247,cs),
(329,-331,o),
(367,-414,o),
(518,-414,cs),
(577,-414,l),
(577,-282,l),
(553,-282,ls),
(486,-282,o),
(463,-252,o),
(463,-206,cs),
(463,-153,o),
(493,-88,o),
(577,0,c),
(482,37,l)
);
}
);
width = 1000;
}
);
unicode = 303;
},
{
glyphname = ij;
lastChange = "2024-12-31 02:25:17 +0000";
layers = (
{
layerId = "B3EB4CE9-FF8A-458C-8111-2882C1B7C642";
shapes = (
{
closed = 1;
nodes = (
(393,1026,l),
(373,1050,l),
(94,1027,l),
(94,877,l),
(277,877,l),
(240,937,l),
(240,0,l),
(393,0,l)
);
},
{
closed = 1;
nodes = (
(540,0,l),
(540,153,l),
(95,153,l),
(95,0,l)
);
},
{
closed = 1;
nodes = (
(352,1286,o),
(398,1335,o),
(398,1415,cs),
(398,1495,o),
(352,1543,o),
(286,1543,cs),
(220,1543,o),
(174,1495,o),
(174,1415,cs),
(174,1335,o),
(220,1286,o),
(286,1286,cs)
);
},
{
closed = 1;
nodes = (
(868,1026,l),
(848,1050,l),
(569,1027,l),
(569,877,l),
(752,877,l),
(715,941,l),
(715,-36,ls),
(715,-192,o),
(661,-252,o),
(549,-252,cs),
(498,-252,o),
(440,-240,o),
(394,-227,c),
(394,-386,l),
(451,-402,o),
(504,-411,o),
(559,-411,cs),
(756,-411,o),
(867,-309,o),
(867,-29,cs)
);
},
{
closed = 1;
nodes = (
(827,1286,o),
(873,1335,o),
(873,1415,cs),
(873,1495,o),
(827,1543,o),
(760,1543,cs),
(694,1543,o),
(648,1495,o),
(648,1415,cs),
(648,1335,o),
(694,1286,o),
(760,1286,cs)
);
}
);
width = 1000;
}
);
unicode = 307;
},
{
glyphname = j;
lastChange = "2025-01-03 01:27:08 +0000";
layers = (
{
layerId = "B3EB4CE9-FF8A-458C-8111-2882C1B7C642";
shapes = (
{
closed = 1;
nodes = (
(711,1026,l),
(165,1027,l),
(165,877,l),
(594,877,l),
(558,941,l),
(558,54,ls),
(558,-185,o),
(502,-251,o),
(348,-251,cs),
(273,-251,o),
(202,-237,o),
(130,-216,c),
(130,-381,l),
(201,-406,o),
(274,-418,o),
(352,-418,cs),
(614,-418,o),
(711,-317,o),
(711,49,cs)
);
},
{
closed = 1;
nodes = (
(669,1286,o),
(715,1335,o),
(715,1415,cs),
(715,1495,o),
(669,1543,o),
(602,1543,cs),
(536,1543,o),
(490,1495,o),
(490,1415,cs),
(490,1335,o),
(536,1286,o),
(602,1286,cs)
);
}
);
width = 1000;
}
);
unicode = 106;
},
{
glyphname = jdotless;
lastChange = "2024-12-31 02:25:17 +0000";
layers = (
{
layerId = "B3EB4CE9-FF8A-458C-8111-2882C1B7C642";
shapes = (
{
closed = 1;
nodes = (
(711,1026,l),
(691,1050,l),
(165,1027,l),
(165,877,l),
(594,877,l),
(558,941,l),
(558,54,ls),
(558,-185,o),
(502,-251,o),
(348,-251,cs),
(273,-251,o),
(202,-237,o),
(130,-216,c),
(130,-381,l),
(201,-406,o),
(274,-418,o),
(352,-418,cs),
(614,-418,o),
(711,-317,o),
(711,49,cs)
);
}
);
width = 1000;
}
);
unicode = 567;
},
{
glyphname = jcircumflex;
lastChange = "2024-12-31 02:25:17 +0000";
layers = (
{
layerId = "B3EB4CE9-FF8A-458C-8111-2882C1B7C642";
shapes = (
{
closed = 1;
nodes = (
(711,1026,l),
(691,1050,l),
(165,1027,l),
(165,877,l),
(594,877,l),
(558,941,l),
(558,54,ls),
(558,-185,o),
(502,-251,o),
(348,-251,cs),
(273,-251,o),
(202,-237,o),
(130,-216,c),
(130,-381,l),
(201,-406,o),
(274,-418,o),
(352,-418,cs),
(614,-418,o),
(711,-317,o),
(711,49,cs)
);
},
{
closed = 1;
nodes = (
(455,1274,l),
(627,1572,l),
(578,1572,l),
(750,1274,l),
(889,1274,l),
(681,1612,l),
(525,1612,l),
(316,1274,l)
);
}
);
width = 1000;
}
);
unicode = 309;
},
